<svg xmlns="http://www.w3.org/2000/svg" width="369.256" height="522.517" viewBox="0 0 369.256 522.517">
  <g id="layer1" transform="translate(-179.959 -235.522)">
    <g id="g15522" transform="translate(555.912 -96.26)">
      <path id="path3305" d="M-212.825,797.3s8.168-2.111,14.453,9.152,22.925,35.986,13.459,45.695c-12.8,13.128-53.678-37.246-27.912-54.846Z" fill="#26231f"/>
      <path id="path3307" d="M-162.55,796.575s8.583,3.97,6.914,12.675c-2.413,12.582-24.765,34.758-40.848,22.527-10.137-7.711,9.644-29.794,23.881-34.5,3.592-1.187,7.9-2.408,10.053-.706Z" fill="#26231f"/>
      <path id="path3309" d="M-146.256,691.38s-15.664,99.565-15.664,108.014-18.223,26.047-22.623,21.119,2.514-10.56,7.54-19.008-3.142-97.146-1.257-107,31.376-11.569,32-3.12Z" fill="#26231f"/>
      <path id="path3311" d="M-248.108,684.717s25.857,109.749,29.629,118.9,12.569,30.268,17.6,23.232-5.03-30.977-5.03-30.977-6.282-94.331-8.8-104.892-30.256-19.638-33.4-6.264Z" fill="#26231f"/>
      <path id="path3313" d="M-234.693,421.413s-33.293-89.031-64.441-89.631l-5.372,6.617a20.9,20.9,0,0,1,16.649,8.422l-1.612,3.61s-15.573-15.641-22.018-13.838-10.739,10.83-9.129,14.439,26.313,12.635,23.629,13.836-20.944-13.837-24.7-7.22,11.813,15.04,11.813,15.04l-16.11-3.009-3.221,5.416,16.647,10.828s-20.942,0-20.406,2.407,1.074,8.42,8.592,10.226,3.759,7.218,3.759,7.218-8.056-1.806-6.982,6.015,13.962,6.016,33.834,9.022,41.352,18.049,48.867,13.236,17.184-6.618,10.2-12.634Z" fill="#26231f"/>
      <path id="path3315" d="M-241.38,412.5s-26.85-53.057-34.092-62.517-21.721-15.546-21.721-15.546l-3.62,2.7s13.876,2.7,16.893,9.462-4.827,8.11-4.827,8.11-18.1-16.22-19.912-15.883S-316.2,350.32-316.2,350.32s22.928,5.408,23.834,11.827-3.017,7.1-3.017,7.1S-317.1,358.089-318.008,359.1a4.631,4.631,0,0,0-.906,2.7s16.592,11.152,16.894,14.868-21.721-5.068-21.721-5.068l-2.111,2.7s18.7,7.435,19.308,12.166-3.318,3.717-3.318,3.717H-328.87l2.111,3.042s16.594,6.421,16.292,11.151-12.068,6.422-12.068,6.422.906,4.73,1.509,3.715,61.848,6.423,69.387,17.913c0,0,10.257-12.843,10.86-14.531s-.6-5.408-.6-5.408Z" fill="#855c12"/>
      <path id="path3317" d="M-129.971,417.811S-63.82,329.711-41.364,336c2.15.6,5.371,12.632,5.371,17.444s-4.832,3.61-4.832,3.61l12.35-.6,4.833,15.64s-22.018,10.224-15.573,9.626,16.11-3.61,16.11-3.61,4.832,10.829-.538,11.429-8.055,3.61-4.3,3.61,1.611,9.625,1.611,9.625-66.053,9.623-84.313,25.867-7.519,10.227-11.815,6.617-17.724-6.616-7.518-17.445Z" fill="#26231f"/>
      <path id="path3319" d="M-136.418,426.215s29-66.773,56.926-80.009l3.433,5.447S-116.01,390.12-118.7,406.36s-14.5,23.462-17.722,19.854Z" fill="#26231f"/>
      <path id="path3321" d="M-117.084,428.646S-57.475,403.381-34.92,410l1.074,1.8s-64.444,12.632-87,25.867l3.759-9.022Z" fill="#26231f"/>
      <path id="path3323" d="M-268.523,613.916s-13.966,55.95-8.595,61.365,90.756,57.748,175.606,7.819c0,0-6.98-62.559-17.183-72.187s-139.623-21.054-149.828,3.006Z" fill="#26231f"/>
      <path id="path3325" d="M-115.292,443.382s15.245-12.267,19.481.9,5.669,25.081-12.078,28.088c-.464.079-.321-3.393-.321-3.393s-3.7-19.5-7.082-25.592Z" fill="#26231f"/>
      <path id="path3327" d="M-113.191,447.674s12.409-11.438,15.373-.9,4.962,12.135-10.492,18.855h0s.13-11.806-4.881-17.954Z" fill="#f09b75"/>
      <path id="path3329" d="M-248.229,426.155s-12.757-17.809-19.5-6.028-10.182,25.082,6.523,32.444c.434.19.985-3.228.985-3.228s7.477-18.089,11.991-23.186Z" fill="#26231f"/>
      <path id="path3331" d="M-251.137,429.816s-9.824-14.242-14.806-4.708-7.248,10.592,6.481,21h0S-257.244,434.562-251.137,429.816Z" fill="#f09b75"/>
      <path id="path3333" d="M-108.329,473.815c-3.092,30.733-31.976,53.039-67.49,54.447-4.963.2-10.02,4.956-15.188,4.3-5.9-.745-11.632-6.99-17.043-8.744-33.236-10.751-55.977-39.161-52.943-69.282,3.523-35.028,40.557-59.108,82.713-53.786s73.478,38.032,69.951,73.064Z" fill="#26231f"/>
      <path id="path3335" d="M-113.893,472.044c-2.911,28.913-29.722,49.942-62.649,51.328-4.6.194-9.19,3.1-13.982,2.5-5.471-.69-10.881-4.982-15.9-6.621-30.8-10.052-51.844-36.736-48.993-65.071,3.315-32.954,37.684-55.665,76.761-50.728s68.072,35.643,64.759,68.595Z" fill="#f4b891"/>
      <path id="path3337" d="M-147.268,446.143c-2.539,2.8-8.452,5.211-11.745,3.985Z" fill="#26231f"/>
      <path id="path3339" d="M-159.015,450.1c.372-.849,2.694-.907,5.774-2.129,3.086-1.108,5.334-2.476,5.972-1.858.669.6-1.336,3.764-5.025,5.077-3.677,1.524-7.168-.169-6.721-1.091Z" fill="#26231f"/>
      <path id="path3341" d="M-151.773,441.581a13.377,13.377,0,0,1-9.375,7.257Z" fill="#26231f"/>
      <path id="path3343" d="M-161.146,448.844c-.046-1.03,2.123-2.107,4.58-3.858,2.374-1.866,3.909-3.749,4.8-3.4.756.215-.062,3.85-3.107,6.215-3.087,2.214-6.278,1.908-6.269,1.042Z" fill="#26231f"/>
      <path id="path3345" d="M-155.032,439.841a9.268,9.268,0,0,1-6.609,7.843Z" fill="#26231f"/>
      <path id="path3347" d="M-161.641,447.7c-.082-1.05,1.6-2.153,3.292-3.976,1.568-1.938,2.355-3.834,3.317-3.867.763-.141,1.193,3.38-1.14,6.223-2.441,2.651-5.479,2.479-5.468,1.62Z" fill="#26231f"/>
      <path id="path3349" d="M-155.93,451.305a4.877,4.877,0,0,1-6.511,3.153,5.765,5.765,0,0,1-3.425-6.957,4.876,4.876,0,0,1,6.511-3.147,5.763,5.763,0,0,1,3.425,6.951Z" fill="#26231f"/>
      <path id="path3351" d="M-210.634,434.348c1.921,3.367,7.208,7.189,10.661,6.819Z" fill="#26231f"/>
      <path id="path3353" d="M-199.971,441.191c.273.886-3.416,1.674-6.77-.626-3.286-2.28-4.616-5.843-3.893-6.193.825-.469,2.731,1.374,5.457,3.289,2.768,1.828,4.975,2.491,5.205,3.53Z" fill="#26231f"/>
      <path id="path3355" d="M-205.34,431.047a14.37,14.37,0,0,0,7.7,9.41Z" fill="#26231f"/>
      <path id="path3357" d="M-197.639,440.441c-.167.849-3.334.347-5.9-2.579-2.5-3.065-2.576-6.812-1.8-6.832.935-.119,2.06,2.1,4,4.507,2.048,2.316,3.949,3.913,3.7,4.9Z" fill="#26231f"/>
      <path id="path3359" d="M-201.813,430.176a9.873,9.873,0,0,0,4.884,9.3Z" fill="#26231f"/>
      <path id="path3361" d="M-196.93,439.48c-.158.84-3.155.249-5.007-2.945-1.71-3.353-.591-6.68.125-6.353.928.272,1.322,2.318,2.465,4.6,1.291,2.2,2.709,3.7,2.417,4.7Z" fill="#26231f"/>
      <path id="path3363" d="M-203.212,441.551a5.146,5.146,0,0,0,5.721,4.7,5.454,5.454,0,0,0,4.721-5.93,5.143,5.143,0,0,0-5.722-4.689,5.445,5.445,0,0,0-4.719,5.923Z" fill="#26231f"/>
      <path id="path3365" d="M-117.93,460.279c2.515,9.058-7.031,20.435-21.322,25.414s-27.916,1.681-30.433-7.376,8.331-19.541,22.622-24.526,26.623-2.57,29.135,6.487Z" fill="#f4b891"/>
      <path id="path3367" d="M-118.113,460.279c2.5,8.993-6.97,20.282-21.145,25.222s-27.689,1.662-30.19-7.328,8.256-19.4,22.431-24.343,26.41-2.54,28.9,6.45Z" fill="#f4b791"/>
      <path id="path3369" d="M-118.3,460.309c2.48,8.927-6.907,20.129-20.967,25.029s-27.463,1.642-29.944-7.281,8.18-19.254,22.238-24.159,26.2-2.512,28.674,6.411Z" fill="#f4b791"/>
      <path id="path3371" d="M-118.485,460.309c2.46,8.861-6.847,19.978-20.79,24.836s-27.236,1.623-29.7-7.233,8.1-19.11,22.047-23.975,25.986-2.482,28.443,6.373Z" fill="#f4b690"/>
      <path id="path3373" d="M-118.674,460.309c2.444,8.794-6.784,19.824-20.611,24.642s-27.011,1.605-29.456-7.186,8.031-18.968,21.856-23.791,25.773-2.456,28.211,6.335Z" fill="#f4b590"/>
      <path id="path3375" d="M-118.857,460.339c2.424,8.727-6.723,19.671-20.433,24.447s-26.785,1.586-29.211-7.138,7.955-18.824,21.663-23.606,25.562-2.426,27.982,6.3Z" fill="#f4b490"/>
      <path id="path3377" d="M-119.044,460.339c2.405,8.661-6.662,19.517-20.256,24.253s-26.56,1.568-28.968-7.091,7.881-18.68,21.472-23.422,25.35-2.4,27.752,6.26Z" fill="#f3b490"/>
      <path id="path3379" d="M-119.23,460.339c2.388,8.594-6.6,19.364-20.077,24.061s-26.334,1.546-28.724-7.045,7.805-18.536,21.281-23.239S-121.612,451.749-119.23,460.339Z" fill="#f3b38f"/>
      <path id="path3381" d="M-119.416,460.369c2.37,8.529-6.539,19.213-19.9,23.868s-26.108,1.528-28.48-7,7.731-18.392,21.09-23.054,24.924-2.341,27.289,6.183Z" fill="#f3b28e"/>
      <path id="path3383" d="M-119.6,460.369c2.351,8.462-6.479,19.06-19.722,23.675s-25.881,1.507-28.235-6.951,7.655-18.248,20.9-22.87,24.713-2.312,27.06,6.145Z" fill="#f2b18f"/>
      <path id="path3385" d="M-119.788,460.369c2.334,8.395-6.416,18.906-19.544,23.481s-25.656,1.488-27.991-6.9,7.579-18.106,20.707-22.687,24.5-2.283,26.829,6.108Z" fill="#f2b18d"/>
      <path id="path3387" d="M-119.974,460.4c2.314,8.328-6.355,18.751-19.366,23.287s-25.43,1.469-27.748-6.856,7.507-17.962,20.516-22.5S-122.284,452.073-119.974,460.4Z" fill="#f3b08e"/>
      <path id="path3389" d="M-120.16,460.4c2.3,8.263-6.293,18.6-19.187,23.094s-25.2,1.45-27.5-6.81,7.431-17.816,20.324-22.316,24.076-2.227,26.368,6.033Z" fill="#f3af8e"/>
      <path id="path3391" d="M-120.343,460.4c2.278,8.2-6.232,18.447-19.01,22.9s-24.98,1.43-27.26-6.761,7.356-17.674,20.133-22.134,23.864-2.2,26.137,5.994Z" fill="#f3ae8e"/>
      <path id="path3393" d="M-120.532,460.429c2.259,8.128-6.171,18.293-18.832,22.705s-24.753,1.412-27.015-6.714,7.28-17.53,19.941-21.949,23.651-2.169,25.907,5.957Z" fill="#f3ae8d"/>
      <path id="path3395" d="M-120.718,460.429c2.242,8.064-6.109,18.141-18.653,22.514s-24.528,1.393-26.772-6.666,7.206-17.386,19.749-21.764S-122.956,452.371-120.718,460.429Z" fill="#f2ac8d"/>
      <path id="path3397" d="M-120.9,460.429c2.223,8-6.048,17.987-18.476,22.319s-24.3,1.375-26.526-6.619,7.129-17.244,19.557-21.582,23.227-2.11,25.446,5.881Z" fill="#f2ac8c"/>
      <path id="path3399" d="M-121.087,460.429c2.205,7.929-5.987,17.834-18.3,22.125s-24.076,1.355-26.283-6.571,7.056-17.1,19.365-21.4,23.015-2.083,25.217,5.844Z" fill="#f1ab8c"/>
      <path id="path3401" d="M-121.274,460.459c2.187,7.864-5.925,17.68-18.121,21.932s-23.85,1.337-26.038-6.525,6.98-16.954,19.175-21.213,22.8-2.053,24.983,5.806Z" fill="#f1ab8c"/>
      <path id="path3403" d="M-121.463,460.459c2.168,7.8-5.864,17.527-17.944,21.739s-23.623,1.316-25.794-6.478,6.9-16.812,18.983-21.029,22.59-2.027,24.754,5.767Z" fill="#f2a98a"/>
      <path id="path3405" d="M-121.646,460.459c2.15,7.73-5.8,17.374-17.765,21.545s-23.4,1.3-25.55-6.43,6.829-16.668,18.792-20.845,22.376-2,24.522,5.73Z" fill="#f2a88b"/>
      <path id="path3407" d="M-121.829,460.489c2.13,7.665-5.744,17.221-17.59,21.354s-23.171,1.276-25.305-6.384,6.754-16.525,18.6-20.661,22.166-1.969,24.3,5.691Z" fill="#f2a88a"/>
      <path id="path3409" d="M-122.018,460.489c2.114,7.6-5.681,17.069-17.41,21.161s-22.945,1.258-25.061-6.337,6.68-16.382,18.408-20.478,21.954-1.939,24.063,5.654Z" fill="#f2a78a"/>
      <path id="path3411" d="M-122.2,460.489c2.094,7.531-5.62,16.914-17.232,20.966s-22.72,1.239-24.818-6.291,6.606-16.236,18.218-20.291,21.741-1.913,23.832,5.616Z" fill="#f1a689"/>
      <path id="path3413" d="M-122.39,460.52c2.076,7.465-5.559,16.761-17.053,20.773s-22.5,1.22-24.574-6.243,6.53-16.094,18.024-20.109,21.529-1.883,23.6,5.579Z" fill="#f0a589"/>
      <path id="path3415" d="M-122.573,460.52c2.058,7.4-5.5,16.61-16.876,20.579s-22.269,1.2-24.329-6.194,6.455-15.95,17.832-19.925S-124.627,453.126-122.573,460.52Z" fill="#f0a48a"/>
      <path id="path3417" d="M-122.762,460.52c2.04,7.331-5.436,16.456-16.7,20.385s-22.043,1.182-24.085-6.148,6.38-15.806,17.643-19.739S-124.8,453.191-122.762,460.52Z" fill="#f0a488"/>
      <path id="path3419" d="M-122.948,460.549c2.023,7.266-5.374,16.3-16.519,20.192s-21.816,1.163-23.84-6.1,6.3-15.662,17.45-19.555,20.893-1.8,22.91,5.464Z" fill="#f0a388"/>
      <path id="path3421" d="M-123.134,460.549c2,7.2-5.312,16.15-16.342,20s-21.591,1.144-23.6-6.054,6.229-15.518,17.259-19.371,20.68-1.769,22.68,5.426Z" fill="#f0a288"/>
      <path id="path3423" d="M-123.32,460.549c1.987,7.132-5.25,16-16.164,19.8s-21.366,1.123-23.353-6.006,6.155-15.376,17.068-19.189,20.467-1.739,22.449,5.39Z" fill="#f0a187"/>
      <path id="path3425" d="M-123.507,460.58c1.968,7.067-5.19,15.843-15.986,19.612s-21.14,1.105-23.109-5.96,6.08-15.23,16.876-19,20.256-1.712,22.219,5.35Z" fill="#f0a187"/>
      <path id="path3427" d="M-123.693,460.58c1.949,7-5.128,15.692-15.808,19.419s-20.914,1.085-22.865-5.913,6.006-15.086,16.685-18.819,20.043-1.682,21.988,5.313Z" fill="#f09f87"/>
      <path id="path3429" d="M-123.879,460.58c1.93,6.933-5.068,15.537-15.631,19.225s-20.688,1.067-22.62-5.865S-156.2,459-145.638,455.3s19.832-1.654,21.759,5.276Z" fill="#ef9e86"/>
      <path id="path3431" d="M-124.062,460.61c1.913,6.867-5.005,15.385-15.452,19.032s-20.463,1.046-22.377-5.818,5.854-14.8,16.3-18.451,19.618-1.626,21.527,5.238Z" fill="#ef9c86"/>
      <path id="path3433" d="M-124.248,460.61c1.894,6.8-4.946,15.23-15.275,18.837s-20.236,1.028-22.133-5.771,5.78-14.656,16.11-18.266,19.407-1.6,21.3,5.2Z" fill="#ef9c86"/>
      <path id="path3435" d="M-124.437,460.61c1.877,6.733-4.882,15.077-15.1,18.644s-20.011,1.007-21.888-5.724,5.7-14.512,15.917-18.083,19.2-1.567,21.067,5.163Z" fill="#ef9b85"/>
      <path id="path3437" d="M-124.62,460.64c1.857,6.668-4.823,14.926-14.918,18.451s-19.786.99-21.644-5.677,5.629-14.368,15.726-17.9,18.983-1.54,20.836,5.123Z" fill="#ef9b84"/>
      <path id="path3439" d="M-124.809,460.64c1.84,6.6-4.76,14.772-14.739,18.257s-19.561.97-21.4-5.629,5.555-14.226,15.535-17.715,18.77-1.51,20.606,5.087Z" fill="#ef9b84"/>
      <path id="path3441" d="M-124.992,460.64c1.821,6.536-4.7,14.619-14.562,18.064s-19.334.951-21.157-5.582,5.479-14.082,15.344-17.531,18.559-1.482,20.375,5.049Z" fill="#ef9983"/>
      <path id="path3443" d="M-125.178,460.64c1.8,6.469-4.637,14.466-14.384,17.871s-19.108.932-20.912-5.534,5.4-13.938,15.151-17.348S-126.977,454.177-125.178,460.64Z" fill="#ef9883"/>
      <path id="path3445" d="M-125.364,460.67c1.784,6.4-4.578,14.313-14.208,17.677s-18.88.912-20.667-5.488,5.33-13.792,14.961-17.162S-127.146,454.272-125.364,460.67Z" fill="#ee9783"/>
      <path id="path3447" d="M-125.55,460.67c1.767,6.335-4.514,14.16-14.028,17.484s-18.656.893-20.423-5.441,5.253-13.652,14.768-16.978,17.921-1.4,19.683,4.935Z" fill="#ee9783"/>
      <path id="path3449" d="M-125.736,460.67c1.748,6.268-4.455,14.008-13.852,17.291s-18.429.874-20.179-5.395,5.18-13.506,14.578-16.793,17.709-1.368,19.454,4.9Z" fill="#ee9682"/>
      <path id="path3451" d="M-125.923,460.7c1.729,6.2-4.392,13.853-13.675,17.1s-18.2.855-19.934-5.346,5.1-13.364,14.386-16.61,17.5-1.34,19.223,4.859Z" fill="#ed9482"/>
      <path id="path3453" d="M-126.109,460.7c1.711,6.137-4.331,13.7-13.5,16.9s-17.978.835-19.691-5.3,5.029-13.218,14.195-16.426,17.284-1.31,18.991,4.822Z" fill="#ed9482"/>
      <path id="path3455" d="M-126.292,460.7c1.693,6.07-4.269,13.549-13.318,16.711s-17.751.816-19.445-5.252,4.954-13.074,14-16.241,17.072-1.283,18.762,4.782Z" fill="#ee9482"/>
      <path id="path3457" d="M-126.481,460.73c1.674,6-4.209,13.395-13.141,16.515s-17.526.8-19.2-5.2,4.878-12.932,13.812-16.058,16.859-1.254,18.53,4.746Z" fill="#ee9282"/>
      <path id="path3459" d="M-126.664,460.73c1.656,5.938-4.147,13.242-12.963,16.322s-17.3.779-18.958-5.157,4.8-12.787,13.62-15.873,16.647-1.224,18.3,4.708Z" fill="#ed9182"/>
      <path id="path3461" d="M-126.85,460.73c1.639,5.871-4.085,13.089-12.784,16.129s-17.075.758-18.714-5.11,4.731-12.644,13.428-15.689,16.436-1.2,18.071,4.669Z" fill="#ed9181"/>
      <path id="path3463" d="M-127.039,460.76c1.619,5.8-4.025,12.935-12.607,15.935s-16.849.74-18.471-5.062,4.656-12.5,13.238-15.5,16.223-1.168,17.84,4.632Z" fill="#ed9081"/>
      <path id="path3465" d="M-127.222,460.76c1.6,5.736-3.963,12.781-12.428,15.741s-16.623.72-18.226-5.015,4.579-12.358,13.045-15.322S-128.819,455.025-127.222,460.76Z" fill="#ed8e81"/>
      <path id="path3467" d="M-127.411,460.76c1.584,5.672-3.9,12.631-12.251,15.549s-16.4.7-17.982-4.967,4.5-12.214,12.853-15.137S-128.991,455.093-127.411,460.76Z" fill="#ed8d80"/>
      <path id="path3469" d="M-127.6,460.79c1.567,5.6-3.84,12.476-12.072,15.355s-16.171.681-17.737-4.922,4.428-12.069,12.661-14.953S-129.157,455.189-127.6,460.79Z" fill="#ed8d80"/>
      <path id="path3471" d="M-127.78,460.79c1.548,5.539-3.779,12.324-11.894,15.162s-15.946.663-17.493-4.874,4.352-11.926,12.47-14.769S-129.323,455.257-127.78,460.79Z" fill="#ed8c7f"/>
      <path id="path3473" d="M-127.966,460.79c1.529,5.472-3.718,12.171-11.717,14.969s-15.721.642-17.249-4.826,4.28-11.782,12.28-14.585,15.161-1.025,16.687,4.442Z" fill="#ed8a7f"/>
      <path id="path3475" d="M-128.153,460.79c1.51,5.405-3.657,12.017-11.539,14.775s-15.495.625-17.006-4.779,4.2-11.64,12.088-14.4S-129.66,455.389-128.153,460.79Z" fill="#ed8a7e"/>
      <path id="path3477" d="M-128.339,460.82c1.493,5.338-3.595,11.864-11.361,14.58s-15.269.605-16.762-4.733,4.13-11.494,11.9-14.215S-129.828,455.483-128.339,460.82Z" fill="#eb897d"/>
      <path id="path3479" d="M-128.525,460.82c1.474,5.271-3.534,11.711-11.183,14.388s-15.043.586-16.517-4.684,4.053-11.352,11.705-14.033S-130,455.551-128.525,460.82Z" fill="#eb877c"/>
      <path id="path3481" d="M-128.711,460.82c1.457,5.206-3.472,11.556-11,14.195s-14.816.567-16.273-4.638,3.979-11.208,11.513-13.847,14.313-.911,15.765,4.291Z" fill="#eb877c"/>
      <path id="path3483" d="M-128.9,460.85c1.437,5.139-3.411,11.405-10.828,14s-14.59.547-16.028-4.59,3.9-11.064,11.322-13.663S-130.33,455.715-128.9,460.85Z" fill="#eb867b"/>
      <path id="path3485" d="M-129.08,460.85c1.42,5.073-3.35,11.251-10.651,13.807s-14.365.528-15.784-4.545,3.829-10.92,11.132-13.478,13.888-.855,15.3,4.215Z" fill="#ea847b"/>
      <path id="path3487" d="M-129.269,460.85c1.4,5.006-3.288,11.1-10.47,13.614s-14.139.509-15.541-4.5,3.754-10.776,10.938-13.3S-130.665,455.847-129.269,460.85Z" fill="#ea837b"/>
      <path id="path3489" d="M-129.452,460.88c1.383,4.939-3.227,10.944-10.293,13.42s-13.914.49-15.3-4.45,3.678-10.632,10.747-13.111,13.464-.8,14.843,4.141Z" fill="#ea837b"/>
      <path id="path3491" d="M-129.641,460.88c1.364,4.874-3.166,10.792-10.117,13.227s-13.687.47-15.051-4.4,3.6-10.488,10.555-12.926,13.251-.767,14.612,4.1Z" fill="#ea8179"/>
      <path id="path3493" d="M-129.827,460.88c1.347,4.809-3.1,10.64-9.938,13.034s-13.461.451-14.807-4.355,3.527-10.346,10.363-12.744,13.04-.739,14.382,4.064Z" fill="#ea8078"/>
      <path id="path3495" d="M-130.01,460.91c1.328,4.742-3.042,10.487-9.759,12.841s-13.238.432-14.565-4.309,3.453-10.2,10.172-12.56,12.827-.709,14.151,4.027Z" fill="#ea8078"/>
      <path id="path3497" d="M-130.2,460.91c1.309,4.675-2.982,10.333-9.583,12.647s-13.009.412-14.32-4.261,3.378-10.058,9.982-12.374,12.615-.681,13.921,3.988Z" fill="#ea7e77"/>
      <path id="path3499" d="M-130.385,460.91c1.293,4.609-2.919,10.18-9.4,12.454s-12.784.393-14.076-4.214,3.3-9.914,9.791-12.192,12.4-.653,13.689,3.951Z" fill="#ea7d78"/>
      <path id="path3501" d="M-130.569,460.94c1.273,4.54-2.858,10.027-9.227,12.26s-12.558.372-13.831-4.166,3.228-9.772,9.6-12.008,12.19-.623,13.46,3.914Z" fill="#e97c77"/>
      <path id="path3503" d="M-130.755,460.94c1.254,4.475-2.8,9.874-9.049,12.067s-12.331.355-13.587-4.12,3.154-9.626,9.405-11.822S-132.006,456.469-130.755,460.94Z" fill="#e97c77"/>
      <path id="path3505" d="M-130.938,460.94c1.236,4.409-2.736,9.721-8.872,11.873s-12.106.337-13.343-4.071,3.078-9.484,9.216-11.638,11.764-.567,13,3.837Z" fill="#e97a76"/>
      <path id="path3507" d="M-131.127,460.94c1.219,4.341-2.674,9.567-8.693,11.678s-11.881.318-13.1-4.024,3-9.34,9.023-11.454S-132.343,456.6-131.127,460.94Z" fill="#e97a76"/>
      <path id="path3509" d="M-131.313,460.97c1.2,4.276-2.613,9.414-8.515,11.485s-11.656.3-12.855-3.976,2.927-9.2,8.832-11.27S-132.51,456.7-131.313,460.97Z" fill="#e87975"/>
      <path id="path3511" d="M-131.5,460.97c1.183,4.208-2.551,9.261-8.337,11.291s-11.43.279-12.611-3.93,2.853-9.052,8.64-11.085,11.13-.482,12.308,3.724Z" fill="#e87975"/>
      <path id="path3513" d="M-131.685,460.97c1.163,4.142-2.49,9.108-8.159,11.1s-11.2.26-12.367-3.883,2.779-8.908,8.449-10.9,10.917-.454,12.077,3.686Z" fill="#e87875"/>
      <path id="path3515" d="M-131.871,461c1.146,4.077-2.429,8.956-7.98,10.907s-10.978.239-12.122-3.837,2.7-8.764,8.257-10.718,10.705-.423,11.845,3.648Z" fill="#e87775"/>
      <path id="path3517" d="M-132.057,461c1.127,4.01-2.368,8.8-7.8,10.714s-10.752.22-11.879-3.789,2.628-8.622,8.065-10.534,10.493-.395,11.616,3.61Z" fill="#e87673"/>
      <path id="path3519" d="M-132.243,461c1.109,3.944-2.307,8.65-7.625,10.52s-10.526.2-11.633-3.743,2.552-8.478,7.872-10.349,10.282-.366,11.387,3.573Z" fill="#e87673"/>
      <path id="path3521" d="M-132.426,461.03c1.089,3.877-2.248,8.5-7.45,10.327s-10.3.181-11.39-3.7,2.478-8.334,7.684-10.165,10.068-.338,11.156,3.534Z" fill="#e87573"/>
      <path id="path3523" d="M-132.612,461.03c1.072,3.81-2.184,8.343-7.269,10.131s-10.074.163-11.146-3.647,2.4-8.19,7.49-9.981S-133.681,457.222-132.612,461.03Z" fill="#e87473"/>
      <path id="path3525" d="M-132.8,461.03c1.054,3.743-2.123,8.19-7.091,9.938s-9.849.144-10.9-3.6,2.327-8.046,7.3-9.8,9.644-.279,10.694,3.46Z" fill="#e87472"/>
      <path id="path3527" d="M-132.985,461.06c1.036,3.678-2.061,8.037-6.913,9.745s-9.623.125-10.659-3.554,2.253-7.9,7.109-9.613,9.431-.252,10.463,3.421Z" fill="#e87472"/>
      <path id="path3529" d="M-133.171,461.06c1.017,3.611-2,7.883-6.737,9.551s-9.4.105-10.412-3.506,2.178-7.758,6.915-9.429,9.219-.223,10.233,3.384Z" fill="#e87272"/>
      <path id="path3531" d="M-133.36,461.06c1,3.545-1.939,7.732-6.559,9.358s-9.171.086-10.168-3.459,2.1-7.616,6.725-9.245S-134.356,457.518-133.36,461.06Z" fill="#e87171"/>
      <path id="path3533" d="M-133.546,461.09c.981,3.479-1.877,7.579-6.38,9.165s-8.944.067-9.925-3.411,2.028-7.472,6.533-9.061,8.8-.166,9.773,3.307Z" fill="#e86f70"/>
      <path id="path3535" d="M-133.729,461.09c.963,3.411-1.816,7.425-6.2,8.971s-8.719.047-9.681-3.364,1.955-7.328,6.342-8.877,8.582-.138,9.542,3.27Z" fill="#e86f70"/>
      <path id="path3537" d="M-133.915,461.09c.943,3.346-1.755,7.272-6.025,8.778s-8.493.027-9.436-3.316,1.877-7.186,6.15-8.693,8.37-.11,9.312,3.232Z" fill="#e86e70"/>
      <path id="path3539" d="M-134.1,461.09c.927,3.279-1.691,7.119-5.847,8.585s-8.266.009-9.192-3.27,1.8-7.04,5.958-8.507,8.159-.082,9.081,3.193Z" fill="#e76d6f"/>
      <path id="path3541" d="M-134.287,461.12c.907,3.212-1.632,6.966-5.669,8.39s-8.041-.009-8.947-3.223,1.727-6.9,5.766-8.323,7.946-.053,8.851,3.156Z" fill="#e76c6f"/>
      <path id="path3543" d="M-134.473,461.12c.889,3.147-1.571,6.813-5.49,8.2s-7.817-.031-8.7-3.178,1.652-6.752,5.575-8.138,7.734-.024,8.62,3.117Z" fill="#e76c6f"/>
      <path id="path3545" d="M-134.659,461.12c.872,3.082-1.509,6.66-5.313,8s-7.591-.049-8.46-3.128,1.578-6.61,5.384-7.957,7.521.006,8.388,3.08Z" fill="#e76a6f"/>
      <path id="path3547" d="M-134.845,461.15c.853,3.013-1.448,6.506-5.135,7.81s-7.365-.068-8.216-3.082,1.5-6.466,5.192-7.772S-135.694,458.141-134.845,461.15Z" fill="#e7696d"/>
      <path id="path3549" d="M-135.031,461.15c.834,2.948-1.387,6.353-4.958,7.617s-7.139-.088-7.972-3.034,1.428-6.322,5-7.588,7.1.062,7.929,3Z" fill="#e6676d"/>
      <path id="path3551" d="M-135.215,461.15c.816,2.88-1.326,6.2-4.78,7.423s-6.913-.107-7.727-2.988,1.352-6.177,4.809-7.4,6.883.092,7.7,2.967Z" fill="#e7666d"/>
      <path id="path3553" d="M-135.4,461.18c.8,2.815-1.264,6.048-4.6,7.23s-6.687-.126-7.484-2.941,1.278-6.034,4.617-7.218,6.673.119,7.468,2.929Z" fill="#e7666d"/>
      <path id="path3555" d="M-135.59,461.18c.779,2.748-1.2,5.895-4.424,7.037s-6.461-.145-7.24-2.893,1.2-5.89,4.427-7.036,6.46.15,7.237,2.892Z" fill="#e6656c"/>
      <path id="path3557" d="M-248.934,438.97c-4.25,8.2,2.8,21.677,15.739,30.1s26.877,8.6,31.135.4-4.237-21.131-17.178-29.551-25.444-9.143-29.7-.944Z" fill="#f4b891"/>
      <path id="path3559" d="M-248.757,439.03c-4.22,8.144,2.767,21.511,15.606,29.861s26.66,8.526,30.886.385-4.194-20.974-17.028-29.324-25.243-9.064-29.464-.923Z" fill="#f4b791"/>
      <path id="path3561" d="M-248.577,439.09c-4.189,8.085,2.737,21.348,15.469,29.628s26.446,8.451,30.64.371-4.148-20.813-16.878-29.1-25.042-8.982-29.231-.9Z" fill="#f4b791"/>
      <path id="path3563" d="M-248.4,439.15c-4.158,8.024,2.707,21.184,15.334,29.4s26.23,8.374,30.394.355-4.1-20.653-16.727-28.87-24.842-8.9-29-.881Z" fill="#f4b690"/>
      <path id="path3565" d="M-248.22,439.21c-4.127,7.965,2.678,21.018,15.2,29.162s26.011,8.3,30.145.341-4.058-20.5-16.577-28.643-24.64-8.819-28.767-.861Z" fill="#f4b590"/>
      <path id="path3567" d="M-248.039,439.24c-4.1,7.905,2.649,20.854,15.065,28.931s25.8,8.224,29.9.326-4.015-20.337-16.428-28.416-24.438-8.74-28.535-.841Z" fill="#f4b490"/>
      <path id="path3569" d="M-247.856,439.3c-4.066,7.844,2.62,20.689,14.929,28.7s25.581,8.15,29.651.31-3.97-20.177-16.277-28.187-24.238-8.658-28.3-.819Z" fill="#f3b490"/>
      <path id="path3571" d="M-247.679,439.36c-4.035,7.784,2.589,20.526,14.8,28.465s25.362,8.074,29.4.3-3.925-20.02-16.127-27.961-24.035-8.579-28.07-.8Z" fill="#f3b38f"/>
      <path id="path3573" d="M-247.5,439.42c-4,7.723,2.56,20.359,14.659,28.231s25.148,8,29.156.282-3.881-19.861-15.977-27.733-23.835-8.5-27.838-.779Z" fill="#f3b28e"/>
      <path id="path3575" d="M-247.319,439.48c-3.972,7.663,2.531,20.195,14.525,28s24.93,7.924,28.906.267-3.834-19.7-15.826-27.507-23.635-8.416-27.606-.758Z" fill="#f2b18f"/>
      <path id="path3577" d="M-247.142,439.54c-3.942,7.6,2.5,20.032,14.39,27.766s24.714,7.849,28.662.251-3.792-19.542-15.677-27.279S-243.2,431.944-247.142,439.54Z" fill="#f2b18d"/>
      <path id="path3579" d="M-246.962,439.6c-3.909,7.543,2.474,19.867,14.256,27.532s24.5,7.775,28.413.238-3.747-19.385-15.526-27.053-23.232-8.255-27.142-.717Z" fill="#f3b08e"/>
      <path id="path3581" d="M-246.782,439.63c-3.881,7.482,2.441,19.7,14.118,27.3s24.283,7.7,28.165.221-3.7-19.224-15.375-26.824-23.03-8.174-26.908-.7Z" fill="#f3af8e"/>
      <path id="path3583" d="M-246.6,439.69c-3.849,7.423,2.413,19.538,13.984,27.066s24.064,7.625,27.919.206-3.659-19.065-15.227-26.6-22.829-8.092-26.676-.675Z" fill="#f3ae8e"/>
      <path id="path3585" d="M-246.425,439.75c-3.817,7.362,2.384,19.373,13.849,26.833s23.848,7.551,27.671.193-3.612-18.907-15.076-26.37-22.628-8.012-26.444-.656Z" fill="#f3ae8d"/>
      <path id="path3587" d="M-246.245,439.81c-3.786,7.3,2.355,19.208,13.716,26.6s23.632,7.474,27.423.176-3.568-18.747-14.926-26.143-22.427-7.932-26.212-.634Z" fill="#f2ac8d"/>
      <path id="path3589" d="M-246.065,439.871c-3.755,7.24,2.325,19.042,13.579,26.367s23.416,7.4,27.177.16-3.524-18.588-14.777-25.914-22.226-7.85-25.98-.613Z" fill="#f2ac8c"/>
      <path id="path3591" d="M-245.885,439.931c-3.725,7.18,2.3,18.879,13.445,26.133s23.2,7.325,26.928.148-3.479-18.431-14.626-25.689-22.024-7.769-25.748-.592Z" fill="#f1ab8c"/>
      <path id="path3593" d="M-245.7,439.991c-3.694,7.122,2.266,18.716,13.309,25.9s22.985,7.249,26.681.134-3.434-18.272-14.474-25.462-21.824-7.689-25.516-.573Z" fill="#f1ab8c"/>
      <path id="path3595" d="M-245.527,440.021c-3.662,7.059,2.237,18.549,13.175,25.668s22.767,7.174,26.434.117-3.391-18.113-14.326-25.235-21.622-7.607-25.283-.55Z" fill="#f2a98a"/>
      <path id="path3597" d="M-245.344,440.081c-3.632,7,2.208,18.386,13.039,25.435s22.551,7.1,26.186.1-3.345-17.953-14.174-25.006-21.422-7.527-25.051-.531Z" fill="#f2a88b"/>
      <path id="path3599" d="M-245.167,440.141c-3.6,6.939,2.177,18.22,12.9,25.2s22.334,7.024,25.938.088-3.3-17.794-14.025-24.779-21.218-7.445-24.818-.509Z" fill="#f2a88a"/>
      <path id="path3601" d="M-244.987,440.2c-3.57,6.88,2.148,18.057,12.768,24.969s22.118,6.948,25.692.073-3.257-17.637-13.874-24.552-21.019-7.365-24.586-.49Z" fill="#f2a78a"/>
      <path id="path3603" d="M-244.807,440.261c-3.538,6.819,2.119,17.89,12.635,24.735s21.9,6.874,25.444.058-3.212-17.477-13.725-24.324-20.818-7.285-24.354-.469Z" fill="#f1a689"/>
      <path id="path3605" d="M-244.63,440.321c-3.507,6.76,2.09,17.727,12.5,24.5s21.686,6.8,25.2.043-3.17-17.319-13.576-24.1-20.617-7.2-24.122-.448Z" fill="#f0a589"/>
      <path id="path3607" d="M-244.453,440.351c-3.475,6.7,2.061,17.564,12.364,24.27s21.471,6.724,24.95.027-3.122-17.159-13.425-23.87-20.414-7.123-23.889-.429Z" fill="#f0a48a"/>
      <path id="path3609" d="M-244.273,440.411c-3.445,6.638,2.031,17.4,12.229,24.037s21.253,6.647,24.7.012-3.078-17-13.274-23.644-20.214-7.042-23.657-.407Z" fill="#f0a488"/>
      <path id="path3611" d="M-244.093,440.471c-3.413,6.577,2,17.232,12.1,23.8s21.036,6.573,24.454,0-3.03-16.842-13.123-23.417-20.012-6.96-23.426-.384Z" fill="#f0a388"/>
      <path id="path3613" d="M-243.913,440.531c-3.383,6.518,1.972,17.068,11.959,23.57s20.822,6.5,24.207-.015-2.988-16.684-12.974-23.19-19.811-6.88-23.193-.365Z" fill="#f0a288"/>
      <path id="path3615" d="M-243.733,440.591c-3.351,6.459,1.943,16.905,11.825,23.339s20.6,6.423,23.96-.031-2.944-16.524-12.824-22.962-19.61-6.8-22.961-.346Z" fill="#f0a187"/>
      <path id="path3617" d="M-243.553,440.651c-3.321,6.4,1.913,16.739,11.689,23.1s20.387,6.349,23.713-.046-2.9-16.365-12.674-22.735-19.408-6.718-22.728-.323Z" fill="#f0a187"/>
      <path id="path3619" d="M-243.372,440.711c-3.29,6.337,1.885,16.574,11.555,22.871s20.171,6.273,23.464-.061-2.854-16.208-12.523-22.508-19.207-6.638-22.5-.3Z" fill="#f09f87"/>
      <path id="path3621" d="M-243.192,440.741c-3.26,6.276,1.854,16.41,11.419,22.639s19.956,6.2,23.218-.076-2.811-16.048-12.374-22.279-19.006-6.558-22.263-.283Z" fill="#ef9e86"/>
      <path id="path3623" d="M-243.018,440.8c-3.228,6.217,1.825,16.247,11.285,22.405s19.738,6.123,22.97-.089-2.767-15.89-12.224-22.054-18.8-6.477-22.031-.263Z" fill="#ef9c86"/>
      <path id="path3625" d="M-242.838,440.861c-3.2,6.156,1.8,16.082,11.151,22.172s19.522,6.048,22.722-.105-2.722-15.73-12.073-21.827-18.6-6.393-21.8-.24Z" fill="#ef9c86"/>
      <path id="path3627" d="M-242.658,440.921c-3.166,6.1,1.766,15.917,11.015,21.941s19.306,5.972,22.475-.122-2.677-15.571-11.923-21.6-18.4-6.313-21.566-.221Z" fill="#ef9b85"/>
      <path id="path3629" d="M-242.475,440.981c-3.136,6.036,1.736,15.751,10.879,21.705s19.09,5.9,22.229-.134S-212,447.14-221.142,441.181s-18.2-6.233-21.333-.2Z" fill="#ef9b84"/>
      <path id="path3631" d="M-242.3,441.041c-3.1,5.975,1.707,15.588,10.745,21.474s18.873,5.823,21.981-.15-2.588-15.254-11.624-21.144-18-6.151-21.1-.179Z" fill="#ef9b84"/>
      <path id="path3633" d="M-242.118,441.1c-3.073,5.916,1.678,15.423,10.61,21.241s18.657,5.746,21.733-.166-2.542-15.094-11.473-20.916-17.8-6.071-20.869-.159Z" fill="#ef9983"/>
      <path id="path3635" d="M-241.941,441.131c-3.041,5.856,1.649,15.26,10.476,21.009s18.44,5.672,21.485-.179-2.5-14.935-11.324-20.69-17.6-5.99-20.638-.14Z" fill="#ef9883"/>
      <path id="path3637" d="M-241.761,441.191c-3.011,5.8,1.619,15.1,10.339,20.775s18.226,5.6,21.238-.193S-212.637,447-221.355,441.31s-17.4-5.91-20.406-.119Z" fill="#ee9783"/>
      <path id="path3639" d="M-241.581,441.251c-2.979,5.735,1.591,14.931,10.206,20.542s18.008,5.521,20.991-.209-2.409-14.618-11.024-20.236-17.2-5.828-20.173-.1Z" fill="#ee9783"/>
      <path id="path3641" d="M-241.4,441.311c-2.948,5.674,1.56,14.766,10.071,20.309s17.791,5.448,20.742-.224-2.364-14.459-10.872-20.008-17-5.748-19.941-.077Z" fill="#ee9682"/>
      <path id="path3643" d="M-241.223,441.371c-2.918,5.614,1.533,14.6,9.935,20.078s17.575,5.372,20.5-.239-2.321-14.3-10.722-19.782S-238.308,435.761-241.223,441.371Z" fill="#ed9482"/>
      <path id="path3645" d="M-241.043,441.431c-2.887,5.555,1.5,14.437,9.8,19.843s17.359,5.3,20.249-.254-2.277-14.141-10.572-19.554-16.592-5.586-19.476-.036Z" fill="#ed9482"/>
      <path id="path3647" d="M-240.863,441.461c-2.856,5.5,1.473,14.273,9.665,19.612s17.143,5.221,20-.27-2.231-13.982-10.421-19.327-16.39-5.5-19.244-.015Z" fill="#ee9482"/>
      <path id="path3649" d="M-240.683,441.521c-2.825,5.433,1.442,14.107,9.529,19.377s16.928,5.147,19.754-.283-2.185-13.824-10.272-19.1-16.19-5.425-19.011.006Z" fill="#ee9282"/>
      <path id="path3651" d="M-240.5,441.581c-2.795,5.374,1.413,13.944,9.395,19.144s16.71,5.071,19.506-.3-2.142-13.665-10.122-18.871-15.987-5.344-18.779.024Z" fill="#ed9182"/>
      <path id="path3653" d="M-240.326,441.641c-2.762,5.313,1.384,13.778,9.26,18.911s16.495,5,19.259-.315-2.1-13.506-9.971-18.644-15.787-5.263-18.547.047Z" fill="#ed9181"/>
      <path id="path3655" d="M-240.146,441.7c-2.731,5.252,1.354,13.614,9.125,18.678s16.277,4.923,19.011-.328-2.052-13.347-9.821-18.417-15.586-5.183-18.314.067Z" fill="#ed9081"/>
      <path id="path3657" d="M-239.966,441.761c-2.7,5.193,1.326,13.45,8.99,18.447s16.063,4.846,18.765-.343-2.008-13.19-9.672-18.192-15.384-5.1-18.083.088Z" fill="#ed8e81"/>
      <path id="path3659" d="M-239.786,441.821c-2.669,5.132,1.3,13.285,8.856,18.212s15.845,4.771,18.516-.358-1.963-13.03-9.521-17.965-15.183-5.018-17.851.11Z" fill="#ed8d80"/>
      <path id="path3661" d="M-239.606,441.851c-2.638,5.073,1.266,13.12,8.721,17.978s15.628,4.7,18.269-.372-1.919-12.871-9.372-17.736-14.982-4.939-17.618.131Z" fill="#ed8d80"/>
      <path id="path3663" d="M-239.429,441.911c-2.607,5.012,1.237,12.956,8.586,17.747s15.412,4.62,18.022-.389-1.874-12.711-9.222-17.508-14.779-4.859-17.386.15Z" fill="#ed8c7f"/>
      <path id="path3665" d="M-239.249,441.971c-2.578,4.953,1.207,12.791,8.449,17.515s15.2,4.546,17.775-.4-1.829-12.553-9.071-17.281-14.58-4.779-17.154.169Z" fill="#ed8a7f"/>
      <path id="path3667" d="M-239.072,442.031c-2.546,4.892,1.177,12.626,8.315,17.279s14.979,4.473,17.528-.417-1.785-12.393-8.922-17.054-14.378-4.7-16.921.191Z" fill="#ed8a7e"/>
      <path id="path3669" d="M-238.888,442.092c-2.514,4.829,1.148,12.462,8.179,17.046s14.765,4.4,17.28-.432-1.74-12.236-8.77-16.827-14.178-4.617-16.689.212Z" fill="#eb897d"/>
      <path id="path3671" d="M-238.711,442.152c-2.484,4.771,1.119,12.3,8.045,16.815s14.547,4.321,17.032-.448-1.7-12.077-8.62-16.6-13.976-4.536-16.457.233Z" fill="#eb877c"/>
      <path id="path3673" d="M-238.531,442.182c-2.452,4.711,1.09,12.134,7.91,16.582s14.332,4.245,16.786-.461-1.652-11.919-8.47-16.374-13.775-4.454-16.226.254Z" fill="#eb877c"/>
      <path id="path3675" d="M-238.351,442.242c-2.421,4.65,1.061,11.969,7.775,16.348s14.116,4.171,16.537-.476-1.607-11.76-8.319-16.146-13.574-4.373-15.992.275Z" fill="#eb867b"/>
      <path id="path3677" d="M-238.171,442.3c-2.391,4.59,1.031,11.8,7.64,16.116s13.9,4.095,16.289-.493-1.562-11.6-8.17-15.917-13.373-4.294-15.759.294Z" fill="#ea847b"/>
      <path id="path3679" d="M-237.991,442.362c-2.36,4.53,1,11.638,7.5,15.882s13.681,4.021,16.043-.506-1.518-11.441-8.02-15.692-13.171-4.212-15.528.316Z" fill="#ea837b"/>
      <path id="path3681" d="M-237.814,442.422c-2.329,4.47.972,11.475,7.37,15.65s13.467,3.945,15.8-.522-1.473-11.282-7.87-15.463-12.97-4.132-15.3.335Z" fill="#ea837b"/>
      <path id="path3683" d="M-237.634,442.482c-2.3,4.408.942,11.31,7.235,15.416s13.249,3.871,15.547-.536-1.428-11.123-7.719-15.238-12.768-4.049-15.063.358Z" fill="#ea8179"/>
      <path id="path3685" d="M-237.454,442.542c-2.266,4.35.914,11.146,7.1,15.184s13.033,3.794,15.3-.552-1.384-10.965-7.57-15.011-12.567-3.969-14.831.378Z" fill="#ea8078"/>
      <path id="path3687" d="M-237.277,442.6c-2.234,4.289.885,10.982,6.966,14.951s12.818,3.72,15.053-.565-1.339-10.806-7.42-14.784-12.366-3.889-14.6.4Z" fill="#ea8078"/>
      <path id="path3689" d="M-237.1,442.632c-2.2,4.229.854,10.816,6.829,14.718s12.6,3.644,14.806-.582-1.294-10.647-7.269-14.555-12.165-3.809-14.366.418Z" fill="#ea7e77"/>
      <path id="path3691" d="M-236.92,442.692c-2.172,4.168.825,10.652,6.7,14.484s12.384,3.57,14.558-.595-1.25-10.49-7.119-14.328-11.963-3.727-14.134.439Z" fill="#ea7d78"/>
      <path id="path3693" d="M-236.737,442.752c-2.143,4.108.795,10.488,6.56,14.251s12.167,3.5,14.31-.61-1.205-10.33-6.968-14.1-11.763-3.647-13.9.46Z" fill="#e97c77"/>
      <path id="path3695" d="M-236.559,442.812c-2.111,4.049.767,10.324,6.425,14.02s11.951,3.42,14.064-.626-1.16-10.171-6.82-13.874-11.56-3.564-13.669.481Z" fill="#e97c77"/>
      <path id="path3697" d="M-236.379,442.872c-2.081,3.987.736,10.158,6.29,13.785s11.734,3.344,13.815-.641-1.117-10.011-6.668-13.646-11.362-3.484-13.437.5Z" fill="#e97a76"/>
      <path id="path3699" d="M-236.2,442.932c-2.049,3.926.707,9.993,6.155,13.551s11.52,3.27,13.569-.654-1.072-9.853-6.518-13.419-11.159-3.4-13.206.522Z" fill="#e97a76"/>
      <path id="path3701" d="M-236.019,442.992c-2.017,3.867.678,9.83,6.02,13.319s11.3,3.195,13.322-.669-1.028-9.7-6.368-13.193-10.958-3.322-12.974.543Z" fill="#e87975"/>
      <path id="path3703" d="M-235.842,443.022c-1.988,3.807.649,9.665,5.885,13.088s11.086,3.119,13.075-.685-.983-9.536-6.219-12.965-10.757-3.242-12.741.562Z" fill="#e87975"/>
      <path id="path3705" d="M-235.662,443.082c-1.955,3.747.62,9.5,5.75,12.852s10.87,3.046,12.827-.7-.938-9.377-6.068-12.738-10.556-3.16-12.509.585Z" fill="#e87875"/>
      <path id="path3707" d="M-235.485,443.142c-1.925,3.686.591,9.336,5.616,12.62s10.655,2.97,12.579-.714-.894-9.218-5.918-12.511-10.355-3.08-12.277.6Z" fill="#e87775"/>
      <path id="path3709" d="M-235.3,443.2c-1.894,3.628.56,9.172,5.481,12.389s10.437,2.893,12.33-.73-.848-9.058-5.767-12.284-10.154-3-12.044.625Z" fill="#e87673"/>
      <path id="path3711" d="M-235.125,443.262c-1.864,3.567.53,9.008,5.344,12.155s10.222,2.819,12.085-.745-.805-8.9-5.619-12.055-9.951-2.918-11.811.645Z" fill="#e87673"/>
      <path id="path3713" d="M-234.945,443.322c-1.832,3.506.5,8.843,5.211,11.921s10,2.745,11.836-.758-.76-8.742-5.468-11.828-9.751-2.838-11.579.665Z" fill="#e87573"/>
      <path id="path3715" d="M-234.765,443.352c-1.8,3.447.473,8.68,5.076,11.69s9.788,2.669,11.588-.775-.714-8.582-5.317-11.6-9.549-2.757-11.347.685Z" fill="#e87473"/>
      <path id="path3717" d="M-234.585,443.412c-1.771,3.386.442,8.513,4.94,11.456s9.571,2.6,11.342-.789-.67-8.423-5.168-11.373-9.348-2.677-11.114.706Z" fill="#e87472"/>
      <path id="path3719" d="M-234.4,443.472c-1.739,3.325.413,8.349,4.805,11.223s9.357,2.519,11.094-.8-.625-8.264-5.017-11.147-9.147-2.6-10.882.728Z" fill="#e87472"/>
      <path id="path3721" d="M-234.227,443.532c-1.707,3.264.384,8.184,4.669,10.99s9.141,2.444,10.848-.818-.581-8.107-4.866-10.922-8.947-2.513-10.65.749Z" fill="#e87272"/>
      <path id="path3723" d="M-234.047,443.592c-1.677,3.2.355,8.021,4.535,10.758s8.923,2.368,10.6-.835-.536-7.947-4.718-10.692-8.745-2.433-10.418.769Z" fill="#e87171"/>
      <path id="path3725" d="M-233.867,443.652c-1.646,3.145.325,7.855,4.4,10.524s8.706,2.294,10.351-.849-.491-7.788-4.566-10.465-8.545-2.353-10.186.789Z" fill="#e86f70"/>
      <path id="path3727" d="M-233.687,443.712c-1.615,3.083.3,7.69,4.265,10.291s8.49,2.218,10.1-.863-.448-7.629-4.417-10.237-8.342-2.273-9.953.81Z" fill="#e86f70"/>
      <path id="path3729" d="M-233.51,443.742c-1.584,3.024.266,7.527,4.131,10.058s8.273,2.144,9.857-.878-.4-7.471-4.268-10.011-8.141-2.191-9.721.831Z" fill="#e86e70"/>
      <path id="path3731" d="M-233.33,443.8c-1.554,2.964.237,7.362,3.995,9.825s8.057,2.07,9.61-.893-.358-7.31-4.117-9.784-7.939-2.108-9.488.852Z" fill="#e76d6f"/>
      <path id="path3733" d="M-233.15,443.862c-1.522,2.9.208,7.2,3.86,9.592s7.842,1.993,9.363-.908-.314-7.153-3.966-9.556-7.739-2.03-9.257.872Z" fill="#e76c6f"/>
      <path id="path3735" d="M-232.973,443.922c-1.49,2.843.179,7.033,3.726,9.361s7.625,1.917,9.116-.924-.269-6.993-3.816-9.33-7.538-1.948-9.026.893Z" fill="#e76c6f"/>
      <path id="path3737" d="M-232.793,443.982c-1.46,2.782.148,6.868,3.591,9.125s7.408,1.844,8.866-.936-.224-6.835-3.665-9.1-7.337-1.868-8.792.914Z" fill="#e76a6f"/>
      <path id="path3739" d="M-232.613,444.042c-1.428,2.723.119,6.7,3.456,8.893s7.192,1.769,8.622-.953-.18-6.675-3.517-8.874-7.135-1.786-8.561.933Z" fill="#e7696d"/>
      <path id="path3741" d="M-232.433,444.072c-1.4,2.662.089,6.539,3.319,8.661s6.976,1.693,8.374-.969-.135-6.516-3.366-8.647-6.934-1.706-8.327.955Z" fill="#e6676d"/>
      <path id="path3743" d="M-232.253,444.132c-1.366,2.6.06,6.374,3.186,8.427s6.76,1.619,8.126-.982-.091-6.359-3.216-8.42-6.733-1.626-8.1.975Z" fill="#e7666d"/>
      <path id="path3745" d="M-232.073,444.192c-1.336,2.543.03,6.211,3.051,8.194s6.543,1.543,7.877-1-.045-6.2-3.065-8.193-6.531-1.543-7.863,1Z" fill="#e7666d"/>
      <path id="path3747" d="M-231.892,444.252c-1.3,2.481,0,6.046,2.915,7.962s6.327,1.467,7.63-1.012,0-6.042-2.915-7.968-6.33-1.461-7.63,1.018Z" fill="#e6656c"/>
      <path id="path3749" d="M-142.079,441.881c.827-1.217-.1-.825-1.527-4.816-1.291-2.969-2.676-6.681-1.258-6.111.032-2,2.972,1.1,4.394,4.389a9.37,9.37,0,0,1,.9,5.65c-1.094,2.712-2.9,1.191-2.513.889Z" fill="#26231f"/>
      <path id="path3751" d="M-198.233,417.841c.319,1.085-2.848,2.726-6.421,3.822-3.568,1.08-5.75,2.7-6.606,2.128-.93-.555,1.318-4.622,5.575-5.867,4.045-1.239,7.161-1.05,7.452-.083Z" fill="#26231f"/>
      <path id="path3753" d="M-187.392,461.84s10.4-20.432,12.2,2.353-7.658,3.171-12.2-2.353Z" fill="#f4b891"/>
      <path id="path3755" d="M-187.08,461.87s9.955-19.568,11.682,2.252S-182.732,467.16-187.08,461.87Z" fill="#f4b38b"/>
      <path id="path3757" d="M-186.768,461.87s9.515-18.7,11.167,2.154S-182.611,466.927-186.768,461.87Z" fill="#f2af85"/>
      <path id="path3759" d="M-186.453,461.9s9.074-17.839,10.649,2.054S-182.49,466.722-186.453,461.9Z" fill="#f2a97f"/>
      <path id="path3761" d="M-186.144,461.93s8.635-16.974,10.134,1.956S-182.373,466.518-186.144,461.93Z" fill="#f2a579"/>
      <path id="path3763" d="M-185.828,461.93s8.195-16.107,9.617,1.856S-182.25,466.285-185.828,461.93Z" fill="#f09e74"/>
      <path id="path3765" d="M-185.513,461.96s7.754-15.244,9.1,1.757S-182.126,466.082-185.513,461.96Z" fill="#ef9a6e"/>
      <path id="path3767" d="M-185.2,461.96s7.314-14.379,8.584,1.657S-182.008,465.849-185.2,461.96Z" fill="#ef9469"/>
      <path id="path3769" d="M-184.889,461.99s6.874-13.514,8.069,1.556S-181.886,465.643-184.889,461.99Z" fill="#ee8f62"/>
      <path id="path3771" d="M-184.574,462.02s6.434-12.649,7.552,1.458S-181.763,465.44-184.574,462.02Z" fill="#ec875a"/>
      <path id="path3773" d="M-186.069,458.569c-.6-.105-.342-5.34,5.337-7.4a5.218,5.218,0,0,1,5.907,3.878c.6,2.181-.808,3.334-1,3-.668-.629-1.383-3.411-4.339-3.022C-182.894,455.815-185.152,459.276-186.069,458.569Z" fill="#26231f"/>
      <path id="path3775" d="M-128.195,473.485c.18.214-4.678,5.779-14.328,12.122-9.449,6.313-24.705,14.493-41.979,11.37-35.034-7.651-51.415-39.677-50.6-39.017.513-1.647,17.495,26.689,50.755,33.789,33.981,5.2,55.884-20.68,56.154-18.263Z" fill="#26231f"/>
      <path id="path3777" d="M-122.966,477.717c.066,1.306-3.75.813-5.661-2.445-2.041-3.009-2.091-6.4-1.13-6.591.95-.215,2.269,1.8,3.914,4.232,1.624,2.525,2.82,3.684,2.877,4.8Z" fill="#26231f"/>
      <path id="path3779" d="M-232.142,455.537c.778.641-.976,3.361-3.891,4.186-2.893.855-5.6-.491-5.22-1.5.378-1.077,2.016-1.651,4.34-2.282,2.3-.7,3.95-1.145,4.771-.4Z" fill="#26231f"/>
      <path id="path3781" d="M-167.911,496.805c.084.663-3.178.9-6.319,4.841a60.04,60.04,0,0,0-4.852,7.88c-1.077,1.423-1.755,3.8-5.062,4.568-3.363-.387-4.535-2.8-5.707-4.659-6.921-15.483-18.857-20.7-18.267-21.971-.2-1.027,13.892,3.6,21.206,19.859,3.469,8.735,6.8-5.359,10.97-7.669,4.3-4.117,8.18-3.245,8.032-2.85Z" fill="#26231f"/>
      <path id="path3783" d="M-134.719,458.719a1.54,1.54,0,0,1-2.122.739,1.811,1.811,0,0,1-1.315-2.007,1.54,1.54,0,0,1,2.123-.74,1.805,1.805,0,0,1,1.314,2.009Z" fill="#9e2c14"/>
      <path id="path3785" d="M-126.475,456.588a1.54,1.54,0,0,1-2.123.739,1.8,1.8,0,0,1-1.311-2.006,1.537,1.537,0,0,1,2.119-.742A1.809,1.809,0,0,1-126.475,456.588Z" fill="#9e2c14"/>
      <path id="path3787" d="M-130.13,464.391a1.539,1.539,0,0,1-2.122.739,1.813,1.813,0,0,1-1.315-2.007,1.544,1.544,0,0,1,2.125-.743,1.814,1.814,0,0,1,1.313,2.012Z" fill="#9e2c14"/>
      <path id="path3789" d="M-145.332,462.41a1.54,1.54,0,0,1-2.123.742,1.813,1.813,0,0,1-1.315-2.01,1.542,1.542,0,0,1,2.125-.739,1.812,1.812,0,0,1,1.314,2.007Z" fill="#9e2c14"/>
      <path id="path3791" d="M-225.716,441.581a1.54,1.54,0,0,1-2.122.74,1.811,1.811,0,0,1-1.315-2.01,1.54,1.54,0,0,1,2.125-.739,1.806,1.806,0,0,1,1.313,2.009Z" fill="#9e2c14"/>
      <path id="path3793" d="M-222.582,451.275a1.539,1.539,0,0,1-2.121.74,1.809,1.809,0,0,1-1.314-2.009,1.538,1.538,0,0,1,2.122-.739A1.805,1.805,0,0,1-222.582,451.275Z" fill="#9e2c14"/>
      <path id="path3795" d="M-237.646,441.461a1.541,1.541,0,0,1-2.125.74,1.809,1.809,0,0,1-1.311-2.009,1.538,1.538,0,0,1,2.121-.74,1.812,1.812,0,0,1,1.315,2.009Z" fill="#9e2c14"/>
      <path id="path3797" d="M-213.93,447.764a1.54,1.54,0,0,1-2.123.739,1.81,1.81,0,0,1-1.314-2.007,1.541,1.541,0,0,1,2.123-.74,1.809,1.809,0,0,1,1.314,2.009Z" fill="#9e2c14"/>
      <path id="path3799" d="M-45.662,423.814s27.389,22.256,25.777,24.662-157.883,54.741-157.883,54.741L-197.1,492.388s140.7-69.18,151.44-68.577Z" fill="#26231f"/>
      <path id="path3801" d="M-369.49,446.684s9.127-21.055,17.183-23.462,194.214,79.369,192.6,80.573-24.264,9.588-29.1,9.588-178-66.7-180.69-66.7Z" fill="#26231f"/>
      <path id="path3803" d="M-12.364,445.483-36.387,608.138l-139.23,45.482-16.112-145.578L-16.06,439.859l3.694,5.62Z" fill="#26231f"/>
      <path id="path3805" d="M-372.7,441.851l4.742-5.794,155.29,65.951S-201.93,643.972-203,645.776s-128.186-29.783-133.558-33.993S-373.778,438.242-372.7,441.85Z" fill="#26231f"/>
      <path id="path3807" d="M-205.691,643.989s2.683,16.244,16.647,16.844,18.26-9.021,19.334-14.438l-3.759-143.771s-22.556,15.64-42.961-3.008l10.739,144.372Z" fill="#26231f"/>
      <path id="path3809" d="M-237.913,412.379l1.074,9.628s19.869-16.244,19.869-12.634-10.739,10.227-8.055,12.634,7.519,3.006,7.519,3.006,22.554-21.054,25.239-19.25-3.76,14.436-.538,15.037,4.835-16.241,8.059-15.037-6.448,24.664-.541,24.664,5.91-25.264,10.2-21.656-2.685,29.477,1.073,28.875,9.131-1.2,9.131-1.2l2.685-26.469,3.221,20.453s6.444-21.054,7.518-13.233,20.945,25.265,23.093,19.25,6.4-18.809-12.353-34.29c-20.406-16.843-34.368-6.617-34.368-6.617s-32.222-33.086-62.832,16.843Z" fill="#26231f"/>
      <path id="path3811" d="M-166.542,512.742S-20.484,452.665-19.914,456.5-43.3,601.578-43.3,601.578-163.12,646.954-163.12,641.84s-3.424-129.1-3.424-129.1Z" fill="#f5b700"/>
      <path id="path3813" d="M-364.508,450.1l143.465,59.357,4.3,127.9L-333.7,609.243-364.51,450.108Z" fill="#f1a307"/>
      <path id="path3815" d="M-217.891,510.821s21.151,20.96,47.832,2.8l.348,132.772s-25.93,13.978-40.193-5.2c-4.563-15.339-7.987-130.376-7.987-130.376Z" fill="#f9cf00"/>
      <path id="path3817" d="M-192.011,496.235s12.179,7.365,17.224,4.539,145.557-57.88,145.557-57.88-13.215-16.619-20.781-12.382-145.152,64.312-142,65.722Z" fill="#fefbde"/>
      <path id="path3819" d="M-356.464,436.869l7.567-8.476,159.591,67.841-15.534,5.3-151.623-64.663Z" fill="#fefbde"/>
      <path id="path3821" d="M-174.111,504.549l5.742,4.16,154-60.905-1.689-3.4L-174.11,504.549Z" fill="#f9cf00"/>
      <path id="path3823" d="M-370,442.122l3.714-3.4,154.675,64.312-8.78,3.785L-370,442.123Z" fill="#f9cf00"/>
      <path id="path3825" d="M-215.989,507.58s10.137,7.548,19.587,7.945c17.9.757,24.654-3.783,26.68-5.675s-6.415-4.539-6.415-4.539-12.836,5.674-17.9,5.674-16.211-6.052-16.211-6.052l-5.741,2.647Z" fill="#fbdf00"/>
      <path id="path3827" d="M-268.556,631.624-274.4,671.55s64.861,52.364,167.112,9.818L-114.3,636.2-158.154,651.4s-35.836,30.349-60.962-5l-49.443-14.778Z" fill="#e20224"/>
      <path id="path3829" d="M-174.478,706.9s1.751,81.161,1.751,87.707-10.175,16.977-6.67,18.939,14.267-12.393,14.267-12.393,9.933-91.636,8.764-95.561-15.777,3.927-18.112,1.309Z" fill="#f4b891"/>
      <path id="path3831" d="M-238.171,697.082s12.271,5.892,21.619,5.238l7.6,98.179s11.1,23.563,4.091,20.291-10.52-17.017-10.52-17.017l-22.787-106.69Z" fill="#f4b891"/>
      <path id="path3833" d="M-161.29,800.6s4.45,6.745,2.1,9.677-11.52,17.594-26.44,18.767l-7.068-12.608s7.591-10.263,14.4-13.782-9.749,12.549-6.282,15.248c6.02,4.69,16.23-3.81,23.3-17.3Z" fill="#e20224"/>
      <path id="path3835" d="M-203.176,802.067s25.655,41.052,16.493,44.863-31.415-19.94-31.676-36.067l1.048-2.346s13.088,25.219,18.848,17.008c3.531-5.037-7.069-19.354-4.713-23.459Z" fill="#e20224"/>
      <path id="path3837" d="M-146.31,483.96c-.184-.347,4.819-4.132,13.4-9.287A380.853,380.853,0,0,1-98.5,456.64c27.4-12.792,50.446-20.612,50.665-19.843.25.825-22.335,9.91-49.62,22.65-13.646,6.359-25.85,12.49-34.593,17.144-8.751,4.635-14.069,7.744-14.265,7.368Z" fill="#26231f"/>
      <path id="path3839" d="M-102.78,464.781c-.279-.749,13.893-8,32.1-14.821,18.192-6.843,33.368-10.739,33.555-9.96.208.84-14.588,6.034-32.69,12.844C-87.928,459.625-102.485,465.582-102.78,464.781Z" fill="#26231f"/>
      <path id="path3841" d="M-264.054,470.364c-.21.389-4.524-2.223-11.687-5.941-7.15-3.751-17.226-8.416-28.58-12.984l-29.207-11.478c-7.466-3.021-12-5.175-11.879-5.57s4.865,1.03,12.476,3.525c7.6,2.519,18.106,6.055,29.532,10.662A200.413,200.413,0,0,1-274.882,462.5c7.02,4.254,11.008,7.537,10.828,7.864Z" fill="#26231f"/>
      <path id="path3843" d="M-147.736,528.709s-5.709,53.558,2.142,53.558,95.624-24.778,97.05-34.371,14.986-59.156,7.137-56.758-97.764,25.581-106.33,37.57Z" fill="#ee940c"/>
      <path id="path3845" d="M-208.392,527.118s10.705,8.791,20.695,2.4.714,108.713.714,108.713-7.135,4.8-12.132-.8-9.277-110.313-9.277-110.313Z" fill="#f5b900"/>
      <path id="path3847" d="M-126.31,418.891S-81.929,354.97-42.7,338.1l3.566,15.092a48.962,48.962,0,0,0-22.587,17.757c-9.114,13.316,26.55-9.767,32.5-9.767s-.4,7.99-.4,7.99S-64.1,387.817-65.284,390.925s1.981,3.107,3.963,2.663,36.457-9.766,36.457-9.766-30.118,14.2-31.307,15.092S-32,400.247-32,400.247s-76.065,16.524-88.349,25.845-5.567-3.206-5.963-7.2Z" fill="#855c12"/>
      <path id="path3849" d="M-124.026,417.9s53.1-67.25,76.023-76.038,4.826,6.76.9,7.435-29.263,18.925-31.376,27.373,9.957-.675,8.75,1.014-19.912,17.574-19.912,17.574,47.364-28.052,47.967-26.023a2.86,2.86,0,0,1-.6,3.043S-82.094,392.892-83.3,397.285s19.912,0,19.006.675-40.428,10.813-46.157,15.208-12.066,6.758-13.575,4.732Z" fill="#b29106"/>
      <path id="path3851" d="M-83.028,350.372l.939,1.577s-36.379,38.387-41.307,60.47l-3.051-1.314s25.582-48.375,43.42-60.731Z" fill="#855c12"/>
      <path id="path3853" d="M-172.686,399.293s2.817,22.346.7,29.446c-.789,2.653,3.755,2.367,3.755,1.579s5.632-19.195,4.225-26.556c0,0,7.041,4.733,6.337,11.831l4.225-9.2a64.712,64.712,0,0,1,7.276,10.515c3.521,6.31,11.735,11.831,13.143,11.831s-1.877-10.781-7.041-18.667-15.49-14.723-21.827-14.46-11.735,1.577-10.8,3.681Z" fill="#855c12"/>
      <path id="path3855" d="M-176.44,396.922s-10.326-7.362-20.184-7.889-27.7,8.413-31.685,15.25-6.1,9.729-6.1,9.729l.234,1.838s13.848-15.511,20.419-15.773,1.174,7.362,1.174,7.362l-8.918,11.04,3.286,2.1s19.011-21.558,24.879-21.822.7,15.775,3.05,12.885,4.46-14.462,6.807-12.885-1.408,19.983-1.408,19.983l.469,6.835s2.348-19.981,6.1-20.508,7.979,5.26,8.918,2.631,1.408-10.517,1.408-10.517-7.041,1.841-8.449-.263Z" fill="#855c12"/>
      <path id="path3857" d="M-119.173,427.955a35.563,35.563,0,0,1,1.642,4.472c.469,1.84,53.747-19.719,72.995-20.245,0,0-64.78,11.569-73.7,14.987s-.938.786-.938.786Z" fill="#855c12"/>
      <path id="path3859" d="M-118.3,414.51s65.467-69.615,68.484-68.6.9,2.367.9,2.367-65.164,58.123-69.387,66.236Z" fill="#cfa800"/>
      <path id="path3861" d="M-107.435,407.757c.628-.806,65.464-41.568,67.277-39.2s-.3,4.057-2.113,3.72-67.277,38.186-65.164,35.481Z" fill="#cfa800"/>
      <path id="path3863" d="M-116.483,419.942S-70.627,400-51.922,401.017s-12.671,3.718-18.1,5.07-48.27,15.545-46.46,13.855Z" fill="#cfa800"/>
      <path id="path3865" d="M-242.589,414.51s-24.436-48.324-30.772-58.8a59.732,59.732,0,0,0-15.085-16.56s4.224,6.083,6.034,7.1,10.257,19.938,9.051,21.29-30.772-22.3-30.772-22.3l-2.111,2.365s49.476,45.284,48.87,48.663-31.676-24.67-31.676-24.67l-19.346-6.1-2.073-.656s20.815,6.758,18.7,12.166-18.1,1.014-17.5,2.365,25.643,11.491,26.247,14.533-25.643-1.015-27.453-.338,1.809,3.042,1.809,3.042,33.185,9.8,32.282,10.138-33.486,2.365-33.486,2.365-7.241,5.069,3.922,3.717,30.769,1.015,36.5,3.718,17.2,8.448,20.817,6.082,6.033-8.112,6.033-8.112Z" fill="#b29106"/>
      <path id="path3867" d="M-286.633,362.137s30.169,33.456,37.108,49l3.017-.675s-20.516-39.875-40.124-48.327Z" fill="#cfa800"/>
      <path id="path3869" d="M-302.021,408.777s37.108,5.07,48.873,10.476l2.415-1.69s-31.679-13.855-51.286-8.787Z" fill="#cfa800"/>
      <path id="path3871" d="M-295.685,382.756s29.262,19.261,36.8,27.373,3.923-.677,3.018-.338-31.979-25.682-39.821-27.035Z" fill="#cfa800"/>
      <path id="path3873" d="M-183.157,393.23s-23.23-8.788-40.728,7.1S-210.008,389.175-183.157,393.23Z" fill="#cfa800"/>
      <path id="path3875" d="M-165.66,396.622s18.4.675,28.659,23.316S-153.289,397.635-165.66,396.622Z" fill="#cfa800"/>
      <path id="path3877" d="M-168.676,399.653s8.741,18.727.449,30.655l-2.258.436s6.636-3.38,1.809-31.09Z" fill="#cfa800"/>
      <path id="path3879" d="M-220.265,417.571s6.939-17.91,26.549-22.98S-210.309,403.378-220.265,417.571Z" fill="#cfa800"/>
      <path id="path3881" d="M-184.664,394.251s-5.216,2.684-5.625,17.395S-188.888,397.97-184.664,394.251Z" fill="#cfa800"/>
      <path id="path3883" d="M-179.235,397.642s-7.24,13.855-5.731,25.345S-181.346,401.021-179.235,397.642Z" fill="#cfa800"/>
      <path id="path3885" d="M-133.552,408.777s5.335-14.195,12-6.724,12.671,28.389,6.67,30.628-17.341-20.917-18.675-23.905Z" fill="#26231f"/>
      <path id="path3887" d="M-132.216,410.1s3.879-10.321,8.729-4.89,9.213,20.643,4.849,22.272-12.608-15.209-13.578-17.382Z" fill="#e20224"/>
      <path id="path3889" d="M-236.923,401.3c-2.021,1.457-22.007,14.941-18.673,19.423a14.282,14.282,0,0,0,7.366,5.426s12.987-9.9,13.815-12.146,6.829-19.426-2.507-12.7Z" fill="#26231f"/>
      <path id="path3891" d="M-237.982,403.075c-1.393,1-15.159,10.291-12.863,13.379a9.842,9.842,0,0,0,5.073,3.738s8.946-6.82,9.517-8.367,4.7-13.38-1.727-8.749Z" fill="#e20224"/>
      <path id="path3893" d="M-270.126,660.136s86.221,43.462,157.85,5.944l.333,2.973s-57.04,37.519-157.52-6.689l-.662-2.229Z" fill="#fff"/>
      <path id="path3895" d="M-268.439,662.477s-2.048,6.708,1.89,7.942,7.407-3.7,7.407-3.7l2.363.7s-3.624,7.238.787,9,9.612-4.942,9.612-4.942l3.466,1.059s-2.207,7.588,1.575,8.472,8.036-5.648,8.036-5.648l4.254,1.588s-3.151,8.12,1.89,8.474,6.46-6.883,6.46-6.883l4.571.7s-1.731,10.058,4.412,9.707,6.3-8.294,6.3-8.294l5.672.706s-2.836,9.531,2.521,9.531,7.721-8.474,7.721-8.474l4.727.353s-.472,9.177,5.356,8.3,6.146-7.942,6.146-7.942l4.568-.353s0,7.766,4.727,7.059,6.775-8.119,6.775-8.119l4.727-.7s-1.575,9.175,2.836,8.824,8.036-10.589,8.036-10.589l4.727-.7s.156,7.942,5.041,7.589,4.412-10.592,4.412-10.592l3.938-1.234s3.151,8.472,7.249,6.355,2.836-12.708,2.836-12.708-28.519,13.238-61.449,13.238-58.3-5.65-67.6-9.708-26-9-26-9Z" fill="#fff"/>
      <path id="path3897" d="M-230.611,706.236l16.147,89.238-11.3-88.034s-4.307-4.223-4.844-1.206Z" fill="#f8d7bc"/>
      <path id="path3899" d="M-172.482,711.668h4.306s-2.691,86.221-2.691,82.6-4.306-82-1.615-82.6Z" fill="#f8d7bc"/>
      <path id="path3901" d="M-8.271,503.5s-9.085-22.011-14.039-15.867,1.988,9.677-5.11,13.069c-4.2,2.007-17.025,7-9.819,10.788s4.416,1.171,5.147,5.615c.729,1.754-11.726,1.068-11.619,4.907.1,3.744,8.579,2.622,9.282,4.51-.166,3.619-4.2,3.275-4.685,5.984-.735,4.124,4.958,5.726,7.488,6.574,1.517.509.718.853.3,4.129-.49,3.844,4.689,4.951,13.247-3.082S-3.766,512.007-8.271,503.5Z" fill="#26231f"/>
      <path id="path3903" d="M-11.24,515.023c.236-1.721.14-6.776-.563-8.669s-5.488-15.92-7.034-17.339-4.223.473-3.518,3.153,3.517,7.094.984,9.616-15.147,4.2-14.635,6.935c.564,2.994,9.007-.159,9.568,5.2.746,7.088-13.579,5.4-13.508,7.408.14,3.939,15.2-.789,14.635,2.363s-12.243,7.094-9.851,8.2,9.991-2.363,9.851.159-4.786,9.614-1.829,8.353,13.929-11.033,15.9-25.377Z" fill="#f4b891"/>
      <path id="path3905" d="M-374.442,502s8.775-19.431,13.73-13.288-1.988,9.678,5.11,13.07c4.2,2.006,17.024,7,9.819,10.787s-6.134-.571-6.865,3.873c-.729,1.755,13.444,2.812,13.337,6.65-.1,3.742-11.647,1.074-12.35,2.965.164,3.617,7.268,4.819,7.751,7.53.736,4.124-6.208,1.868-8.738,2.716-1.517.509,2.987,8.913,3.405,12.189.491,3.846-6.389,4.369-14.946-3.663S-378.947,510.5-374.442,502Z" fill="#7c1863"/>
      <path id="path3907" d="M-371.8,516.134c-.237-1.721-.14-6.776.562-8.668s5.489-15.92,7.036-17.338,4.221.473,3.518,3.151-3.518,7.1-.984,9.616,15.147,4.206,14.633,6.935c-.563,3-9.005-.157-9.568,5.2-.744,7.088,13.581,5.4,13.509,7.408-.142,3.941-15.2-.788-14.635,2.364s12.241,7.1,9.851,8.2-9.991-2.363-9.851.158,4.784,9.613,1.829,8.353-13.93-11.034-15.9-25.379Z" fill="#f4b891"/>
    </g>
  </g>
</svg>
