<svg xmlns="http://www.w3.org/2000/svg" width="515.958" height="454.664" viewBox="0 0 515.958 454.664">
  <g id="g20489" transform="translate(-1343.079 -2107.096)">
    <path id="path2659" d="M1487.949,2303.472s-95.26,74.777-97.33,114.06,15.529,44.36,15.529,44.36,38.313-40.548,52.809-73.511c14.5-32.945,43.49-72.229,43.49-72.229s-5.178-24.076-14.5-12.68Z" fill="#26231f"/>
    <path id="path2661" d="M1679.954,2286.358s135.714,116.815,120.18,143.417c-15.531,26.624-21.233,16.88-21.233,16.88l-33.134-29.152s-70.575-108.25-72.649-118.382c-2.071-10.152,6.834-12.762,6.834-12.762Z" fill="#26231f"/>
    <path id="path2663" d="M1487.7,2310.813s-91.1,76.55-89.478,103.276,13.016,30.375,20.609,26.114c7.593-4.24,19.733-37.347,19.733-37.347s56.228-85.029,57.308-89.272c1.085-4.261-4.375-5.81-8.171-2.772Z" fill="#f4b891"/>
    <path id="path2665" d="M1683.747,2297.864c-1.915.448-1.895,11.763-1.895,11.763s66.7,109.945,80.8,111.78c14.1,1.814,37.361,9.989,33.564.265s-102.167-126.229-112.472-123.8Z" fill="#f4b891"/>
    <path id="path2667" d="M1727.419,2271.925s-1.6,25.585,11.957,25.585,23.836-4.933,24.378-15.861-3.8-24.3-3.8-24.3-29.823.612-32.536,14.576Z" fill="#26231f"/>
    <path id="path2669" d="M1665.025,2143.757c4.142-11.406,28.99-39.292,38.309-30.42s13.462-16.474,27.956-1.264,11.389,10.134,14.5,21.544,12.424,2.536,19.676,13.942,6.21,7.6,4.137,26.612c-.914,8.409-4.151,4.006,2.3,7.853,19.011,11.339,8.534,34.653,3.917,40.3-8.281,10.153,28.993,40.569-5.172,48.174-11.426,2.548-28.209,14.107-39.351,13.944-8.952-.143-15.471-8.46-16.394-16.371-2.073-17.756-3,4.383-10.248-8.3-7.247-12.66-7.525-17.165-6.492-27.3,1.039-10.152-17.6-62.1-25.883-58.3s-21.744-11.4-21.744-11.4l14.5-19.01Z" fill="#26231f"/>
    <path id="path2671" d="M1496.238,2189.408c-17.872,0-15.53-50.694-28.991-34.218s-4.142,6.334-19.671,0-33.134-20.28-33.134-3.8,12.426,20.272-5.178,19.01-48.665,12.672-34.169,30.424c14.5,17.736,29,26.6,3.107,32.944s-46.595,17.737-27.959,27.889c18.64,10.132,16.57,3.792,15.535,20.264s1.036,26.625,17.6,31.68c16.567,5.076,21.186-11.416,26.362-.021,5.174,11.416,22.3,30.457,34.729,7.645,12.427-22.833,8.281-27.888,13.46-32.965s11.391,13.944,13.462-1.264,10.353-48.154,17.6-54.492,16.565-43.1,7.245-43.1Z" fill="#26231f"/>
    <path id="path2673" d="M1543.085,2337.493c-.526.856-15.577,1.57-23.626,7.319-11.46,8.155-23.575,12.13-33.65,27.032-28.133,41.609-49.16,113.879-33.29,123.6,20.709,12.68,281.656,23.383,285.8-13.373,3.123-27.746-17.87-74.818-44.76-111.879-8.735-12.028-20.341-29.03-27.8-28.663-16.825.815-43.16-18.042-38.766-16.39,9.078,3.4-62.95.958-78.484,12.354h-5.423Z" fill="#26231f"/>
    <path id="path2675" d="M1607.457,2485.5s77.206-96.081,234.059-53.209l-21.044,71.453,18.481,11.355-2.487,21.569-200.07-10.172a14.457,14.457,0,0,1-12.186,11.192c-10.663,1.855-32.684-.774-32.684-.774l-8.437-17.879-223.25,42.731.91-18.49L1377.5,2532.1s-1.381-99.384-7.615-117.446,89.845-83.89,237.568,70.843Z" fill="#26231f"/>
    <path id="path2677" d="M1485.929,2219.058s-21.659-17.451-26.786,2.793-6.461,38.388,18.146,41.609c.644.1.259-5.157.259-5.157s4.042-29.784,8.381-39.243Z" fill="#26231f"/>
    <path id="path2679" d="M1483.248,2225.7s-17.708-16.39-21.22-.224-6.182,18.735,15.46,27.746h0s-.813-17.858,5.76-27.522Z" fill="#f09b75"/>
    <path id="path2681" d="M1668.118,2183.1s16.61-27.913,26.534-10.576,15.369,37.223-7.245,49.6c-.586.306-1.527-4.811-1.527-4.811s-11.272-26.83-17.762-34.21Z" fill="#26231f"/>
    <path id="path2683" d="M1672.325,2188.459s12.767-22.292,20.139-8.224,10.548,15.5-7.8,32.266h0s-3.669-17.312-12.336-24.042Z" fill="#f09b75"/>
    <path id="path2685" d="M1477.97,2265.616c5.911,46.277,46.9,77.915,95.887,77.408,6.848-.061,14.07,6.769,21.155,5.382,8.088-1.57,15.644-11.437,23-14.495,45.2-18.735,75-63.42,69.206-108.782-6.737-52.768-59.04-86.472-116.819-75.3s-99.165,63-92.427,115.784Z" fill="#26231f"/>
    <path id="path2687" d="M1485.558,2262.523c5.562,43.543,43.626,73.391,89.053,73.045,6.346-.041,12.818,4.016,19.388,2.752,7.5-1.447,14.718-8.358,21.542-11.212,41.881-17.491,69.437-59.424,63.989-102.114-6.341-49.638-54.9-81.466-108.46-71.1s-91.849,58.995-85.515,108.633Z" fill="#f4b891"/>
    <path id="path2689" d="M1530.136,2220.831c3.649,4.057,11.924,7.257,16.392,5.157Z" fill="#26231f"/>
    <path id="path2691" d="M1546.507,2225.986c.666,1.366-4.051,4.179-9.2,2.141-5.149-1.713-8.088-6.34-7.194-7.3.848-.979,4.017.917,8.324,2.365,4.31,1.611,7.511,1.55,8.068,2.793Z" fill="#26231f"/>
    <path id="path2693" d="M1536.074,2213.615c2.317,5.423,8.413,9.744,13.306,10.3Z" fill="#26231f"/>
    <path id="path2695" d="M1549.394,2223.883c.055,1.3-4.324,2-8.692-1.121-4.324-3.343-5.647-8.786-4.617-9.174,1.2-.591,3.422,2.141,6.792,4.791,3.478,2.467,6.524,3.935,6.517,5.5Z" fill="#26231f"/>
    <path id="path2697" d="M1540.487,2210.728c.584,5.545,5.143,10.6,9.523,11.4Z" fill="#26231f"/>
    <path id="path2699" d="M1550.013,2222.151c.066,1.284-4.113,1.794-7.616-2.059-3.369-4.118-2.968-9.48-1.911-9.317,1.325-.041,2.515,2.772,4.781,5.586,2.433,2.65,4.8,4.179,4.746,5.79Z" fill="#26231f"/>
    <path id="path2701" d="M1542.342,2228.007c1.329,4.159,5.42,6.075,9.138,4.281s5.665-6.626,4.342-10.784-5.414-6.075-9.136-4.281-5.667,6.625-4.344,10.784Z" fill="#26231f"/>
    <path id="path2703" d="M1616.777,2198.315c-2.464,5.233-9.542,11.41-14.319,11.1Z" fill="#26231f"/>
    <path id="path2705" d="M1602.467,2209.408c.26-1.59,3.265-2.752,6.979-5.728,3.656-3.1,6.182-6.028,7.338-5.378,1.017.475-.617,5.969-5.023,9.659-4.5,3.731-9.624,2.813-9.294,1.447Z" fill="#26231f"/>
    <path id="path2707" d="M1609.313,2193.7c-.855,6.03-5.572,12.452-10.1,14.817Z" fill="#26231f"/>
    <path id="path2709" d="M1599.209,2208.5c-.4-1.488,2.138-4.037,4.834-7.686,2.548-3.8,3.975-7.243,5.269-7.131,1.072-.033,1.174,5.643-2.107,10.474-3.383,4.628-7.724,5.606-7.995,4.342Z" fill="#26231f"/>
    <path id="path2711" d="M1604.406,2192.625c.824,5.49-2.262,12.017-6.229,14.444Z" fill="#26231f"/>
    <path id="path2713" d="M1598.179,2207.058c-.451-1.509,1.42-3.873,3.078-7.3,1.454-3.539,1.88-6.664,3.148-7.146.972-.538,2.688,4.4.515,9.612-2.382,4.974-6.481,6.1-6.741,4.831Z" fill="#26231f"/>
    <path id="path2715" d="M1606.921,2209.779c-.226,4.464-3.642,7.828-7.627,7.523s-7.039-4.159-6.818-8.623,3.64-7.828,7.629-7.523,7.041,4.159,6.815,8.623Z" fill="#26231f"/>
    <path id="path2717" d="M1490.465,2244.419c-2.977,13.883,10.781,30.4,30.738,36.878s38.539.469,41.518-13.414c2.979-13.9-12.526-28.969-32.473-35.451s-36.809-1.917-39.784,11.987Z" fill="#f4b891"/>
    <path id="path2719" d="M1490.712,2244.461c-2.956,13.781,10.69,30.171,30.483,36.593s38.224.469,41.185-13.332c2.957-13.781-12.416-28.745-32.2-35.166-19.788-6.442-36.517-1.9-39.468,11.906Z" fill="#f4b791"/>
    <path id="path2721" d="M1490.96,2244.461c-2.934,13.679,10.6,29.947,30.227,36.307,19.626,6.381,37.915.469,40.852-13.23,2.936-13.679-12.306-28.541-31.925-34.922s-36.224-1.855-39.154,11.844Z" fill="#f4b791"/>
    <path id="path2723" d="M1491.248,2244.461c-2.914,13.577,10.5,29.723,29.972,36.043s37.6.448,40.517-13.149-12.194-28.337-31.65-34.656S1494.159,2230.863,1491.248,2244.461Z" fill="#f4b690"/>
    <path id="path2725" d="M1491.5,2244.419c-2.892,13.475,10.41,29.5,29.716,35.757,19.3,6.279,37.29.428,40.186-13.047,2.892-13.5-12.082-28.113-31.377-34.392s-35.638-1.814-38.524,11.681Z" fill="#f4b590"/>
    <path id="path2727" d="M1491.743,2244.419c-2.866,13.373,10.319,29.274,29.463,35.472,19.136,6.218,36.977.428,39.849-12.966,2.872-13.373-11.968-27.888-31.1-34.126-19.134-6.218-35.341-1.774-38.207,11.62Z" fill="#f4b490"/>
    <path id="path2729" d="M1491.991,2244.419c-2.85,13.271,10.224,29.03,29.206,35.207,18.971,6.156,36.662.408,39.514-12.884,2.85-13.271-11.86-27.684-30.832-33.861s-35.048-1.753-37.889,11.539Z" fill="#f3b490"/>
    <path id="path2731" d="M1492.279,2244.461c-2.826,13.169,10.133,28.806,28.951,34.922s36.351.387,39.181-12.782c2.828-13.19-11.747-27.48-30.557-33.6-18.811-6.136-34.755-1.733-37.576,11.457Z" fill="#f3b38f"/>
    <path id="path2733" d="M1492.527,2244.461c-2.806,13.067,10.041,28.581,28.7,34.636,18.649,6.075,36.038.387,38.846-12.7,2.806-13.068-11.635-27.256-30.282-33.332-18.649-6.054-34.46-1.692-37.261,11.4Z" fill="#f3b28e"/>
    <path id="path2735" d="M1492.774,2244.461c-2.783,12.966,9.946,28.357,28.44,34.371,18.487,5.994,35.727.367,38.515-12.619,2.783-12.966-11.527-27.052-30.01-33.066S1495.553,2231.474,1492.774,2244.461Z" fill="#f2b18f"/>
    <path id="path2737" d="M1493.022,2244.419c-2.761,12.864,9.853,28.133,28.185,34.086s35.415.346,38.18-12.517c2.763-12.884-11.414-26.849-29.735-32.8-18.325-5.973-33.872-1.651-36.63,11.233Z" fill="#f2b18d"/>
    <path id="path2739" d="M1493.269,2244.419c-2.741,12.762,9.762,27.908,27.928,33.8,18.161,5.912,35.1.346,37.847-12.436,2.741-12.762-11.3-26.625-29.462-32.536-18.161-5.892-33.578-1.611-36.313,11.172Z" fill="#f3b08e"/>
    <path id="path2741" d="M1493.558,2244.419c-2.717,12.659,9.671,27.684,27.677,33.535,18,5.83,34.791.326,37.512-12.354,2.719-12.66-11.194-26.42-29.19-32.271s-33.283-1.59-36,11.09Z" fill="#f3af8e"/>
    <path id="path2743" d="M1493.805,2244.419c-2.693,12.558,9.578,27.46,27.421,33.25s34.48.326,37.177-12.252-11.081-26.217-28.911-32.007c-17.837-5.81-32.991-1.57-35.687,11.009Z" fill="#f3ae8e"/>
    <path id="path2745" d="M1494.053,2244.461c-2.677,12.456,9.484,27.215,27.161,32.964s34.169.306,36.846-12.15c2.676-12.476-10.971-26.013-28.642-31.762s-32.7-1.529-35.365,10.948Z" fill="#f3ae8d"/>
    <path id="path2747" d="M1494.3,2244.461c-2.653,12.354,9.389,26.991,26.906,32.679,17.513,5.708,33.858.306,36.513-12.069,2.653-12.354-10.859-25.768-28.367-31.476C1511.842,2227.907,1496.948,2232.086,1494.3,2244.461Z" fill="#f2ac8d"/>
    <path id="path2749" d="M1494.589,2244.461c-2.632,12.252,9.3,26.767,26.649,32.414,17.349,5.626,33.545.286,36.18-11.987s-10.748-25.564-28.092-31.211-32.11-1.488-34.737,10.784Z" fill="#f2ac8c"/>
    <path id="path2751" d="M1494.836,2244.419c-2.612,12.15,9.205,26.543,26.394,32.129s33.232.265,35.847-11.885c2.609-12.171-10.637-25.361-27.819-30.967-17.185-5.586-31.816-1.448-34.422,10.723Z" fill="#f1ab8c"/>
    <path id="path2753" d="M1495.084,2244.419c-2.588,12.069,9.112,26.318,26.14,31.844,17.024,5.544,32.919.265,35.512-11.8,2.589-12.048-10.527-25.136-27.547-30.681s-31.521-1.427-34.1,10.642Z" fill="#f1ab8c"/>
    <path id="path2755" d="M1495.331,2244.419c-2.566,11.946,9.021,26.094,25.883,31.578s32.607.245,35.181-11.722c2.568-11.946-10.415-24.933-27.275-30.416s-31.226-1.407-33.789,10.56Z" fill="#f2a98a"/>
    <path id="path2757" d="M1495.578,2244.419c-2.544,11.865,8.931,25.87,25.63,31.292s32.3.224,34.846-11.62c2.544-11.865-10.3-24.729-27-30.172-16.7-5.423-30.933-1.366-33.475,10.5Z" fill="#f2a88b"/>
    <path id="path2759" d="M1495.867,2244.461c-2.524,11.763,8.837,25.646,25.373,31.007,16.536,5.382,31.985.224,34.513-11.539,2.524-11.742-10.193-24.5-26.726-29.886S1498.387,2232.7,1495.867,2244.461Z" fill="#f2a88a"/>
    <path id="path2761" d="M1496.115,2244.461c-2.5,11.661,8.739,25.422,25.115,30.742s31.672.2,34.178-11.457c2.5-11.641-10.081-24.3-26.451-29.621-16.372-5.341-30.345-1.325-32.842,10.336Z" fill="#f2a78a"/>
    <path id="path2763" d="M1496.362,2244.461c-2.481,11.559,8.648,25.177,24.864,30.457s31.359.2,33.841-11.355-9.969-24.1-26.177-29.376C1512.683,2228.927,1498.839,2232.9,1496.362,2244.461Z" fill="#f1a689"/>
    <path id="path2765" d="M1496.609,2244.419c-2.461,11.457,8.557,24.953,24.607,30.172s31.048.183,33.508-11.253c2.46-11.457-9.86-23.893-25.9-29.112s-29.759-1.264-32.213,10.193Z" fill="#f0a589"/>
    <path id="path2767" d="M1496.9,2244.419c-2.435,11.355,8.466,24.728,24.354,29.906,15.884,5.157,30.735.163,33.176-11.192,2.439-11.335-9.75-23.669-25.63-28.826-15.884-5.178-29.466-1.244-31.9,10.112Z" fill="#f0a48a"/>
    <path id="path2769" d="M1497.146,2244.461c-2.415,11.253,8.372,24.5,24.1,29.621s30.423.163,32.842-11.09-9.636-23.444-25.358-28.581c-15.719-5.117-29.17-1.2-31.579,10.051Z" fill="#f0a488"/>
    <path id="path2771" d="M1497.393,2244.419c-2.4,11.151,8.281,24.28,23.841,29.336,15.56,5.076,30.111.143,32.51-10.988,2.393-11.151-9.529-23.24-25.088-28.316C1513.1,2229.395,1499.784,2233.268,1497.393,2244.419Z" fill="#f0a388"/>
    <path id="path2773" d="M1497.64,2244.461c-2.369,11.049,8.186,24.056,23.588,29.051,15.395,5.015,29.8.143,32.174-10.906,2.373-11.029-9.416-23.016-24.812-28.031s-28.578-1.162-30.95,9.887Z" fill="#f0a288"/>
    <path id="path2775" d="M1497.888,2244.461c-2.349,10.948,8.093,23.831,23.331,28.785s29.486.123,31.842-10.825-9.3-22.812-24.538-27.766c-15.231-4.974-28.285-1.121-30.635,9.806Z" fill="#f0a187"/>
    <path id="path2777" d="M1498.176,2244.419c-2.335,10.845,8,23.607,23.071,28.5,15.073,4.913,29.177.1,31.508-10.723,2.329-10.845-9.2-22.608-24.265-27.521s-27.992-1.081-30.314,9.745Z" fill="#f0a187"/>
    <path id="path2779" d="M1498.424,2244.419c-2.308,10.744,7.907,23.362,22.818,28.215,14.91,4.873,28.864.1,31.171-10.642,2.311-10.723-9.079-22.384-23.986-27.236S1500.73,2233.676,1498.424,2244.419Z" fill="#f09f87"/>
    <path id="path2781" d="M1498.671,2244.419c-2.286,10.641,7.817,23.138,22.563,27.949,14.745,4.791,28.551.082,30.839-10.56,2.286-10.621-8.969-22.18-23.715-26.991-14.741-4.791-27.4-1.02-29.686,9.6Z" fill="#ef9e86"/>
    <path id="path2783" d="M1498.919,2244.461c-2.264,10.54,7.724,22.914,22.308,27.664s28.241.061,30.505-10.458c2.266-10.54-8.857-21.976-23.442-26.726s-27.108-1-29.372,9.52Z" fill="#ef9c86"/>
    <path id="path2785" d="M1499.207,2244.461c-2.244,10.438,7.627,22.69,22.052,27.379,14.421,4.709,27.928.061,30.171-10.356,2.245-10.438-8.747-21.772-23.168-26.461-14.416-4.709-26.817-.979-29.055,9.439Z" fill="#ef9c86"/>
    <path id="path2787" d="M1499.455,2244.461c-2.22,10.336,7.536,22.466,21.8,27.114,14.259,4.628,27.615.041,29.837-10.3,2.222-10.315-8.635-21.528-22.894-26.2-14.254-4.628-26.523-.938-28.74,9.378Z" fill="#ef9b85"/>
    <path id="path2789" d="M1499.7,2244.461c-2.2,10.234,7.445,22.241,21.542,26.828s27.3.041,29.5-10.193-8.523-21.324-22.621-25.931c-14.09-4.587-26.227-.917-28.425,9.3Z" fill="#ef9b84"/>
    <path id="path2791" d="M1499.95,2244.419c-2.177,10.132,7.354,22.017,21.288,26.543,13.931,4.546,26.991.021,29.17-10.091,2.18-10.132-8.415-21.12-22.347-25.666s-25.934-.9-28.11,9.215Z" fill="#ef9b84"/>
    <path id="path2793" d="M1500.2,2244.461c-2.156,10.01,7.26,21.772,21.029,26.257s26.68,0,28.839-10.03c2.157-10.01-8.3-20.9-22.074-25.381-13.766-4.505-25.641-.877-27.794,9.153Z" fill="#ef9983"/>
    <path id="path2795" d="M1500.486,2244.461c-2.135,9.908,7.165,21.548,20.774,25.972s26.367,0,28.5-9.928c2.138-9.908-8.192-20.692-21.8-25.136-13.6-4.424-25.348-.836-27.479,9.092Z" fill="#ef9883"/>
    <path id="path2797" d="M1500.733,2244.461c-2.113,9.805,7.072,21.3,20.521,25.687s26.054-.021,28.167-9.826c2.117-9.826-8.08-20.488-21.524-24.871s-25.055-.816-27.164,9.01Z" fill="#ee9783"/>
    <path id="path2799" d="M1500.981,2244.461c-2.089,9.7,6.981,21.079,20.266,25.4,13.282,4.342,25.742-.021,27.834-9.744,2.093-9.7-7.969-20.264-21.253-24.586-13.276-4.342-24.756-.8-26.848,8.929Z" fill="#ee9783"/>
    <path id="path2801" d="M1501.228,2244.461c-2.071,9.6,6.887,20.855,20.01,25.136s25.43-.041,27.5-9.663c2.071-9.6-7.858-20.06-20.978-24.341S1503.3,2234.838,1501.228,2244.461Z" fill="#ee9682"/>
    <path id="path2803" d="M1501.517,2244.461c-2.049,9.5,6.8,20.631,19.753,24.851s25.12-.041,27.168-9.561-7.747-19.856-20.705-24.076-24.17-.734-26.216,8.787Z" fill="#ed9482"/>
    <path id="path2805" d="M1501.764,2244.461c-2.026,9.4,6.7,20.406,19.5,24.565,12.792,4.179,24.807-.061,26.833-9.48,2.027-9.4-7.636-19.632-20.43-23.811-12.79-4.159-23.877-.693-25.9,8.725Z" fill="#ed9482"/>
    <path id="path2807" d="M1502.012,2244.461c-2,9.3,6.612,20.182,19.246,24.3s24.494-.082,26.5-9.4c2.006-9.3-7.527-19.428-20.159-23.546s-23.584-.673-25.586,8.644Z" fill="#ee9482"/>
    <path id="path2809" d="M1502.259,2244.461c-1.984,9.194,6.515,19.958,18.987,24.015s24.183-.082,26.167-9.3-7.414-19.2-19.885-23.281-23.29-.652-25.269,8.562Z" fill="#ee9282"/>
    <path id="path2811" d="M1502.506,2244.461c-1.964,9.092,6.422,19.734,18.732,23.729,12.3,4.016,23.87-.1,25.832-9.194,1.964-9.113-7.3-19-19.609-23.016s-23-.632-24.955,8.481Z" fill="#ed9182"/>
    <path id="path2813" d="M1502.8,2244.461c-1.94,8.99,6.332,19.489,18.476,23.464,12.144,3.955,23.557-.123,25.5-9.133,1.942-8.99-7.192-18.776-19.337-22.751-12.137-3.955-22.7-.591-24.638,8.42Z" fill="#ed9181"/>
    <path id="path2815" d="M1503.043,2244.461c-1.916,8.888,6.241,19.264,18.223,23.179s23.244-.123,25.164-9.031-7.081-18.572-19.062-22.486S1504.959,2235.552,1503.043,2244.461Z" fill="#ed9081"/>
    <path id="path2817" d="M1503.29,2244.461c-1.9,8.786,6.148,19.041,17.964,22.894s22.937-.143,24.833-8.929c1.9-8.807-6.97-18.368-18.791-22.221-11.811-3.873-22.112-.55-24.006,8.257Z" fill="#ed8e81"/>
    <path id="path2819" d="M1503.537,2244.461c-1.876,8.685,6.053,18.816,17.71,22.628,11.655,3.792,22.621-.163,24.5-8.868,1.876-8.685-6.861-18.144-18.516-21.956-11.649-3.792-21.819-.51-23.692,8.2Z" fill="#ed8d80"/>
    <path id="path2821" d="M1503.826,2244.461c-1.851,8.582,5.962,18.592,17.456,22.343s22.308-.163,24.163-8.766c1.856-8.582-6.748-17.94-18.241-21.691s-21.526-.489-23.379,8.114Z" fill="#ed8d80"/>
    <path id="path2823" d="M1504.073,2244.461c-1.831,8.48,5.869,18.368,17.2,22.058,11.331,3.71,22-.184,23.832-8.664,1.833-8.5-6.637-17.736-17.968-21.426C1515.812,2232.718,1505.9,2235.959,1504.073,2244.461Z" fill="#ed8c7f"/>
    <path id="path2825" d="M1504.321,2244.461c-1.812,8.379,5.775,18.144,16.943,21.792,11.169,3.629,21.686-.2,23.5-8.6,1.811-8.379-6.526-17.512-17.7-21.161s-20.938-.428-22.745,7.971Z" fill="#ed8a7f"/>
    <path id="path2827" d="M1504.568,2244.461c-1.789,8.3,5.682,17.919,16.687,21.507s21.375-.2,23.164-8.5c1.791-8.277-6.415-17.308-17.422-20.9S1506.354,2236.163,1504.568,2244.461Z" fill="#ed8a7e"/>
    <path id="path2829" d="M1504.816,2244.461c-1.769,8.175,5.591,17.7,16.432,21.222,10.843,3.547,21.062-.224,22.831-8.4,1.767-8.2-6.3-17.1-17.149-20.631-10.836-3.547-20.35-.387-22.114,7.808Z" fill="#eb897d"/>
    <path id="path2831" d="M1505.1,2244.461c-1.745,8.093,5.5,17.45,16.181,20.937,10.677,3.506,20.747-.224,22.492-8.3,1.749-8.093-6.192-16.88-16.872-20.386-10.674-3.486-20.057-.346-21.8,7.747Z" fill="#eb877c"/>
    <path id="path2833" d="M1505.352,2244.461c-1.722,7.991,5.407,17.226,15.922,20.672,10.517,3.425,20.436-.245,22.161-8.236,1.725-7.971-6.08-16.656-16.6-20.1s-19.762-.326-21.483,7.666Z" fill="#eb877c"/>
    <path id="path2835" d="M1505.6,2244.461c-1.7,7.89,5.312,17,15.67,20.386s20.123-.245,21.826-8.134-5.969-16.451-16.327-19.836-19.469-.306-21.169,7.584Z" fill="#eb867b"/>
    <path id="path2837" d="M1505.847,2244.461c-1.682,7.787,5.219,16.778,15.413,20.1,10.19,3.343,19.815-.265,21.493-8.032,1.682-7.788-5.858-16.248-16.052-19.591-10.186-3.323-19.174-.265-20.854,7.523Z" fill="#ea847b"/>
    <path id="path2839" d="M1506.135,2244.461c-1.654,7.686,5.128,16.554,15.158,19.836,10.032,3.262,19.5-.285,21.16-7.971,1.66-7.666-5.745-16.024-15.778-19.306s-18.882-.245-20.539,7.441Z" fill="#ea837b"/>
    <path id="path2841" d="M1506.383,2244.461c-1.638,7.583,5.034,16.329,14.9,19.551s19.187-.285,20.825-7.869c1.64-7.563-5.638-15.82-15.5-19.041-9.86-3.241-18.589-.224-20.223,7.359Z" fill="#ea837b"/>
    <path id="path2843" d="M1506.63,2244.461c-1.618,7.482,4.939,16.1,14.645,19.264,9.7,3.18,18.876-.306,20.494-7.767,1.616-7.482-5.529-15.616-15.235-18.8-9.7-3.16-18.292-.183-19.9,7.3Z" fill="#ea8179"/>
    <path id="path2845" d="M1506.878,2244.461c-1.593,7.38,4.848,15.881,14.39,19s18.565-.326,20.159-7.706c1.6-7.359-5.416-15.392-14.959-18.51S1508.47,2237.081,1506.878,2244.461Z" fill="#ea8078"/>
    <path id="path2847" d="M1507.125,2244.461c-1.571,7.277,4.756,15.636,14.135,18.715,9.378,3.058,18.254-.326,19.824-7.6,1.578-7.258-5.3-15.188-14.683-18.246-9.371-3.078-17.706-.143-19.277,7.135Z" fill="#ea8078"/>
    <path id="path2849" d="M1507.414,2244.461c-1.552,7.176,4.663,15.412,13.879,18.429s17.941-.346,19.491-7.5c1.551-7.176-5.194-14.984-14.41-18s-17.413-.1-18.96,7.074Z" fill="#ea7e77"/>
    <path id="path2851" d="M1507.661,2244.461c-1.527,7.074,4.572,15.188,13.624,18.164,9.052,2.956,17.63-.367,19.158-7.441,1.531-7.054-5.081-14.76-14.137-17.716s-17.118-.061-18.645,6.992Z" fill="#ea7d78"/>
    <path id="path2853" d="M1507.909,2244.461c-1.507,6.972,4.479,14.964,13.369,17.879s17.317-.367,18.823-7.339c1.512-6.952-4.968-14.536-13.862-17.451s-16.825-.041-18.33,6.911Z" fill="#e97c77"/>
    <path id="path2855" d="M1508.156,2244.461c-1.487,6.87,4.386,14.739,13.115,17.593s17-.367,18.49-7.237-4.861-14.331-13.589-17.206c-8.721-2.854-16.53-.021-18.015,6.85Z" fill="#e97c77"/>
    <path id="path2857" d="M1508.445,2244.461c-1.463,6.768,4.291,14.515,12.856,17.308,8.565,2.813,16.694-.387,18.158-7.135,1.465-6.769-4.748-14.128-13.316-16.941s-16.235.021-17.7,6.769Z" fill="#e97a76"/>
    <path id="path2859" d="M1508.692,2244.461c-1.443,6.666,4.2,14.291,12.6,17.043s16.381-.408,17.824-7.074c1.443-6.646-4.637-13.9-13.043-16.656s-15.943.041-17.382,6.687Z" fill="#e97a76"/>
    <path id="path2861" d="M1508.94,2244.461c-1.421,6.564,4.108,14.066,12.346,16.757,8.24,2.711,16.07-.408,17.491-6.972,1.421-6.544-4.524-13.7-12.771-16.411-8.231-2.691-15.648.082-17.067,6.625Z" fill="#e87975"/>
    <path id="path2863" d="M1509.187,2244.461c-1.4,6.462,4.015,13.822,12.091,16.472s15.757-.428,17.156-6.87c1.4-6.462-4.415-13.5-12.5-16.146s-15.354.1-16.753,6.544Z" fill="#e87975"/>
    <path id="path2865" d="M1509.434,2244.461c-1.378,6.361,3.922,13.6,11.837,16.207,7.911,2.589,15.444-.449,16.82-6.809,1.381-6.34-4.3-13.272-12.221-15.861-7.907-2.609-15.058.123-16.436,6.462Z" fill="#e87875"/>
    <path id="path2867" d="M1509.723,2244.461c-1.356,6.259,3.829,13.373,11.582,15.921s15.133-.448,16.487-6.707c1.358-6.238-4.191-13.068-11.946-15.616C1518.1,2235.531,1511.079,2238.222,1509.723,2244.461Z" fill="#e87775"/>
    <path id="path2869" d="M1509.971,2244.461c-1.334,6.157,3.736,13.149,11.327,15.636s14.82-.469,16.156-6.6c1.332-6.157-4.086-12.864-11.677-15.351S1511.3,2238.324,1509.971,2244.461Z" fill="#e87673"/>
    <path id="path2871" d="M1510.218,2244.461c-1.314,6.054,3.642,12.925,11.069,15.371,7.427,2.426,14.508-.489,15.82-6.523,1.314-6.055-3.971-12.66-11.4-15.086-7.418-2.446-14.177.2-15.487,6.238Z" fill="#e87673"/>
    <path id="path2873" d="M1510.465,2244.461c-1.292,5.953,3.549,12.7,10.816,15.086s14.194-.49,15.484-6.442c1.292-5.932-3.858-12.436-11.127-14.821s-13.884.245-15.173,6.177Z" fill="#e87573"/>
    <path id="path2875" d="M1510.754,2244.461c-1.27,5.851,3.458,12.477,10.559,14.8,7.1,2.344,13.882-.51,15.153-6.34,1.27-5.851-3.749-12.211-10.854-14.556-7.094-2.324-13.589.265-14.858,6.1Z" fill="#e87473"/>
    <path id="path2877" d="M1511,2244.461c-1.249,5.749,3.367,12.252,10.3,14.535,6.938,2.263,13.573-.53,14.82-6.259,1.25-5.749-3.638-12.008-10.579-14.291s-13.3.285-14.545,6.014Z" fill="#e87472"/>
    <path id="path2879" d="M1511.249,2244.461c-1.227,5.647,3.272,12.008,10.048,14.25,6.777,2.222,13.26-.53,14.487-6.177,1.228-5.626-3.525-11.783-10.306-14.026-6.766-2.222-13,.326-14.228,5.953Z" fill="#e87472"/>
    <path id="path2881" d="M1511.5,2244.461c-1.207,5.545,3.179,11.783,9.789,13.964s12.949-.53,14.155-6.075c1.2-5.525-3.416-11.579-10.033-13.761s-12.708.346-13.911,5.871Z" fill="#e87272"/>
    <path id="path2883" d="M1511.744,2244.461c-1.183,5.423,3.088,11.538,9.536,13.659,6.45,2.141,12.636-.551,13.818-5.973,1.185-5.443-3.3-11.375-9.756-13.5s-12.416.367-13.6,5.81Z" fill="#e87171"/>
    <path id="path2885" d="M1512.032,2244.461c-1.161,5.321,3,11.314,9.281,13.394,6.29,2.059,12.323-.571,13.486-5.912,1.161-5.321-3.192-11.151-9.484-13.231-6.281-2.059-12.121.408-13.284,5.749Z" fill="#e86f70"/>
    <path id="path2887" d="M1512.28,2244.5c-1.139,5.219,2.9,11.09,9.027,13.108s12.013-.571,13.152-5.81c1.141-5.219-3.081-10.948-9.213-12.966-6.115-2.018-11.826.428-12.967,5.667Z" fill="#e86f70"/>
    <path id="path2889" d="M1512.527,2244.5c-1.121,5.117,2.808,10.866,8.768,12.823,5.962,1.978,11.7-.591,12.818-5.708,1.121-5.137-2.966-10.744-8.937-12.7-5.953-1.977-11.533.448-12.648,5.586Z" fill="#e86e70"/>
    <path id="path2891" d="M1512.775,2244.5c-1.1,5.015,2.715,10.641,8.512,12.558s11.389-.612,12.486-5.647c1.1-5.015-2.861-10.519-8.664-12.436-5.793-1.9-11.24.489-12.334,5.525Z" fill="#e76d6f"/>
    <path id="path2893" d="M1513.022,2244.461c-1.076,4.913,2.624,10.417,8.259,12.272s11.076-.612,12.152-5.545c1.075-4.913-2.75-10.3-8.39-12.171C1519.414,2237.162,1514.1,2239.527,1513.022,2244.461Z" fill="#e76c6f"/>
    <path id="path2895" d="M1513.311,2244.461c-1.054,4.811,2.532,10.193,8,11.987,5.476,1.814,10.765-.612,11.822-5.443s-2.641-10.091-8.119-11.906-10.652.53-11.706,5.362Z" fill="#e76c6f"/>
    <path id="path2897" d="M1513.558,2244.461c-1.037,4.709,2.435,9.948,7.744,11.722,5.312,1.753,10.456-.652,11.486-5.362,1.032-4.73-2.528-9.887-7.844-11.661C1519.639,2237.407,1514.586,2239.731,1513.558,2244.461Z" fill="#e76a6f"/>
    <path id="path2899" d="M1513.806,2244.461c-1.01,4.607,2.346,9.724,7.495,11.437s10.139-.652,11.147-5.28c1.014-4.607-2.415-9.663-7.567-11.375-5.139-1.692-10.064.591-11.074,5.219Z" fill="#e7696d"/>
    <path id="path2901" d="M1514.053,2244.5c-.988,4.505,2.255,9.5,7.238,11.151s9.827-.652,10.816-5.178-2.3-9.459-7.3-11.11c-4.974-1.651-9.769.612-10.757,5.137Z" fill="#e6676d"/>
    <path id="path2903" d="M1514.342,2244.5c-.966,4.424,2.162,9.276,6.985,10.886,4.823,1.59,9.514-.693,10.481-5.1.966-4.424-2.191-9.255-7.021-10.866-4.815-1.59-9.474.652-10.444,5.076Z" fill="#e7666d"/>
    <path id="path2905" d="M1514.589,2244.461c-.948,4.322,2.066,9.052,6.725,10.6s9.2-.693,10.148-5.015c.946-4.3-2.082-9.031-6.748-10.58-4.65-1.549-9.178.673-10.124,4.995Z" fill="#e7666d"/>
    <path id="path2907" d="M1514.837,2244.461c-.926,4.22,1.975,8.827,6.47,10.315s8.892-.693,9.815-4.913c.925-4.2-1.971-8.828-6.475-10.315s-8.888.693-9.809,4.913Z" fill="#e6656c"/>
    <path id="path2909" d="M1669.768,2202.48c6.3,12.11-2.688,33.026-20.066,46.727s-36.558,15-42.863,2.915c-6.3-12.109,4.7-32.312,22.072-46.013s34.555-15.726,40.855-3.629Z" fill="#f4b891"/>
    <path id="path2911" d="M1669.52,2202.563c6.251,12.008-2.657,32.76-19.892,46.36-17.231,13.577-36.266,14.882-42.521,2.875s4.644-32.067,21.875-45.667c17.24-13.581,34.282-15.579,40.537-3.567Z" fill="#f4b791"/>
    <path id="path2913" d="M1669.273,2202.687c6.2,11.926-2.624,32.516-19.719,45.993s-35.972,14.74-42.182,2.834c-6.2-11.926,4.6-31.823,21.684-45.3s34.009-15.455,40.219-3.527Z" fill="#f4b791"/>
    <path id="path2915" d="M1669.026,2202.769c6.16,11.844-2.591,32.271-19.542,45.646-16.947,13.353-35.677,14.617-41.844,2.793-6.157-11.844,4.542-31.578,21.488-44.953,16.956-13.359,33.736-15.31,39.9-3.486Z" fill="#f4b690"/>
    <path id="path2917" d="M1668.778,2202.851c6.116,11.763-2.561,32.027-19.371,45.279s-35.383,14.495-41.5,2.752,4.49-31.334,21.293-44.586,33.464-15.186,39.579-3.445Z" fill="#f4b590"/>
    <path id="path2919" d="M1668.572,2202.934c6.067,11.661-2.532,31.762-19.2,44.912-16.661,13.128-35.09,14.352-41.158,2.711-6.068-11.661,4.434-31.089,21.095-44.236s33.193-15.039,39.265-3.384Z" fill="#f4b490"/>
    <path id="path2921" d="M1668.324,2203.057c6.02,11.579-2.5,31.5-19.026,44.545-16.52,13.027-34.795,14.23-40.822,2.65-6.018-11.559,4.382-30.824,20.9-43.873,16.529-13.021,32.919-14.894,38.945-3.323Z" fill="#f3b490"/>
    <path id="path2923" d="M1668.077,2203.14c5.974,11.477-2.466,31.252-18.851,44.178-16.379,12.9-34.5,14.087-40.484,2.63-5.971-11.477,4.331-30.6,20.712-43.522s32.646-14.766,38.623-3.282Z" fill="#f3b38f"/>
    <path id="path2925" d="M1667.83,2203.223c5.93,11.4-2.435,31.007-18.676,43.832-16.237,12.8-34.207,13.964-40.143,2.589-5.928-11.4,4.277-30.355,20.516-43.176,16.243-12.8,32.371-14.623,38.3-3.241Z" fill="#f3b28e"/>
    <path id="path2927" d="M1667.582,2203.346c5.886,11.314-2.4,30.763-18.5,43.465s-33.912,13.842-39.8,2.528c-5.882-11.294,4.224-30.09,20.319-42.788s32.1-14.5,37.985-3.2Z" fill="#f2b18f"/>
    <path id="path2929" d="M1667.335,2203.429c5.837,11.213-2.369,30.5-18.332,43.1-15.953,12.578-33.618,13.7-39.461,2.487-5.835-11.192,4.171-29.866,20.125-42.442s31.829-14.352,37.668-3.139Z" fill="#f2b18d"/>
    <path id="path2931" d="M1667.087,2203.552c5.793,11.131-2.337,30.253-18.155,42.731s-33.327,13.577-39.125,2.446c-5.787-11.111,4.12-29.6,19.934-42.1,15.821-12.466,31.554-14.205,37.346-3.078Z" fill="#f3b08e"/>
    <path id="path2933" d="M1666.84,2203.635c5.745,11.049-2.308,30.009-17.986,42.385-15.67,12.354-33.032,13.455-38.781,2.406-5.745-11.029,4.066-29.376,19.737-41.729s31.281-14.081,37.03-3.058Z" fill="#f3af8e"/>
    <path id="path2935" d="M1666.593,2203.718c5.7,10.948-2.275,29.764-17.812,42-15.526,12.272-32.735,13.332-38.44,2.385-5.7-10.927,4.011-29.132,19.542-41.382s31.008-13.934,36.71-3Z" fill="#f3ae8e"/>
    <path id="path2937" d="M1666.345,2203.841c5.652,10.866-2.246,29.5-17.639,41.63-15.385,12.15-32.444,13.21-38.1,2.344-5.651-10.846,3.958-28.887,19.345-41.017,15.4-12.146,30.738-13.812,36.4-2.956Z" fill="#f3ae8d"/>
    <path id="path2939" d="M1666.1,2203.924c5.607,10.764-2.213,29.254-17.464,41.263-15.246,12.048-32.149,13.068-37.762,2.3s3.907-28.643,19.151-40.671,30.468-13.665,36.075-2.895Z" fill="#f2ac8d"/>
    <path id="path2941" d="M1665.85,2204.047c5.561,10.682-2.18,28.989-17.289,40.9-15.1,11.926-31.858,12.945-37.425,2.262-5.558-10.662,3.855-28.4,18.96-40.324C1645.207,2194.973,1660.285,2193.36,1665.85,2204.047Z" fill="#f2ac8c"/>
    <path id="path2943" d="M1665.6,2204.13c5.518,10.6-2.146,28.745-17.115,40.548-14.962,11.824-31.565,12.823-37.082,2.222-5.514-10.58,3.8-28.153,18.763-39.957s29.918-13.394,35.434-2.813Z" fill="#f1ab8c"/>
    <path id="path2945" d="M1665.4,2204.212c5.471,10.5-2.116,28.5-16.941,40.181-14.821,11.7-31.268,12.68-36.744,2.182s3.751-27.909,18.57-39.61,29.648-13.249,35.115-2.752Z" fill="#f1ab8c"/>
    <path id="path2947" d="M1665.149,2204.336c5.425,10.417-2.084,28.235-16.767,39.814-14.679,11.6-30.977,12.558-36.4,2.141-5.423-10.4,3.7-27.664,18.374-39.244s29.372-13.125,34.8-2.711Z" fill="#f2a98a"/>
    <path id="path2949" d="M1664.9,2204.418c5.378,10.315-2.055,27.99-16.6,39.468-14.536,11.457-30.68,12.415-36.063,2.079-5.376-10.316,3.644-27.42,18.183-38.9S1659.522,2194.089,1664.9,2204.418Z" fill="#f2a88b"/>
    <path id="path2951" d="M1664.654,2204.5c5.33,10.254-2.022,27.746-16.425,39.1-14.4,11.375-30.387,12.293-35.723,2.059s3.591-27.175,17.99-38.551C1644.9,2195.759,1659.32,2194.279,1664.654,2204.5Z" fill="#f2a88a"/>
    <path id="path2953" d="M1664.407,2204.625c5.287,10.153-1.989,27.5-16.248,38.734-14.252,11.253-30.094,12.171-35.385,2.018-5.281-10.132,3.54-26.93,17.8-38.183s28.553-12.7,33.837-2.569Z" fill="#f2a78a"/>
    <path id="path2955" d="M1664.159,2204.707c5.241,10.071-1.96,27.236-16.077,38.367-14.11,11.152-29.8,12.028-35.041,1.977s3.483-26.686,17.6-37.836c14.117-11.131,28.28-12.56,33.521-2.508Z" fill="#f1a689"/>
    <path id="path2957" d="M1663.912,2204.79c5.194,9.969-1.926,26.991-15.9,38-13.97,11.029-29.5,11.906-34.7,1.937s3.431-26.44,17.4-37.469,28.005-12.437,33.2-2.467Z" fill="#f0a589"/>
    <path id="path2959" d="M1663.665,2204.913c5.149,9.867-1.894,26.726-15.729,37.632-13.826,10.927-29.21,11.784-34.362,1.9-5.149-9.867,3.378-26.2,17.209-37.123s27.734-12.291,32.882-2.405Z" fill="#f0a48a"/>
    <path id="path2961" d="M1663.417,2205c5.1,9.806-1.862,26.482-15.555,37.287s-28.917,11.641-34.023,1.855,3.327-25.952,17.014-36.777c13.693-10.792,27.461-12.146,32.564-2.365Z" fill="#f0a488"/>
    <path id="path2963" d="M1663.17,2205.078c5.057,9.7-1.829,26.237-15.38,36.92-13.546,10.7-28.624,11.519-33.685,1.814-5.054-9.683,3.272-25.707,16.82-36.409s27.19-12.02,32.245-2.324Z" fill="#f0a388"/>
    <path id="path2965" d="M1662.922,2205.2c5.01,9.622-1.8,25.972-15.211,36.552-13.4,10.6-28.327,11.4-33.341,1.773-5.01-9.6,3.218-25.483,16.623-36.063s26.918-11.875,31.928-2.263Z" fill="#f0a288"/>
    <path id="path2967" d="M1662.675,2205.284c4.964,9.52-1.771,25.728-15.036,36.186-13.262,10.479-28.034,11.253-33.006,1.733s3.172-25.238,16.434-35.7c13.265-10.477,26.642-11.751,31.608-2.222Z" fill="#f0a187"/>
    <path id="path2969" d="M1662.469,2205.408c4.92,9.439-1.736,25.462-14.861,35.818-13.12,10.377-27.741,11.131-32.664,1.692-4.914-9.418,3.114-24.993,16.237-35.35s26.371-11.606,31.288-2.161Z" fill="#f0a187"/>
    <path id="path2971" d="M1662.221,2205.491c4.874,9.357-1.705,25.238-14.689,35.472-12.976,10.254-27.448,11.009-32.323,1.652-4.87-9.337,3.063-24.749,16.041-35,12.983-10.234,26.1-11.459,30.971-2.12Z" fill="#f09f87"/>
    <path id="path2973" d="M1661.974,2205.573c4.828,9.255-1.669,24.973-14.512,35.105-12.838,10.152-27.155,10.866-31.983,1.61s3.008-24.5,15.844-34.636,25.826-11.334,30.651-2.079Z" fill="#ef9e86"/>
    <path id="path2975" d="M1661.726,2205.7c4.781,9.174-1.642,24.729-14.341,34.738-12.7,10.03-26.86,10.743-31.646,1.57-4.777-9.153,2.959-24.26,15.655-34.29s25.552-11.188,30.333-2.018Z" fill="#ef9c86"/>
    <path id="path2977" d="M1661.479,2205.779c4.733,9.072-1.609,24.464-14.164,34.371-12.556,9.928-26.567,10.6-31.306,1.529s2.9-24.015,15.458-33.923,25.279-11.064,30.012-1.978Z" fill="#ef9c86"/>
    <path id="path2979" d="M1661.231,2205.862c4.69,9.01-1.576,24.24-13.992,34.025-12.413,9.806-26.274,10.479-30.966,1.488s2.85-23.771,15.264-33.576,25.008-10.917,29.694-1.937Z" fill="#ef9b85"/>
    <path id="path2981" d="M1660.984,2205.986c4.644,8.908-1.545,23.974-13.821,33.657-12.268,9.7-25.979,10.356-30.624,1.448-4.641-8.888,2.8-23.525,15.069-33.209,12.274-9.7,24.734-10.792,29.376-1.9Z" fill="#ef9b84"/>
    <path id="path2983" d="M1660.737,2206.068c4.6,8.807-1.514,23.709-13.646,33.291s-25.688,10.213-30.287,1.407,2.744-23.281,14.874-32.863,24.462-10.646,29.058-1.835Z" fill="#ef9b84"/>
    <path id="path2985" d="M1660.489,2206.192c4.552,8.725-1.483,23.464-13.474,32.924-11.982,9.48-25.39,10.091-29.945,1.366s2.693-23.036,14.681-32.516c11.992-9.459,24.19-10.5,28.738-1.774Z" fill="#ef9983"/>
    <path id="path2987" d="M1660.242,2206.274c4.506,8.644-1.45,23.22-13.3,32.577s-25.095,9.969-29.6,1.325c-4.5-8.624,2.639-22.792,14.485-32.149s23.914-10.377,28.42-1.753Z" fill="#ef9883"/>
    <path id="path2989" d="M1659.994,2206.357c4.459,8.562-1.418,22.975-13.125,32.21-11.7,9.255-24.8,9.826-29.266,1.284s2.588-22.547,14.292-31.8C1643.6,2198.81,1655.537,2197.817,1659.994,2206.357Z" fill="#ee9783"/>
    <path id="path2991" d="M1659.747,2206.439c4.415,8.46-1.385,22.71-12.952,31.843s-24.509,9.7-28.924,1.244,2.531-22.3,14.1-31.436,23.371-10.105,27.781-1.651Z" fill="#ee9783"/>
    <path id="path2993" d="M1659.541,2206.563c4.37,8.358-1.352,22.466-12.778,31.476-11.418,9.031-24.214,9.561-28.587,1.2s2.481-22.058,13.9-31.089,23.1-9.961,27.461-1.59Z" fill="#ee9682"/>
    <path id="path2995" d="M1659.293,2206.645c4.323,8.277-1.325,22.2-12.6,31.109s-23.921,9.439-28.245,1.162,2.428-21.813,13.706-30.742C1643.429,2199.266,1654.974,2198.36,1659.293,2206.645Z" fill="#ed9482"/>
    <path id="path2997" d="M1659.046,2206.728c4.277,8.2-1.292,21.976-12.434,30.763-11.134,8.807-23.624,9.316-27.905,1.121s2.379-21.569,13.513-30.375,22.552-9.689,26.825-1.509Z" fill="#ed9482"/>
    <path id="path2999" d="M1658.8,2206.852c4.23,8.114-1.261,21.711-12.259,30.4-10.994,8.7-23.333,9.174-27.566,1.08s2.324-21.344,13.318-30.029,22.281-9.545,26.507-1.448Z" fill="#ee9482"/>
    <path id="path3001" d="M1658.551,2206.934c4.18,8.012-1.232,21.467-12.088,30.029-10.852,8.582-23.038,9.051-27.224,1.04s2.269-21.1,13.124-29.682c10.854-8.562,22-9.4,26.188-1.386Z" fill="#ee9282"/>
    <path id="path3003" d="M1658.3,2207.058c4.139,7.93-1.194,21.2-11.911,29.662-10.712,8.481-22.747,8.929-26.888,1s2.218-20.855,12.931-29.315,21.732-9.274,25.868-1.346Z" fill="#ed9182"/>
    <path id="path3005" d="M1658.056,2207.14c4.093,7.828-1.165,20.937-11.737,29.3s-22.45,8.786-26.547.958,2.164-20.611,12.734-28.969C1643.078,2200.086,1653.969,2199.291,1658.056,2207.14Z" fill="#ed9181"/>
    <path id="path3007" d="M1657.809,2207.223c4.047,7.747-1.132,20.712-11.564,28.948-10.428,8.256-22.158,8.664-26.207.917s2.111-20.366,12.539-28.6c10.432-8.256,21.189-8.99,25.232-1.264Z" fill="#ed9081"/>
    <path id="path3009" d="M1657.561,2207.346c4,7.665-1.1,20.447-11.387,28.582s-21.866,8.521-25.866.877,2.058-20.121,12.345-28.255,20.914-8.848,24.909-1.2Z" fill="#ed8e81"/>
    <path id="path3011" d="M1657.314,2207.429c3.953,7.563-1.07,20.2-11.216,28.215-10.146,8.032-21.572,8.4-25.528.836s2.007-19.877,12.152-27.909c10.146-8.012,20.643-8.7,24.593-1.142Z" fill="#ed8d80"/>
    <path id="path3013" d="M1657.066,2207.552c3.907,7.461-1.036,19.938-11.045,27.848s-21.277,8.277-25.186.795,1.953-19.632,11.957-27.542,20.37-8.583,24.274-1.1Z" fill="#ed8d80"/>
    <path id="path3015" d="M1656.819,2207.635c3.86,7.4-1.008,19.713-10.872,27.5-9.862,7.808-20.98,8.134-24.845.754s1.9-19.387,11.762-27.2c9.862-7.788,20.1-8.44,23.956-1.06Z" fill="#ed8c7f"/>
    <path id="path3017" d="M1656.572,2207.717c3.818,7.3-.974,19.448-10.7,27.134s-20.687,8.012-24.5.714,1.844-19.143,11.564-26.828,19.824-8.318,23.635-1.019Z" fill="#ed8a7f"/>
    <path id="path3019" d="M1656.365,2207.841c3.771,7.217-.943,19.2-10.525,26.767-9.576,7.584-20.4,7.869-24.165.673-3.767-7.217,1.791-18.9,11.371-26.482C1642.627,2201.237,1652.6,2200.624,1656.365,2207.841Z" fill="#ed8a7e"/>
    <path id="path3021" d="M1656.118,2207.924c3.725,7.115-.91,18.939-10.35,26.4s-20.1,7.747-23.828.632c-3.718-7.135,1.742-18.653,11.18-26.135,9.438-7.441,19.278-8.032,23-.9Z" fill="#eb897d"/>
    <path id="path3023" d="M1655.871,2208.047c3.678,7.033-.879,18.694-10.177,26.033-9.292,7.359-19.808,7.625-23.486.591s1.689-18.409,10.983-25.768,19.005-7.89,22.68-.856Z" fill="#eb877c"/>
    <path id="path3025" d="M1655.623,2208.13c3.634,6.952-.846,18.449-10,25.687s-19.513,7.482-23.148.55c-3.629-6.952,1.638-18.164,10.789-25.422,9.154-7.237,18.734-7.747,22.36-.815Z" fill="#eb877c"/>
    <path id="path3027" d="M1655.376,2208.212c3.587,6.85-.815,18.184-9.827,25.32s-19.22,7.359-22.807.51,1.583-17.919,10.6-25.054,18.462-7.625,22.039-.775Z" fill="#eb867b"/>
    <path id="path3029" d="M1655.128,2208.295c3.54,6.768-.788,17.94-9.658,24.953-8.869,7.033-18.923,7.237-22.469.469s1.532-17.675,10.4-24.708c8.87-7.013,18.188-7.482,21.726-.714Z" fill="#ea847b"/>
    <path id="path3031" d="M1654.881,2208.419c3.5,6.666-.752,17.675-9.484,24.586s-18.63,7.094-22.127.428c-3.491-6.687,1.478-17.451,10.2-24.341,8.73-6.911,17.917-7.359,21.406-.673Z" fill="#ea837b"/>
    <path id="path3033" d="M1654.633,2208.5c3.449,6.6-.721,17.451-9.311,24.239-8.584,6.809-18.337,6.972-21.786.387s1.423-17.206,10.009-23.995,17.642-7.217,21.087-.632Z" fill="#ea837b"/>
    <path id="path3035" d="M1654.386,2208.583c3.4,6.5-.688,17.186-9.134,23.872s-18.043,6.85-21.448.346,1.37-16.961,9.817-23.648c8.444-6.666,17.367-7.074,20.765-.571Z" fill="#ea8179"/>
    <path id="path3037" d="M1654.139,2208.707c3.356,6.422-.657,16.941-8.961,23.505-8.3,6.585-17.75,6.707-21.109.306-3.352-6.421,1.321-16.717,9.624-23.281s17.1-6.931,20.447-.53Z" fill="#ea8078"/>
    <path id="path3039" d="M1653.891,2208.79c3.31,6.32-.626,16.676-8.787,23.138s-17.457,6.585-20.771.265,1.268-16.472,9.427-22.935,16.825-6.789,20.13-.469Z" fill="#ea8078"/>
    <path id="path3041" d="M1653.644,2208.914c3.267,6.218-.593,16.431-8.612,22.771-8.022,6.361-17.165,6.442-20.431.224-3.261-6.238,1.212-16.228,9.231-22.567C1641.851,2202.981,1650.386,2202.675,1653.644,2208.914Z" fill="#ea7e77"/>
    <path id="path3043" d="M1653.4,2209c3.221,6.157-.561,16.187-8.441,22.425s-16.869,6.32-20.088.184c-3.214-6.157,1.161-15.983,9.039-22.221s16.279-6.523,19.49-.387Z" fill="#ea7d78"/>
    <path id="path3045" d="M1653.19,2209.078c3.174,6.054-.533,15.922-8.27,22.058s-16.572,6.2-19.746.143,1.106-15.738,8.843-21.874C1641.754,2203.289,1650.024,2203.024,1653.19,2209.078Z" fill="#e97c77"/>
    <path id="path3047" d="M1652.943,2209.2c3.127,5.973-.5,15.677-8.1,21.691s-16.279,6.055-19.407.1c-3.123-5.973,1.054-15.493,8.65-21.507s15.735-6.259,18.854-.285Z" fill="#e97c77"/>
    <path id="path3049" d="M1652.7,2209.284c3.079,5.871-.468,15.412-7.924,21.324s-15.984,5.933-19.065.061c-3.078-5.892,1-15.249,8.453-21.161,7.453-5.892,15.458-6.116,18.536-.224Z" fill="#e97a76"/>
    <path id="path3051" d="M1652.448,2209.367c3.036,5.79-.435,15.188-7.747,20.978s-15.693,5.81-18.729.021.95-15,8.259-20.814C1641.543,2203.781,1649.419,2203.577,1652.448,2209.367Z" fill="#e97a76"/>
    <path id="path3053" d="M1652.2,2209.491c2.99,5.708-.4,14.923-7.574,20.61s-15.4,5.667-18.387-.021c-2.987-5.708.9-14.76,8.064-20.447,7.169-5.667,14.916-5.83,17.9-.143Z" fill="#e87975"/>
    <path id="path3055" d="M1651.953,2209.573c2.946,5.606-.371,14.678-7.4,20.243s-15.105,5.545-18.05-.061c-2.939-5.626.844-14.515,7.871-20.1,7.026-5.566,14.641-5.688,17.577-.082Z" fill="#e87975"/>
    <path id="path3057" d="M1651.706,2209.7c2.9,5.525-.342,14.413-7.227,19.877s-14.812,5.4-17.708-.1c-2.894-5.525.79-14.271,7.674-19.734s14.37-5.565,17.26-.041Z" fill="#e87875"/>
    <path id="path3059" d="M1651.458,2209.779c2.852,5.423-.308,14.168-7.052,19.51s-14.517,5.28-17.37-.143c-2.846-5.443.739-14.026,7.482-19.387,6.743-5.341,14.1-5.423,16.94.021Z" fill="#e87775"/>
    <path id="path3061" d="M1651.211,2209.862c2.8,5.362-.277,13.924-6.881,19.163s-14.225,5.157-17.029-.184.684-13.781,7.289-19.02,13.824-5.3,16.621.041Z" fill="#e87673"/>
    <path id="path3063" d="M1650.963,2209.985c2.761,5.26-.242,13.679-6.707,18.8s-13.93,5.015-16.687-.224c-2.757-5.26.633-13.536,7.09-18.674,6.461-5.117,13.551-5.157,16.3.1Z" fill="#e87673"/>
    <path id="path3065" d="M1650.716,2210.068c2.714,5.157-.215,13.414-6.534,18.429s-13.635,4.892-16.352-.265c-2.706-5.178.582-13.312,6.9-18.327,6.317-4.995,13.278-5.015,15.986.163Z" fill="#e87573"/>
    <path id="path3067" d="M1650.468,2210.192c2.67,5.076-.182,13.149-6.359,18.062-6.179,4.893-13.34,4.77-16.01-.326-2.662-5.076.528-13.047,6.7-17.94S1647.81,2205.116,1650.468,2210.192Z" fill="#e87473"/>
    <path id="path3069" d="M1650.262,2210.274c2.622,4.974-.149,12.9-6.186,17.7s-13.047,4.628-15.67-.346c-2.617-4.995.473-12.823,6.51-17.614,6.033-4.77,12.73-4.729,15.345.265Z" fill="#e87472"/>
    <path id="path3071" d="M1650.015,2210.357c2.577,4.913-.116,12.66-6.011,17.349s-12.754,4.505-15.327-.387c-2.573-4.913.419-12.578,6.313-17.247,5.891-4.689,12.459-4.607,15.025.285Z" fill="#e87472"/>
    <path id="path3073" d="M1649.767,2210.439c2.531,4.811-.085,12.415-5.839,16.982s-12.459,4.363-14.991-.448.37-12.313,6.121-16.88S1647.249,2205.628,1649.767,2210.439Z" fill="#e87272"/>
    <path id="path3075" d="M1649.52,2210.563c2.484,4.709-.053,12.15-5.664,16.615s-12.166,4.241-14.65-.489c-2.481-4.709.313-12.069,5.924-16.533,5.609-4.444,11.917-4.322,14.39.408Z" fill="#e87171"/>
    <path id="path3077" d="M1649.272,2210.646c2.439,4.628-.025,11.905-5.494,16.248s-11.87,4.118-14.308-.53c-2.435-4.628.262-11.824,5.729-16.166S1646.843,2206,1649.272,2210.646Z" fill="#e86f70"/>
    <path id="path3079" d="M1649.025,2210.728c2.4,4.546.008,11.661-5.32,15.9s-11.576,3.975-13.968-.571c-2.388-4.526.209-11.579,5.536-15.82,5.323-4.22,11.371-4.057,13.751.489Z" fill="#e86f70"/>
    <path id="path3081" d="M1648.778,2210.852c2.346,4.464.042,11.416-5.145,15.534s-11.285,3.853-13.631-.612c-2.339-4.444.16-11.335,5.343-15.453s11.1-3.914,13.433.53Z" fill="#e86e70"/>
    <path id="path3083" d="M1648.53,2210.934c2.3,4.363.071,11.151-4.974,15.167s-10.99,3.731-13.291-.652c-2.293-4.363.106-11.09,5.149-15.106,5.041-4,10.823-3.771,13.116.591Z" fill="#e76d6f"/>
    <path id="path3085" d="M1648.283,2211.058c2.255,4.261.1,10.906-4.8,14.8s-10.7,3.588-12.949-.693c-2.251-4.261.051-10.846,4.952-14.76,4.9-3.894,10.55-3.629,12.8.652Z" fill="#e76c6f"/>
    <path id="path3087" d="M1648.035,2211.14c2.209,4.179.137,10.642-4.623,14.433s-10.4,3.466-12.61-.734c-2.206-4.179,0-10.6,4.757-14.393s10.279-3.506,12.475.693Z" fill="#e76c6f"/>
    <path id="path3089" d="M1647.788,2211.223c2.166,4.1.167,10.4-4.45,14.087-4.619,3.669-10.109,3.343-12.27-.775-2.158-4.1-.057-10.356,4.564-14.046C1640.248,2206.819,1645.636,2207.125,1647.788,2211.223Z" fill="#e76a6f"/>
    <path id="path3091" d="M1647.54,2211.346c2.118,4.016.2,10.152-4.273,13.72s-9.817,3.2-11.933-.815c-2.111-4-.106-10.112,4.373-13.679s9.729-3.241,11.833.775Z" fill="#e7696d"/>
    <path id="path3093" d="M1647.334,2211.429c2.069,3.914.231,9.887-4.106,13.353-4.335,3.445-9.522,3.078-11.589-.856-2.068-3.914-.16-9.867,4.177-13.333,4.328-3.445,9.458-3.1,11.518.836Z" fill="#e6676d"/>
    <path id="path3095" d="M1647.087,2211.552c2.026,3.812.262,9.643-3.931,12.986s-9.227,2.936-11.249-.9-.213-9.623,3.984-12.986C1640.077,2207.333,1645.072,2207.72,1647.087,2211.552Z" fill="#e7666d"/>
    <path id="path3097" d="M1646.839,2211.635c1.978,3.751.295,9.4-3.756,12.639-4.051,3.221-8.934,2.813-10.912-.938-1.971-3.731-.266-9.4,3.787-12.619s8.912-2.813,10.881.917Z" fill="#e7666d"/>
    <path id="path3099" d="M1646.592,2211.718c1.935,3.649.328,9.153-3.582,12.272s-8.641,2.691-10.572-.979c-1.927-3.649-.318-9.153,3.593-12.272s8.641-2.67,10.561.979Z" fill="#e6656c"/>
    <path id="path3101" d="M1586.22,2241.656s-15.413-30.172-16.672,4.464S1580.265,2250.361,1586.22,2241.656Z" fill="#f4b891"/>
    <path id="path3103" d="M1585.807,2241.7s-14.761-28.887-15.968,4.281S1580.1,2250.035,1585.807,2241.7Z" fill="#f4b38b"/>
    <path id="path3105" d="M1585.354,2241.739s-14.108-27.6-15.262,4.077S1579.9,2249.71,1585.354,2241.739Z" fill="#f2af85"/>
    <path id="path3107" d="M1584.941,2241.78s-13.455-26.318-14.556,3.894S1579.742,2249.384,1584.941,2241.78Z" fill="#f2a97f"/>
    <path id="path3109" d="M1584.529,2241.863s-12.8-25.055-13.849,3.71S1579.581,2249.079,1584.529,2241.863Z" fill="#f2a579"/>
    <path id="path3111" d="M1584.075,2241.9s-12.15-23.771-13.142,3.527S1579.378,2248.774,1584.075,2241.9Z" fill="#f09e74"/>
    <path id="path3113" d="M1583.663,2241.945s-11.5-22.506-12.435,3.323S1579.221,2248.427,1583.663,2241.945Z" fill="#ef9a6e"/>
    <path id="path3115" d="M1583.209,2241.986s-10.845-21.222-11.729,3.139S1579.018,2248.122,1583.209,2241.986Z" fill="#ef9469"/>
    <path id="path3117" d="M1582.8,2242.069s-10.2-19.958-11.025,2.936S1578.859,2247.817,1582.8,2242.069Z" fill="#ee8f62"/>
    <path id="path3119" d="M1582.343,2242.11s-9.542-18.674-10.317,2.772S1578.658,2247.492,1582.343,2242.11Z" fill="#ec875a"/>
    <path id="path3121" d="M1584.24,2236.749c-1.227,1.162-4.519-3.914-8.324-4.913-4.093-.367-4.923,3.894-5.809,4.893-.247.51-2.248-1.121-1.542-4.464.424-3.18,3.765-6.972,7.929-6.32,7.926,2.711,8.563,10.621,7.746,10.8Z" fill="#26231f"/>
    <path id="path3123" d="M1505.311,2263.636c-.24.346,6.757,8.4,20.391,17.287,13.349,8.848,34.8,20.121,58.426,14.108,47.849-14.189,68.694-63.869,67.6-62.81-.79-2.467-22.661,41.691-68.1,54.9-46.521,10.4-78.08-27.155-78.323-23.485Z" fill="#26231f"/>
    <path id="path3125" d="M1498.341,2270.44c.016-1.692,1.6-3.527,3.7-7.482,2.133-3.812,3.845-6.952,5.165-6.687,1.336.2,1.445,5.341-1.2,10.051C1503.55,2271.4,1498.318,2272.418,1498.341,2270.44Z" fill="#26231f"/>
    <path id="path3127" d="M1647.54,2228.79c1.087-1.183,3.381-.632,6.592.245,3.238.8,5.525,1.529,6.1,3.139.584,1.509-3.076,3.731-7.107,2.65-4.058-1.02-6.617-5.015-5.584-6.034Z" fill="#26231f"/>
    <path id="path3129" d="M1543.7,2292.668c-.157-.795,6.53-1.427,15.063,4.546,4.277,2.711,9,6.666,14.246,10.377,5.544,3.547,11,7.156,14.574-1.162,18.974-27.889,41.192-40.732,41.741-38.774.49,1.08-19.733,15.656-38.029,42.545-1.387,3.038-6.292,8.521-10.639,7.053-4.111-.713-7.13-2.956-9.9-4.954-5.431-4.22-9.811-8.4-13.711-11.477-7.667-6.544-13.345-7.257-13.347-8.155Z" fill="#26231f"/>
    <path id="path3131" d="M1602.674,2287.6s-21.941,9.826-39.654,8.6c-3.944-.265,18.74,22.853,22.438,11.763C1589.625,2295.485,1596.084,2293.426,1602.674,2287.6Z" fill="#da013c"/>
    <path id="path3133" d="M1513.517,2240.832c.348,1.142,1.674,1.57,2.965.958a2.808,2.808,0,0,0,1.7-3.139,2.034,2.034,0,0,0-2.961-.958,2.834,2.834,0,0,0-1.7,3.139Z" fill="#9e2c14"/>
    <path id="path3135" d="M1502.053,2238.192a2.034,2.034,0,0,0,2.961.958,2.843,2.843,0,0,0,1.705-3.139,2.014,2.014,0,0,0-2.965-.958A2.8,2.8,0,0,0,1502.053,2238.192Z" fill="#9e2c14"/>
    <path id="path3137" d="M1507.5,2249.739a2.007,2.007,0,0,0,2.959.958,2.817,2.817,0,0,0,1.707-3.139,2.025,2.025,0,0,0-2.965-.958,2.818,2.818,0,0,0-1.7,3.139Z" fill="#9e2c14"/>
    <path id="path3139" d="M1528.321,2245.656c.346,1.121,1.672,1.549,2.963.958a2.832,2.832,0,0,0,1.7-3.139c-.349-1.142-1.672-1.57-2.963-.958a2.807,2.807,0,0,0-1.7,3.139Z" fill="#9e2c14"/>
    <path id="path3141" d="M1637.932,2208.171a2.037,2.037,0,0,0,2.963.958,2.818,2.818,0,0,0,1.7-3.139c-.348-1.142-1.669-1.57-2.959-.958A2.811,2.811,0,0,0,1637.932,2208.171Z" fill="#9e2c14"/>
    <path id="path3143" d="M1634.138,2223.058a2.037,2.037,0,0,0,2.965.958,2.819,2.819,0,0,0,1.7-3.139,2.011,2.011,0,0,0-2.963-.958,2.813,2.813,0,0,0-1.7,3.139Z" fill="#9e2c14"/>
    <path id="path3145" d="M1654.345,2207.058a2.033,2.033,0,0,0,2.966.979,2.841,2.841,0,0,0,1.7-3.16,2.016,2.016,0,0,0-2.961-.938,2.792,2.792,0,0,0-1.705,3.119Z" fill="#9e2c14"/>
    <path id="path3147" d="M1650.3,2220.295a2.032,2.032,0,0,0,2.965.979,2.832,2.832,0,0,0,1.7-3.139,2.008,2.008,0,0,0-2.959-.958,2.8,2.8,0,0,0-1.707,3.119Z" fill="#b22415"/>
    <path id="path3149" d="M1617.684,2252.172a2.031,2.031,0,0,0,2.965.979,2.828,2.828,0,0,0,1.7-3.139,2.009,2.009,0,0,0-2.961-.958,2.791,2.791,0,0,0-1.7,3.119Z" fill="#b22415"/>
    <path id="path3151" d="M1613.107,2225.821a2.038,2.038,0,0,0,2.965.958,2.828,2.828,0,0,0,1.7-3.139,2.009,2.009,0,0,0-2.961-.958,2.8,2.8,0,0,0-1.7,3.139Z" fill="#b22415"/>
    <path id="path3153" d="M1658.262,2240.708a2.031,2.031,0,0,0,2.965.979,2.832,2.832,0,0,0,1.7-3.139,2.008,2.008,0,0,0-2.959-.958A2.8,2.8,0,0,0,1658.262,2240.708Z" fill="#b22415"/>
    <path id="path3155" d="M1663.211,2219.883a2.036,2.036,0,0,0,2.963.958,2.832,2.832,0,0,0,1.7-3.139,2.007,2.007,0,0,0-2.959-.958A2.807,2.807,0,0,0,1663.211,2219.883Z" fill="#b22415"/>
    <path id="path3157" d="M1531.249,2262.44a2.041,2.041,0,0,0,2.966.958,2.82,2.82,0,0,0,1.7-3.139,2.021,2.021,0,0,0-2.959-.958A2.808,2.808,0,0,0,1531.249,2262.44Z" fill="#b22415"/>
    <path id="path3159" d="M1551,2258.646a2.013,2.013,0,0,0,2.965.958,2.8,2.8,0,0,0,1.7-3.139,2.032,2.032,0,0,0-2.959-.958A2.833,2.833,0,0,0,1551,2258.646Z" fill="#b22415"/>
    <path id="path3161" d="M1493.682,2241.2a2.013,2.013,0,0,0,2.965.958,2.806,2.806,0,0,0,1.7-3.139,2.033,2.033,0,0,0-2.959-.958A2.828,2.828,0,0,0,1493.682,2241.2Z" fill="#b22415"/>
    <path id="path3163" d="M1513.022,2261.615a2.018,2.018,0,0,0,2.968.958,2.807,2.807,0,0,0,1.7-3.139,2.034,2.034,0,0,0-2.959-.958A2.837,2.837,0,0,0,1513.022,2261.615Z" fill="#b22415"/>
    <path id="path3165" d="M1539.208,2237.78a2.033,2.033,0,0,0,2.967.979,2.849,2.849,0,0,0,1.7-3.16,2.018,2.018,0,0,0-2.963-.938A2.8,2.8,0,0,0,1539.208,2237.78Z" fill="#b22415"/>
    <path id="path3167" d="M1622.014,2218.357a2.029,2.029,0,0,0,2.963.979,2.844,2.844,0,0,0,1.7-3.16,2.034,2.034,0,0,0-2.961-.958A2.831,2.831,0,0,0,1622.014,2218.357Z" fill="#9e2c14"/>
    <path id="path3169" d="M1482.795,2184.335c-2.422,6.523-13.587,49.919,6.215,32.956,20.707-17.757,30.025-25.35,30.025-25.35s-4.14,21.538,13.462,10.142,9.318-21.55,9.318-21.55,2.432,27.5,18.638,19c7.25-3.8,9.318-22.8,9.318-22.8s8.283-5.074,6.215,3.8,18.634,21.55,23.814,6.336,18.638-16.474,18.638-16.474,10.355,35.48,15.529,17.742-3.108-20.28,0-16.48,32.1,21.55,27.956-2.53-17.6-49.428-34.165-39.286-2.073-10.14-18.638-10.14-21.746,16.474-31.065,7.6-27.956-16.474-32.1,3.8-10.355,5.07-10.355,5.07-22.78,3.8-25.884,19.01-21.743,15.21-26.922,29.15Z" fill="#26231f"/>
    <path id="path3171" d="M1381.308,2418.773l5,85.824,199.567-7.3s27.615,7.074,22.44,4.526c-.906-.428,1.425-7.094-3.913-13.781-25.151-31.456-109.5-114.2-223.094-69.271Z" fill="#fefbde"/>
    <path id="path3173" d="M1612.241,2489.332s56.842-84.319,221.473-52.615l-23.493,67.643-191.967-2.039-6.015-12.986Z" fill="#fefbde"/>
    <path id="path3175" d="M1559.58,2234.6c-1.05,5.157-38.25,9.948-45.609,8.664s-2.664-33.7-2.664-33.7c4.2-11.559,37.033-5.1,44.385-4.811,5.483.2,4.941,24.708,3.889,29.846Zm7.761,3.527c1.131-15.187,1.607-42.034-6.344-41.386-9.666.793-52.022-8.077-56.084,6.852-1,3.669-9.911,42.343,2.7,50.046,12.607,7.726,58.48,1.325,59.733-15.514Z" fill="#161413"/>
    <path id="path3177" d="M1588.818,2191.14c7.351-.294,40.188-6.742,44.389,4.827,0,0,4.684,32.4-2.668,33.682s-44.558-3.507-45.605-8.644c-1.05-5.157-1.592-29.652,3.887-29.866Zm48.088,48.908c12.606-7.726,3.691-46.4,2.693-50.063-4.064-14.929-46.422-6.067-56.084-6.854-7.955-.644-7.478,26.194-6.346,41.382,1.25,16.839,47.127,23.24,59.733,15.535Z" fill="#161413"/>
    <path id="path3179" d="M1487.7,2191.758c-3.638,0-10.3-2.43-9.76-12.758s-3.252-25.515-7.593-14.582-8.133,16.4-13.014,9.113-39.589-34.626-36.877-23.083,15.726,25.516,4.337,25.516-57.482,1.821-47.18,13.363,35.792,21.269,23.321,35.845-52.607,15.8-46.64,24.912,23.863,3.017,20.607,16.391-5.423,44.95,10.306,40.711c15.726-4.26,32.536-21.874,35.79-10.948,3.254,10.948,4.337,38.876,14.641,23.689s14.1-45.564,20.064-41.3,10.845,10.948,11.389.611,3.254-22.485,7.05-28.56,22.776-58.917,13.557-58.917Z" fill="#e52810"/>
    <path id="path3181" d="M1763.213,2224.13c.3-.1.513-.184.513-.184S1763.206,2223.723,1763.213,2224.13Z" fill="#e52810"/>
    <path id="path3183" d="M1768.079,2230.646c-3.966-4.445-4.843-5.994-4.854-6.5-1.6.469-6,1.427,2.684-6.258,10.3-9.113,6.506-23.079-2.171-32.192s0-20.653,0-32.2-17.353-5.466-21.149-14.578-10.3-24.908-21.149-24.908-8.135,15.8-18.982,4.862-17.9,5.466-26.573,19.438-9.3,16-14.1,18.828c-10.3,6.075,8.135,29.77,15.183,37.666s20.066,0,24.946,8.5,4.337,21.263,2.17,38.876,7.593,7.3,15.185,1.835c0,0,5.422,7.889,4.879,25.5-.213,6.972,1.359,9.948,3.938,10.723a7.987,7.987,0,0,0,3.181,4.22c8.066,5.708,20,8.746,23.251.856,2.119-5.137,2.4-13.373,2.331-18.47a85.24,85.24,0,0,1,9.6-2.793c20.066-4.852,8.677-25.524,1.629-33.413Z" fill="#e52810"/>
    <path id="path3185" d="M1495.29,2178.4c-.225,3.533-6.506,24.294,2.171,18.831s25.486-24.3,26.571-16.4-1.625,21.273,4.34,13.973,16.266-30.376,17.351-20.046,6.506,24.9,12.474,16.4,12.472-30.985,16.812-24.91,3.254,27.944,12.472,20.046,15.728-22.474,22.777-22.474,18.979,22.474,20.066,15.793,5.423-24.3,9.22-16.4,15.726,17.615,16.266,10.326-2.166-35.232-11.385-37.056-13.016,2.43-22.776,3.647-7.05-21.263-17.9-15.8-19.526,18.225-26.576,8.5-21.692-18.831-27.113-1.215-11.933,27.941-16.27,20.653-7.591-13.363-15.186-3.645-5.965,18.833-10.845,20.047-11.931,1.213-12.474,9.718Z" fill="#e52810"/>
    <path id="path3187" d="M1473.6,2192.954c-9.948-.4-12.472-25.515-15.182-15.8s-1.086,9.72-15.728,3.04-46.1-4.255-36.877,7.288,21.148,17.628,16.812,23.683c-4.339,6.075-28.2,27.949-16.812,25.524s14.643,3.649-1.627,17.614c-16.27,13.985-24.946,39.488-13.557,31.6,11.385-7.91,36.333-39.488,30.369-18.225s2.71,37.042,8.133,21.262c5.423-15.8,1.627,10.316,1.627,10.316s7.593-40.691,17.353-35.839c9.764,4.872,10.306,14.576,13.56,4.872,3.252-9.724-25.49-34.024-10.3-27.949s28.74-1.835,20.064-12.15c-8.677-10.336,17.355-34.628,2.168-35.238Z" fill="#e9590a"/>
    <path id="path3189" d="M1668.861,2165.036c8.976-10.054,4.339-8.505,15.185-23.693s15.726-11.541,17.355-9.718,1.085-6.077,14.643-5.468,15.182,7.9,14.641,15.186,22.232,0,22.232,9.724,2.171,9.111-2.71,23.689,9.759,23.693,10.847,26.123-35.792,7.889-19.524,20.039,37.962,25.524,19.524,28.562-20.063,6.687-20.063,13.353c0,6.687-8.679,9.113-10.849-10.315-2.171-19.448-4.881-26.726-8.677-20.651s-13.555,14.576-7.593-4.873c5.966-19.428,10.845-34.622,1.085-30.369s-9.759,13.367-10.847-6.075,1.088-21.868-12.474-13.973-28.2-5.464-22.776-11.541Z" fill="#e9590a"/>
    <path id="path3191" d="M1529.476,2157.119c.7,10.083-11.387-7.288-10.847,1.217s-4.339,4.252-11.387,15.186-9.76,17.012,2.712,5.47,14.1-18.223,17.9-7.9,3.252,6.073,10.3-2.432,9.221-4.856,14.1,2.432.543,4.252,13.016-7.29,14.643-8.507,20.064-1.217,3.8,6.075,8.677-1.823,33.081,18.223,32,5.468,8.676-13.975,9.762-12.15,11.929,8.5,11.929,6.683,3.8-23.693-9.762-17.616-24.946,9.111-27.657,0-13.014-9.722-13.556-6.077-17.894,15.189-21.149,7.9-7.591-26.123-15.728-9.72-14.1,23.693-13.014,19.44-17.894-5.471-17.355,2.426Z" fill="#e9590a"/>
    <path id="path3193" d="M1537.6,2348.5l-15.95-.408-19.3,14.372-20.605,30.987s92.188,46.174,105.206,64.991c13.014,18.837,20.064,20.06,20.064,20.06l9.219-1.834s15.726-21.263,22.232-27.338,66.162-39.488,66.162-39.488l-25.7-44.545-16.094-18.837-29.26-1.631s-13.923,15.167-34.382,18.837c-54.228,9.724-61.589-15.167-61.589-15.167Z" fill="#c00d20"/>
    <path id="path3195" d="M1534.837,2350.566s-20.647,3.1-19.02,4.913,39.434,68.744,40.519,66.315,31.9-50.743,31.9-50.743-35.112,4.1-53.4-20.489Z" fill="#fff"/>
    <path id="path3197" d="M1591.869,2370.2l36.367,50.356,29.466-72.472-19.748-3.262s-5.463,16.472-19.018,23.75c-13.558,7.3-27.068,1.631-27.068,1.631Z" fill="#fff"/>
    <path id="path3199" d="M1551.662,2344.834s3.656,13.924,19.016,14.739,43.16-1.631,46.818-12.293c3.658-10.642,3.825-12.089.73-9.01-6.581,6.564-20.482,12.293-33.649,12.293s-35.842-10.662-32.915-5.728Z" fill="#f4b891"/>
    <path id="path3201" d="M1686.675,2290.482c-.743-1.937,4.166-21.324,7.738-25.34,3.571-4,4.167-23.343-7.143-35.33-11.311-12.007-11.311-2.018-8.932,3.323s-5.951,4-3.571,10.682c2.38,6.666,6.548,12.659,2.38,13.985-4.166,1.346-4.166,3.343-4.166,7.339,0,4.016-13.691,10.01-10.717,19.347s9.526,20,12.5,18,13.695-7.339,11.908-12.008Z" fill="#26231f"/>
    <path id="path3203" d="M1684.9,2233.656c.682,1.019,10.248,18.287,7.971,23.811s-10.246,25.5-9.109,28.051c1.137,2.569,6.452,16.595,6.452,16.595l-8.346,7.5s-6.455-15.575-9.112-16.86-5.312-11.477-1.9-14.882,9.87-11.906,11.766-16.574c1.9-4.689,0-31.048,2.277-27.644Z" fill="#f4b891"/>
    <path id="path3205" d="M1485.558,2310.9c.741-1.937-4.167-21.324-7.74-25.34-3.572-4-4.167-23.342,7.143-35.329,11.312-12.007,11.312-2.018,8.93,3.323s5.955,4,3.573,10.682c-2.382,6.666-6.55,12.659-2.382,13.985,4.17,1.346,4.17,3.343,4.17,7.339,0,4.016,13.693,10.01,10.714,19.347s-12.98,21.731-15.953,19.733-10.241-9.072-8.453-13.74Z" fill="#26231f"/>
    <path id="path3207" d="M1487.331,2254.069c-.682,1.019-10.246,18.287-7.968,23.811s10.244,25.5,9.107,28.051c-1.139,2.569-6.45,16.595-6.45,16.595l4,6.789s10.8-14.862,13.453-16.146,5.312-11.477,1.9-14.882-9.867-11.906-11.766-16.574c-1.9-4.689,0-31.048-2.277-27.644Z" fill="#f4b891"/>
    <path id="path3209" d="M1527,2379.061s26.187,52.29,30.362,52.719,26.189-48.458,25.048-48.03-23.149,37.837-25.426,34.861S1526.243,2376.94,1527,2379.061Z" fill="#26231f"/>
    <path id="path3211" d="M1605.189,2388.422s18.934,42.343,23.151,41.242c9.054-2.365,26.948-72.7,26.187-71.432-.759,1.284-23.909,63.358-25.8,59.1-1.9-4.241-23.533-31.884-23.533-28.907Z" fill="#26231f"/>
    <path id="path3213" d="M1641.643,2218.357s19.353-27.2,25.806-26.773l-1.52-5.1s-21.249,16.158-24.665,16.158-2.657,17,.379,15.718Z" fill="#161413"/>
    <path id="path3215" d="M1484.485,2227.718c2.626-.448,19.735-8.929,20.115-4.668.379,4.24-2.278,11.906-2.278,11.906s-14.8-3.4-18.6-.428S1479.552,2228.574,1484.485,2227.718Z" fill="#161413"/>
    <path id="path3217" d="M1563.827,2217.079s12.146-10.642,15.941-4.261.379,6.381.379,6.381-9.486-3.4-14.8,4.261S1560.033,2217.935,1563.827,2217.079Z" fill="#161413"/>
    <path id="path3219" d="M1366.71,2545.7s-5.034,10.642,2.237,8.766,200.779-45.114,212.524-41.345c11.745,3.751,15.1-7.523,13.422-7.523s-201.9,23.179-201.9,23.179-25.726,12.517-26.285,16.92Z" fill="#e20415"/>
    <path id="path3221" d="M1632.9,2511.848c-1.116,1.406,0,7.523,5.594,8.155,5.591.612,190.709,8.134,192.388,5.015,1.678-3.139,3.354-10.03,1.678-10.03s-195.188-8.786-199.662-3.139Z" fill="#e20415"/>
    <path id="path3223" d="M1590.426,2521.91s-1.678,8.766,6.15,10.03c7.833,1.243,27.4,1.875,30.2-.632s6.151-8.766,6.151-8.766-3.917-13.8-4.475-11.294,2.8,6.911-2.237,11.294-10.066,6.259-20.691,3.751-8.392-8.766-10.068-9.4-7.272-1.244-5.032,5.015Z" fill="#e20415"/>
    <path id="path3225" d="M1606.509,2473.744s110.353-103.074,219.225-74.063l11.467,23.2s-32.6-17.1-79.936-5.015c-47.337,12.069-122.811,40.589-126.79,46.706s-23.963,9.174-23.963,9.174Z" fill="#26231f"/>
    <path id="path3227" d="M1619.5,2468.383s108.753-91.268,203.93-65.441l1.286,5.4s-66.2-28.092-205.217,60.038Z" fill="#fefbde"/>
    <path id="path3229" d="M1622.055,2488.961s100.856-61.935,195.732-39.346-.745,4.2-21.663,8.379,17.183,12.558,13.447,12.558-29.884-2.507-29.884-2.507l-.747,10.03s30.631.836,27.641,5.872c-2.988,5.015,5.977,13.373-9.711,8.358s-23.9,4.179-23.9,4.179-137.463-15.065-150.91-7.522Z" fill="#ede5b0"/>
    <path id="path3231" d="M1597.4,2491.476s-73.96-93.718-203.2-65.276l-1.492,23.424s43.329-9.195,50.8-1.672c7.472,7.543-35.114,11.722-35.114,11.722l2.244,10.05s41.088-4.179,43.329,0-47.065,7.523-50.8,11.7c-3.736,4.2,0,11.722,0,11.722s172.569-15.9,194.235-1.672Z" fill="#ede5b0"/>
    <path id="path3233" d="M1591.457,2398.567s2.988,56.084,6.723,56.084,4.483.836,4.483.836-9.713-65.275-11.205-56.917Z" fill="#26231f"/>
    <path id="path3235" d="M1796.616,2446.238c0,.612-10.121,1.04-26.446,1.631-16.3.693-38.888,1.427-63.35,5.953a203.053,203.053,0,0,0-33.835,9.255,159.886,159.886,0,0,0-26.115,12.538c-14.283,8.623-22.025,16.044-22.422,15.473-.155-.2,1.6-2.263,5.132-5.565a121.89,121.89,0,0,1,16-12.477,143.822,143.822,0,0,1,26.285-13.6,184.751,184.751,0,0,1,34.339-9.745c24.825-4.587,47.585-4.852,63.931-4.791,16.376.163,26.48.775,26.482,1.325Z" fill="#26231f"/>
    <path id="path3237" d="M1800.616,2464.177c-.119.612-9.731-1.651-25.519-1.957-15.76-.408-37.609,1.06-61.4,5.4-23.788,4.3-44.925,10.682-59.721,16.757-14.854,5.973-23.242,11.722-23.53,11.192-.293-.428,7.746-7.156,22.574-13.944,14.758-6.87,36.051-13.781,60.076-18.123,24.023-4.4,46.166-5.4,62.1-4.24,15.979,1.081,25.552,4.4,25.408,4.913Z" fill="#26231f"/>
    <path id="path3239" d="M1788.616,2486.569c-.132.591-7.2-1.019-18.754-2.548a304.68,304.68,0,0,0-45.288-2.65c-17.7.326-33.634,2.772-44.681,6.462-11.118,3.547-17.082,8.236-17.395,7.706-.335-.367,5.307-6.116,16.583-10.52,11.174-4.526,27.466-7.5,45.424-7.828a218.861,218.861,0,0,1,45.745,3.914c11.58,2.283,18.5,4.933,18.366,5.464Z" fill="#26231f"/>
    <path id="path3241" d="M1589.106,2479.888c-.393.53-8.55-8.032-24.554-16.7-15.888-8.807-39.465-17.145-66.228-22.139a387.025,387.025,0,0,0-69.21-6.544c-17.815-.082-28.82,1.121-28.882.489-.071-.51,10.9-2.752,28.844-3.425a318.816,318.816,0,0,1,69.878,5.341c27.051,5.056,50.925,14.005,66.8,23.648,16.015,9.52,23.688,19.041,23.357,19.326Z" fill="#26231f"/>
    <path id="path3243" d="M1580.405,2477.62c-.113.51-10.323-1.753-26.249-7.726-7.968-2.956-17.278-7.033-27.65-11.09a135.982,135.982,0,0,0-34.552-8.929,202.037,202.037,0,0,0-35.623-.55c-10.983.693-20.865,1.835-29.161,2.833-16.588,2.1-26.849,3.649-26.937,3.038-.082-.53,10.024-3.119,26.594-5.953,8.288-1.407,18.2-2.854,29.284-3.751a182.943,182.943,0,0,1,36.233.224,130.3,130.3,0,0,1,35.306,9.459c10.443,4.3,19.584,8.644,27.394,11.926,15.582,6.646,25.507,9.908,25.361,10.519Z" fill="#26231f"/>
    <path id="path3245" d="M1543.951,2475.393c-.108.591-7.391-.693-19.126-2.67-11.73-1.917-27.961-4.546-45.952-4.648a197.615,197.615,0,0,0-45.754,5.321c-11.591,2.65-18.7,4.831-18.865,4.22-.142-.49,6.7-3.67,18.27-7.115a161.184,161.184,0,0,1,46.364-6.6c18.352.1,34.731,3.262,46.4,5.932,11.678,2.732,18.765,5.036,18.663,5.565Z" fill="#26231f"/>
    <path id="path3247" d="M1458.629,2223.512c.148.245-.146.876-.954,1.692a8.344,8.344,0,0,1-4.306,2.385,5.762,5.762,0,0,1-3.769-.51,7.872,7.872,0,0,1-3.21-3.343,17.558,17.558,0,0,1-1.58-9.765,21.33,21.33,0,0,1,2.941-9.092,12.9,12.9,0,0,1,5.533-5.137,8.4,8.4,0,0,1,4.714-.71c1.1.2,1.651.567,1.634.873,0,.693-2.386.754-5.065,2.67a12.719,12.719,0,0,0-3.7,4.526,20.915,20.915,0,0,0-2.067,7.339,15.422,15.422,0,0,0,.819,7.278c.81,1.876,2.038,2.67,3.509,2.711a11.293,11.293,0,0,0,3.776-.734c.959-.305,1.558-.448,1.722-.183Z" fill="#f5b700"/>
    <path id="path3249" d="M1429.515,2283.1c.242-.163.923.8,2.288,2.2a11.265,11.265,0,0,0,6.643,3.608,8.335,8.335,0,0,0,4.786-.917,8.717,8.717,0,0,0,3.827-4.2,11.875,11.875,0,0,0,.668-6.728,18.583,18.583,0,0,0-.415-1.855,22.089,22.089,0,0,0-1.518-3.853c-1.565-3.017-4.017-7.257-5.683-10.3l4.564,3.343c1.623,1.162,3.3,2.467,4.708,3.364a18.906,18.906,0,0,0,2.126,1.182l.915.408.453.163a8.285,8.285,0,0,0,1.753.408,4.217,4.217,0,0,0,2.892-.612c1.6-1.06,2.506-3.649,2.768-6.177.519-5.117-.743-10.213-2.77-13.231a5.552,5.552,0,0,0-3.492-2.589,5.683,5.683,0,0,0-3.352.551c-1.882.877-2.89,1.753-3.092,1.488-.158-.183.419-1.488,2.348-3.037a6.836,6.836,0,0,1,4.277-1.509,7.466,7.466,0,0,1,5.463,3.038,18.78,18.78,0,0,1,3.389,6.87,25.988,25.988,0,0,1,.91,8.848,17.634,17.634,0,0,1-1.057,4.954,9.775,9.775,0,0,1-3.3,4.526,7.678,7.678,0,0,1-5.343,1.325,11.526,11.526,0,0,1-2.541-.551l-.728-.265-.021-.021c-.008-.021-.021-.021-.025,0s-.033-.1.1.428a23.066,23.066,0,0,1,.479,2.365,16.016,16.016,0,0,1-1.3,9.316,11.724,11.724,0,0,1-5.74,5.626,10.341,10.341,0,0,1-6.461.632,11.939,11.939,0,0,1-7.343-5.525c-1.141-1.916-1.372-3.16-1.167-3.282Z" fill="#f5b700"/>
    <path id="path3251" d="M1411.412,2284.255c.125.224-.9,1.345-3.183,2.65a16.965,16.965,0,0,1-10.807,2.141,15.527,15.527,0,0,1-7.351-3.242,16.441,16.441,0,0,1-5.62-8.277,12.453,12.453,0,0,1-.255-6.116,9.155,9.155,0,0,1,3.509-5.423c3.472-2.446,7.364-2.385,10.905-1.957l17.247,2.1-17.229,2.365-.422.041a31.881,31.881,0,0,1-10.5.041,12.293,12.293,0,0,1-5.165-2.222,8.111,8.111,0,0,1-3.068-5.708,12.28,12.28,0,0,1,1-5.728,21,21,0,0,1,2.4-4.241,29.492,29.492,0,0,1,5.656-5.851,28.547,28.547,0,0,1,9.866-5.2c2.5-.693,3.944-.653,3.991-.367.062.326-1.25.856-3.474,2.018a39.033,39.033,0,0,0-8.656,6.075,30.21,30.21,0,0,0-4.741,5.586c-1.387,2.161-2.641,4.954-2.364,7.217a3.806,3.806,0,0,0,1.572,2.67,9.058,9.058,0,0,0,3.656,1.407,31.313,31.313,0,0,0,9.331-.143l.4-.061.016,4.464c-3.09-.448-6.251-.265-8.27,1.183-2.026,1.345-2.542,4.016-1.86,6.646a13.194,13.194,0,0,0,4.069,6.5,13.7,13.7,0,0,0,5.853,3.1,17.994,17.994,0,0,0,9.756-.632c2.317-.754,3.6-1.346,3.749-1.04Z" fill="#f5b700"/>
    <path id="path3253" d="M1429.515,2249.368c-.058.571-1.127,1.121-2.937.877a7.909,7.909,0,0,1-6.015-4.73,8.532,8.532,0,0,1-.586-4.954,7.44,7.44,0,0,1,1.614-3.466c1.374-1.55,2.593-1.692,2.9-1.223.36.489-.138,1.549-.522,2.956a6.828,6.828,0,0,0,.193,4.709,9.573,9.573,0,0,0,3.323,3.69c1.183.877,2.1,1.488,2.027,2.14Z" fill="#f5b700"/>
    <path id="path3255" d="M1421.474,2213.408c-.025.551-1.795,1.223-4.792.53a10.067,10.067,0,0,1-4.883-2.874,10.48,10.48,0,0,1-2.772-7.461,9.517,9.517,0,0,1,3.516-7.188,8.464,8.464,0,0,1,5.407-1.79c3.109.132,4.643,1.378,4.528,1.91-.107.656-1.884.608-4.239,1.254a7.837,7.837,0,0,0-3.447,1.92,5.962,5.962,0,0,0-1.753,4.077,7.006,7.006,0,0,0,1.436,4.4,10.483,10.483,0,0,0,3.161,2.752c2.188,1.284,3.885,1.794,3.836,2.467Z" fill="#f5b700"/>
    <path id="path3257" d="M1563,2171.8c.377.426.016,1.739-1.287,3.382a8.094,8.094,0,0,1-3.017,2.365,4.174,4.174,0,0,1-5.573-2,9.009,9.009,0,0,1-.721-5.476,12.782,12.782,0,0,1,1.136-3.684c.948-1.91,1.956-2.734,2.437-2.46.5.283.422,1.6.264,3.439-.076.921-.16,1.99-.153,3.083a6.872,6.872,0,0,0,.471,2.774c.149.242.164.247.268.32a1.324,1.324,0,0,0,.8.033,9.969,9.969,0,0,0,2.386-.938C1561.5,2171.866,1562.609,2171.347,1563,2171.8Z" fill="#f5b700"/>
    <path id="path3259" d="M1709.562,2194.274c.238-.62,2.315.1,5.411.377a9.221,9.221,0,0,0,4.894-.791,6.252,6.252,0,0,0,3.194-4.518,9.09,9.09,0,0,0-4.586-9.671c-2.69-1.446-4.892-1.576-4.9-2.263-.058-.508,2.082-1.67,5.853-.732a10.2,10.2,0,0,1,5.7,4.23,12.719,12.719,0,0,1,1.851,9.4,9.754,9.754,0,0,1-5.751,7.411,10.029,10.029,0,0,1-6.766.065c-3.536-1.231-5.118-3.015-4.9-3.507Z" fill="#f5b700"/>
    <path id="path3261" d="M1682.469,2187.511c.088-.656,1.864-.734,4.33-1.321a10.518,10.518,0,0,0,3.784-1.7,6.7,6.7,0,0,0,2.517-3.873,5.85,5.85,0,0,0-.564-4.338,3.208,3.208,0,0,0-2.779-1.474c-2.253.029-3.978.934-4.273.339-.149-.249.047-.781.646-1.46a6.967,6.967,0,0,1,3.23-2.028,5.65,5.65,0,0,1,2.892-.067,5.791,5.791,0,0,1,3.078,1.973,9.578,9.578,0,0,1,1.658,8.179,9.572,9.572,0,0,1-9.968,7.625c-3.05-.206-4.637-1.3-4.55-1.851Z" fill="#f5b700"/>
    <path id="path3263" d="M1750.759,2255.018c.142.183-.5,1.2-2.08,2.65a19.852,19.852,0,0,1-7.873,4.3,16.169,16.169,0,0,1-6.321.571,10.26,10.26,0,0,1-7.151-3.71,8.722,8.722,0,0,1-1.765-4.974,12.852,12.852,0,0,1,.932-5.2,16.724,16.724,0,0,0,.715-1.672c0-.041.054-.1-.025-.041l-.118.082-.029.021h0c-.029,0,.08,0-.151.021-.315.041-.633.061-.957.082a10.012,10.012,0,0,1-7.607-2.833,10.287,10.287,0,0,1-2.926-5.912,10.538,10.538,0,0,1,1.181-6.5,11.1,11.1,0,0,1,4.038-4.159,15.148,15.148,0,0,1,4.679-1.794l7.218-1.57-5.621,5.26a15.575,15.575,0,0,1-7.378,4.1,9.832,9.832,0,0,1-7.656-1.549c-4.3-2.936-5.862-8.7-4.3-12.578a8,8,0,0,1,3.2-3.934,9.1,9.1,0,0,1,3.148-1.244c1.762-.326,2.706-.123,2.728.1.033.265-.881.53-2.38,1.244a7.7,7.7,0,0,0-4.514,4.75c-.815,2.65.559,6.707,3.727,8.583a6.971,6.971,0,0,0,5.372.775,12.719,12.719,0,0,0,5.6-3.466l1.6,3.669c-2.488.591-4.937,1.916-6.073,4.1a5.769,5.769,0,0,0,1.023,6.768,6.312,6.312,0,0,0,4.806,1.733,3.9,3.9,0,0,0,.681-.061,4.728,4.728,0,0,0,.664-.1c.273-.061.535-.1.813-.184a12.829,12.829,0,0,0,1.744-.612l.941-.428,1.145-.632,10.5-5.953-7.938,9.092c-.641.754-1.285,1.468-1.822,2.161a21.519,21.519,0,0,0-1.354,1.937,14.8,14.8,0,0,0-1.309,2.446c-1.014,2.344-1.028,4.567.067,6.1a7.83,7.83,0,0,0,4.952,2.813,15.677,15.677,0,0,0,5.438-.021,23.439,23.439,0,0,0,7.638-2.834c1.716-.979,2.646-1.611,2.806-1.386Z" fill="#f5b700"/>
    <path id="path3265" d="M1725.645,2180.789c-.06-.355,1.4-.9,3.786-2.257a44.809,44.809,0,0,0,4.2-2.73,26.672,26.672,0,0,0,3.745-3.1l-.335-.283-.167-.147-.6-.63-2.5-2.642-5.394-5.794-2.868-3.119a8.186,8.186,0,0,1-1.623-2.43,11.2,11.2,0,0,1-.761-2.846,28.422,28.422,0,0,0-.57-4.226,1.4,1.4,0,0,0-.572-.758,2.623,2.623,0,0,0-.577-.279l-.375-.116-.106-.029-.246-.045c-.167-.029-.32-.065-.521-.082a27.244,27.244,0,0,0-5.265.173l-5.476.452,4.832-3.73a23.8,23.8,0,0,0,4.02-3.549l.546-.685.293-.406c.189-.273.373-.548.541-.834a13.207,13.207,0,0,0,.881-1.753,13.775,13.775,0,0,0,.815-7.5c-.219-.836.237-.485-.7-.679a27.294,27.294,0,0,0-3.3-.149,23.236,23.236,0,0,0-5.831.826,17.315,17.315,0,0,0-7.485,4.226c-1.527,1.486-2.237,2.548-2.486,2.385-.2-.12.064-1.49,1.4-3.514a16.58,16.58,0,0,1,7.778-6,23.418,23.418,0,0,1,6.461-1.5,27.534,27.534,0,0,1,3.682-.082c.234,0,.8.055,1.334.1.517.043,1.112.136,1.676.2a8.4,8.4,0,0,1,.586,1.767c.089.312.176.624.247.948l.148.665a18.065,18.065,0,0,1-.806,10.056,17.761,17.761,0,0,1-1.136,2.387c-.219.381-.45.752-.693,1.119l-.375.536-.166.22,0,.008c0,.025,0,.029.008.029l.021-.008.228.057a6.719,6.719,0,0,1,.7.214,6.213,6.213,0,0,1,1.432.724,5.827,5.827,0,0,1,2.195,2.919,25.173,25.173,0,0,1,.759,5.225,6.709,6.709,0,0,0,.393,1.645,3.865,3.865,0,0,0,.821,1.246l2.792,3.213L1742,2173.106a44.471,44.471,0,0,1-7.176,5.031,27.65,27.65,0,0,1-4.775,2.143c-2.737.889-4.359.809-4.4.508Z" fill="#f5b700"/>
    <path id="path3267" d="M1688.49,2161.655c-.211.487-2.06.428-4.526-1.627a9.357,9.357,0,0,1-3.008-5.325,10.392,10.392,0,0,1,1.7-7.718,9.159,9.159,0,0,1,6-3.994,6.913,6.913,0,0,1,5.563,1.533,7.568,7.568,0,0,1,2.244,3.162c.3.876.282,1.441.055,1.6-.488.392-1.691-1.1-3.725-2.016a4.984,4.984,0,0,0-3.458-.208,7.044,7.044,0,0,0-4.728,6.978,7.909,7.909,0,0,0,1.367,3.741c1.405,2.09,2.8,3.286,2.515,3.873Z" fill="#f5b700"/>
    <path id="path3269" d="M1596.158,2165.036c.482.153.755,2.018-.344,4.915a8.4,8.4,0,0,1-3.585,4.285,6.321,6.321,0,0,1-6.85-.587,9.842,9.842,0,0,1-3.693-6.036,10.951,10.951,0,0,1,.382-5.706c1.108-2.978,2.659-3.951,3.048-3.616.491.365-.12,2.02-.293,4.385a10.127,10.127,0,0,0,.43,3.833,6.736,6.736,0,0,0,2.308,3.366,3.348,3.348,0,0,0,3.2.561,6.442,6.442,0,0,0,2.639-2.163c1.412-1.845,2.2-3.433,2.755-3.235Z" fill="#f5b700"/>
    <path id="path3271" d="M1466.629,2225.738c-.088-.632,1.554-1.345,3.782-2.833a17.209,17.209,0,0,0,6.561-7.5,6.176,6.176,0,0,0,.233-4.567,6.249,6.249,0,0,0-2.648-2.854c-2.186-1.3-3.978-1.814-3.913-2.467.029-.551,1.811-1.284,4.914-.51a7.884,7.884,0,0,1,4.881,3.812,10.041,10.041,0,0,1,.216,8.379,15,15,0,0,1-9.138,8.644c-2.943.917-4.827.489-4.888-.1Z" fill="#f5b700"/>
    <path id="path3273" d="M1437.515,2226.893c.089.591-.448,1.3-1.54,1.815a5.416,5.416,0,0,1-2.135.469,3.874,3.874,0,0,1-1.649-.346,3.685,3.685,0,0,1-1.744-1.55,4.529,4.529,0,0,1-.557-2.406,5.67,5.67,0,0,1,.353-1.774,6.751,6.751,0,0,1,1.179-2.038c.83-.938,1.607-1.244,2.076-.917.484.306.564,1.2.47,2.324l-.16,1.733a2.2,2.2,0,0,0,.016.591h.041c.021-.021-.187.041.4.265.457.163,1,.306,1.478.469.961.326,1.676.734,1.765,1.366Z" fill="#f5b700"/>
    <path id="path3275" d="M1446.588,2185.284c-.268.128-.673-.292-1.279-.993a11.151,11.151,0,0,0-2.517-2.4,3.98,3.98,0,0,0-3.915-.149,12.744,12.744,0,0,0-4.581,3.894,16.117,16.117,0,0,0-2.921,5.649,5.069,5.069,0,0,0-.138,2.2,2.016,2.016,0,0,0,.813,1.276,8.306,8.306,0,0,0,3.061,1.089c.861.19,1.394.361,1.438.683.044.289-.389.708-1.312,1.06a6.125,6.125,0,0,1-4.362.063,4.909,4.909,0,0,1-2.734-2.8,8.409,8.409,0,0,1-.389-4.409,17.286,17.286,0,0,1,3.516-7.757,13.888,13.888,0,0,1,6.486-4.892,6.9,6.9,0,0,1,3.786-.161,6.253,6.253,0,0,1,2.95,1.713,8.584,8.584,0,0,1,2.2,4.128c.229,1.062.142,1.7-.1,1.812Z" fill="#f5b700"/>
    <path id="path3277" d="M1750.759,2224.625c-.171-.612,2.173-1.346,4.319-4.138a7.345,7.345,0,0,0,1.578-5.3,3,3,0,0,0-1.343-2.079c-.058-.041-.073-.061-.16-.123l-.426-.183a3.017,3.017,0,0,0-.986-.346l-1.307-.224-1.849-.061-8.213-.306,8.166-3.71c.568-.265,1.074-.51,1.512-.734a9.194,9.194,0,0,0,1.239-.754,9.652,9.652,0,0,0,1.037-.815,3.643,3.643,0,0,0,.444-.428,7.244,7.244,0,0,0,1.163-1.549,5.772,5.772,0,0,0,.71-3.4,5.149,5.149,0,0,0-3.518-4.432,7.684,7.684,0,0,0-4.413.186c-1.119.324-1.8.564-1.967.3-.149-.238.219-.97,1.278-1.865a7.493,7.493,0,0,1,5.58-1.753,7.118,7.118,0,0,1,4.042,1.888,8.838,8.838,0,0,1,2.646,4.966,10.137,10.137,0,0,1-.955,6.32,11.542,11.542,0,0,1-1.813,2.609l-.464.469h-.041c-.012.021-.021.021-.021.041.071.061-.215-.143.431.346a7.194,7.194,0,0,1,2.73,5.137,9.228,9.228,0,0,1-.948,4.852,9.962,9.962,0,0,1-2.282,3.078,9.017,9.017,0,0,1-4.386,2.283c-1.112.184-1.733,0-1.782-.265Z" fill="#f5b700"/>
    <path id="path3279" d="M1749.728,2256.131c.16-.653,2.138-.387,5.038-.673,2.826-.245,6.854-1.407,9.309-4.852a6.958,6.958,0,0,0,1.4-5.1,5.62,5.62,0,0,0-2.4-3.547c-2.328-1.59-4.384-2.018-4.308-2.711.016-.285.517-.571,1.465-.714a8.6,8.6,0,0,1,4.055.551,8.019,8.019,0,0,1,4.759,5.321,10.782,10.782,0,0,1-1.827,8.99,12.782,12.782,0,0,1-6.477,4.77,13.06,13.06,0,0,1-6.064.469c-3.391-.571-5.1-1.977-4.946-2.507Z" fill="#f5b700"/>
    <path id="path3281" d="M1583.086,2154.892c-.222-.106-.195-.72-.082-1.745a16.2,16.2,0,0,0,.125-4.055,2.468,2.468,0,0,0-2.835-2.41,9.322,9.322,0,0,0-3.03.644l-.823.326-.482.216c-.315.132-.6.3-.908.447-1.207.6-2.486,1.36-3.744,2.041l-.271-3.977-.213-1.957-.16-.909a14.062,14.062,0,0,0-1.045-3.325,4.272,4.272,0,0,0-2.632-2.551,4.354,4.354,0,0,0-3.358.781,10.021,10.021,0,0,0-4.009,6.2,13.353,13.353,0,0,0,.087,5.626c.291,1.386.531,2.216.287,2.4-.213.163-.9-.33-1.716-1.69a11.758,11.758,0,0,1-1.467-6.807,12.942,12.942,0,0,1,4.827-9.221,7.609,7.609,0,0,1,6.115-1.611c2.426.454,4.4,2.556,5.4,4.729a17.821,17.821,0,0,1,1.4,4.559l.171,1.1c.012.09,0,.037,0,.065l-.025.1a.12.12,0,0,0,.076.025c.008,0,.029,0,.025,0l.448-.163c.344-.116.686-.229,1.032-.32a11.22,11.22,0,0,1,4.211-.436,5.644,5.644,0,0,1,3.918,2.043,6.036,6.036,0,0,1,1.159,3.929,10.69,10.69,0,0,1-1.33,4.695c-.522.942-.952,1.345-1.148,1.248Z" fill="#f5b700"/>
    <path id="path3283" d="M1522.878,2176.294c-.082.33-1.01.406-2.666.279a9.967,9.967,0,0,1-3.146-.714,6.1,6.1,0,0,1-2.128-1.5,20.048,20.048,0,0,1-2.184-2.952l2.051-1.827,1.041-.893.686-.571a16.8,16.8,0,0,1,3.291-2.112c.311-.153.644-.277.97-.414l.419-.143.033-.025a.158.158,0,0,0,.045-.053c0-.029-.029-.037-.058-.051l-.047-.012s.008,0,.008,0c-.016-.025.044.061,0,0l-.147-.192c-.1-.127-.193-.273-.284-.414a6.331,6.331,0,0,1-.511-.934,6.117,6.117,0,0,1-.553-2.328,5.888,5.888,0,0,1,1.585-4.159,7.933,7.933,0,0,1,2.7-1.878,11.278,11.278,0,0,1,9.509.477,11.716,11.716,0,0,1,4.737,4.489c.781,1.374.932,2.279.715,2.44-.244.182-.839-.385-1.867-1.26a13.54,13.54,0,0,0-4.6-2.7,9.476,9.476,0,0,0-7.069.375c-1.165.548-1.944,1.649-1.776,2.022a1.379,1.379,0,0,0,.149.481,1.879,1.879,0,0,0,.193.33,2.049,2.049,0,0,0,.127.175l.073.092c.033.033.169.206.242.267a11.009,11.009,0,0,0,2.708,1.912c1.338.64,2.959,1.341,4.887,2.188l12.394,5.46-16-2.567c-4.7-.921-6.652.057-7.254.261a15.052,15.052,0,0,0-2.764,1.468l-.653.438c-.237.167-.148.076-.244.133l-.364.175c.037.306.016.614,1.01,1.352a15.446,15.446,0,0,0,2.471,1.3c1.514.685,2.353,1.254,2.271,1.584Z" fill="#f5b700"/>
    <path id="path3285" d="M1625.272,2151.551c.51-.116,1.474,1.761,2.035,5.2a23.771,23.771,0,0,1,.128,6.228c-.073.6-.162,1.207-.3,1.831-.06.312-.134.626-.222.938l-.125.475-.246.7c-.179.5-.348.989-.586,1.543-.262.465-.306,1.341-.979,1.081q-.808-.012-1.623-.063a7,7,0,0,1-.819-.073l-.524-.082a12.157,12.157,0,0,1-6.517-3.674,17.607,17.607,0,0,1-3.33-5.129c-1.345-3.207-1.436-5.4-.948-5.61.535-.245,1.582,1.5,3.349,3.906,1.755,2.377,4.446,5.421,8.108,6.069l.306.049.008,0,0,.008c.008,0,0,.061.062-.078a.429.429,0,0,0,.049-.116l.118-.359c.082-.236.158-.477.219-.72.142-.477.249-.96.357-1.435a38.125,38.125,0,0,0,.679-5.321c.193-3.154.228-5.254.8-5.38Z" fill="#f5b700"/>
    <path id="path3287" d="M1647.334,2153.778c-1.145.025-1.76-3.875-4.047-5.722-2.26-1.981-5.844-1.994-5.989-3.274-.093-.593.664-1.378,2.2-1.8a6.912,6.912,0,0,1,6.232,1.5,8.422,8.422,0,0,1,2.8,6.528c-.078,1.8-.659,2.77-1.194,2.766Z" fill="#f5b700"/>
    <path id="path3289" d="M1479.7,2166.15s-15.926,57.449-4.883,57.449,21.95-19.224,21.95-19.224,1-39.351-2.007-42.722-11.045-1.125-15.06,4.5Z" fill="#26231f"/>
    <path id="path3291" d="M1648.819,2139.18s2.55,32.594,7.569,38.216,23.675,18.745,23.675,18.745-.61-44.607-14.7-55.589c-5.209-4.063-14.534-14.868-16.543-1.372Z" fill="#26231f"/>
    <path id="path3293" d="M1482.795,2168.005s-13.478,50.785-6.128,48.034c7.352-2.732,14.092-6.85,14.705-16.472.613-9.6,3.065-30.19-.613-30.877a50.983,50.983,0,0,0-7.964-.685Z" fill="#239828"/>
    <path id="path3295" d="M1654.922,2141.943c0,3.433-.613,31.573,4.29,35s17.151,17.157,15.932,9.609-1.84-25.389-6.745-31.566-7.962-21.277-11.638-14.413-1.838-2.061-1.838,1.37Z" fill="#239828"/>
    <path id="path3297" d="M1485.228,2174.191l-4.9,31.562s4.288,2.752,6.126-5.484,6.739-37.058-1.225-26.078Z" fill="#acc700"/>
    <path id="path3299" d="M1659.829,2149.489l3.676,27.45,7.351,2.059s-9.191-42.545-11.027-29.509Z" fill="#acc700"/>
    <path id="path3301" d="M1602.261,2381.453c0,6.442-4.666,11.681-10.417,11.681s-10.416-5.239-10.416-11.681,4.665-11.661,10.416-11.661S1602.261,2375.011,1602.261,2381.453Z" fill="#26231f"/>
    <path id="path3303" d="M1599.5,2381.453c0,4.363-3.156,7.889-7.047,7.889s-7.045-3.527-7.045-7.889,3.154-7.89,7.045-7.89S1599.5,2377.09,1599.5,2381.453Z" fill="#f0e31f"/>
  </g>
</svg>
