<svg xmlns="http://www.w3.org/2000/svg" width="296.175" height="366.58" viewBox="0 0 296.175 366.58">
  <g id="Layer_1" transform="translate(0 0.144)">
    <g id="g13" transform="translate(0.018 -0.028)">
      <path id="path15" d="M200.8,129.26c.529-.354,2.529-1,6.236-1.294,3.649-.354,8.593-1,15.3-1.295a82.936,82.936,0,0,1-7.887-8.18c-2.176-2.707-2.588-5.884-4.883-7.473-2.531-1.766-5.945-1.707-9.3-2.53-3.532-1.177-6.885.353-10.946-3.119-4.117-3.472-8.473-9.3-13.3-17.477l9.652-12.063a149.189,149.189,0,0,1,23.715,11.122c6.706,3.942,12.768,9.474,16.594,12.769,3.529,3,1.941,3.943,5.473,6,3.471,1.823,10.768,3.765,15.3,5.826a51.886,51.886,0,0,1,10.886,6.237c2.944,2,5.179,4.3,6.062,6.885.647,2.707-.176,5.473-2.235,8.945l-69.968,23.3q4.605-13.785,9.31-27.66Z" transform="translate(-1.818 -2.242)" stroke="#000" stroke-miterlimit="10" stroke-width="0.036" fill-rule="evenodd"/>
      <path id="path17" d="M202.8,130.67c.942-.176,3.179-.471,6.944-.883,3.708-.412,8.532-1.294,14.947-2a59.63,59.63,0,0,1-4.766-6c-1.531-2.236-2.707-5-4.18-6.944-1.589-2.059-2.236-3.707-4.883-4.942-2.944-1.472-8-2.589-11.3-3.589-3.355-1.059-4.943.353-8.415-2.589-3.591-3.237-7.768-8.415-12.769-16.183l8.592-8.768A125.267,125.267,0,0,1,207.035,87.3a66.679,66.679,0,0,1,13.476,9.886c3.354,2.884,3.472,4.473,6.709,8.18,3,3.648,10.769,13.3,11.71,14.006.824.353-6.649-9.122-6.768-10.711-.234-1.647,3.3.353,5.826,1.236a55.956,55.956,0,0,1,8.592,3.295,41.294,41.294,0,0,1,8.531,5.3c2.355,1.824,5.063,3.884,5.827,6.179.587,2.06,1.235,4.179-2.178,6.591-3.708,2.177-9.3,4.061-19.478,7.474-10.416,3.354-23.95,7.943-41.722,13.3a49.248,49.248,0,0,1,1.59-11.3,43.55,43.55,0,0,1,3.66-10.09Z" transform="translate(-1.818 -2.269)" fill="#ffc080" stroke="#000" stroke-miterlimit="10" stroke-width="0.036" fill-rule="evenodd"/>
      <path id="path19" d="M135.71,125.67c1.06-3.295,1.884-8.532,2.236-16.359.237-7.826.237-17.831-.236-30.247.473,3.59,4.062,6.238,10.77,8.18,6.827,1.825,16.3,2.884,29.366,3.177-3.3,4.06-5.769,9.475-7.416,16.477a107.1,107.1,0,0,0-2.825,25.068c-10.58-2.07-21.24-4.18-31.89-6.3Z" transform="translate(-0.973 -2.132)" stroke="#000" stroke-miterlimit="10" stroke-width="0.036" fill-rule="evenodd"/>
      <path id="path21" d="M137.71,124.2c.649-2.118,1.238-6.179,1.531-12.829.235-6.649.353-15.476.353-26.716,2,2.354,5.884,4.061,11.888,5.355a133.852,133.852,0,0,0,23.773,2.06c-2.707,2.06-4.825,6.179-6.354,12.594a134.92,134.92,0,0,0-3.3,25.479c-9.29-1.94-18.59-3.94-27.89-5.94Z" transform="translate(-0.97 -2.233)" fill="#ffc080" stroke="#000" stroke-miterlimit="10" stroke-width="0.036" fill-rule="evenodd"/>
      <path id="path23" d="M132.36,77l.353,3.943a8.73,8.73,0,0,1-3.529-3,39.811,39.811,0,0,1-3.885-6.649A15.814,15.814,0,0,1,126,74.708c.178,1.176.118,4-.411,3.707-.881-.588-2.412-2.824-4.59-6.943a15.621,15.621,0,0,1-.471,4.119c-.294.823-.587,1-1.118.764a39.454,39.454,0,0,1-7.826-16.241,58.948,58.948,0,0,1-1.295-21.89c.942-7.532,2.59-15.889,7.416-21.891,4.707-6.237,12.71-11.475,20.6-14.123C146.012-.438,155.841-.556,163.9.916A46.665,46.665,0,0,1,185.44,10.39c5.178,4.531,7.767,9.592,9.828,17.654,1.823,7.885,3.117,19.889,2.059,29.657a82.939,82.939,0,0,1-8.18,27.894l2.824-12.829a25.235,25.235,0,0,1-2.648,6.3,20.627,20.627,0,0,1-4.414,4.648,34.992,34.992,0,0,0,2.592-5.59,52,52,0,0,0,1.822-6.826A51.811,51.811,0,0,1,183.2,84.24a109.2,109.2,0,0,1-10.357,12.123c-3,2.883-4.942,4.354-7.649,5.531-2.767,1.177-5.237,2.707-9.238.941-4.354-2.177-11.828-8.709-15.829-13a33.486,33.486,0,0,1-7.76-12.823Z" transform="translate(-0.959 0.028)" stroke="#000" stroke-miterlimit="10" stroke-width="0.036" fill-rule="evenodd"/>
      <path id="path25" d="M152.19,98.187a37.078,37.078,0,0,1-7.414-5.943c-2.883-2.883-6.59-6.649-8.886-10.416a44.29,44.29,0,0,1-5.178-12.593,73.563,73.563,0,0,1-2.236-16.182c3.884-.588,7.65-2.53,11.77-5.355a85.045,85.045,0,0,0,12.3-12.181,193.346,193.346,0,0,0,12.888-17.595,23.7,23.7,0,0,1,10.532,1.766c3.531,1.471,7.238,2.707,10.24,6.649,2.706,3.59,5.943,7.885,6.3,15.594.177,7.886-2.589,22.95-4.648,30.659-2.413,7.237-5.062,9.415-8.18,13.534-3.119,4.061-6.472,8.239-9.828,10.946a21.558,21.558,0,0,1-10,4.295,9.656,9.656,0,0,1-7.65-3.173Z" transform="translate(-1.006 0.028)" fill="#ffc080" stroke="#000" stroke-miterlimit="10" stroke-width="0.036" fill-rule="evenodd"/>
      <path id="path27" d="M138.3,49.875c.589-.413,4-2.354,6.827-2.414,2.472-.059,8.532.883,9.12,1.471.589.294-3.236.53-5.354.707-2.236-.177-5.708-.177-7.474-.236a10.721,10.721,0,0,0-3.13.472Z" transform="translate(-0.9 0.028)" stroke="#000" stroke-miterlimit="10" stroke-width="0.036" fill-rule="evenodd"/>
      <path id="path29" d="M174.85,45.932c.353-.412,2.823-.764,5.354-.823,2.414.176,7,.235,8.063.823.705.118-2.06.588-3.53.765a52.788,52.788,0,0,1-6.121-.058c-1.82-.295-4.06-.531-3.76-.707Z" transform="translate(-1.124 0.028)" stroke="#000" stroke-miterlimit="10" stroke-width="0.036" fill-rule="evenodd"/>
      <path id="path31" d="M187.38,50.816a33.443,33.443,0,0,0-7.826-.293,53.433,53.433,0,0,0-9.532,1.294c-.706.117,1,.412,5.354.236a3.805,3.805,0,0,0,1.412,1.941,5.72,5.72,0,0,0,2.53,1,11.007,11.007,0,0,0,2.472-1.471,6.83,6.83,0,0,0,1.236-1.942,18.078,18.078,0,0,0,3.354.177c.66-.059,1.07-.589,1.01-.942Z" transform="translate(-1.108 0.028)" stroke="#000" stroke-miterlimit="10" stroke-width="0.036" fill-rule="evenodd"/>
      <path id="path33" d="M157.78,53.17a12.432,12.432,0,0,0-8,.234c-2.766.883-7.237,4.414-8.179,5.356-1,.824.765-.119,1.883-.354a37.086,37.086,0,0,0,3.708-1.883q1.764,3.707,3.354,3.354c1.06-.353,1.824-1.942,2.766-5,1.588-.647,2.765-1,3.53-1.295.65-.352,1.12-.411.94-.411Z" transform="translate(-0.922 0.028)" stroke="#000" stroke-miterlimit="10" stroke-width="0.036" fill-rule="evenodd"/>
      <path id="path35" d="M168.2,53.4a74.612,74.612,0,0,0,.823,11.77c.472,2.824,1.766,3.942,2.062,5.414,0,1.412-.178,2.413-1.178,3-1.117.588-2.883.53-5.3.295h0c1.119.293,4.18,1.765,5.768,1.47,1.354-.53,1.884-2.118,2.06-3.825-.117-1.825-1.589-3.414-2.178-6.355a117.355,117.355,0,0,1-2.05-11.77Z" transform="translate(-1.037 0.028)" stroke="#000" stroke-miterlimit="10" stroke-width="0.036" fill-rule="evenodd"/>
      <path id="path37" d="M163.78,65.469c.118.117-.941,1.176-.941,2.235-.293,1,.884,3.061.589,3.708-.472.353-1.766-.177-2.059-.883-.471-.941-.06-2.647.353-3.53a2.751,2.751,0,0,1,2.06-1.53Z" transform="translate(-1 0.028)" stroke="#000" stroke-miterlimit="10" stroke-width="0.036" fill-rule="evenodd"/>
      <path id="path39" d="M156.02,84.947c.118.177,2.413.882,3.708,1.471,1,.471,1.707,2,2.764,2.295,1,.177,3.12-.353,3.179-.706-.234-.47-2.942-1.059-4-1.53-1.058-.589-1.528-1.825-2.353-1.884-1.13-.353-3.36,0-3.3.354Z" transform="translate(-0.992 -1.977)" stroke="#000" stroke-miterlimit="10" stroke-width="0.036" fill-rule="evenodd"/>
      <path id="path41" d="M130.95,75.826a48.625,48.625,0,0,1-3.765-15.889c-.53-5.826-.53-12.3,1.117-17.83,1.472-5.649,5.06-11.24,8.533-15.182A27.285,27.285,0,0,1,148.9,18.156c4.825-1.824,10.239-2.412,16.711-2a11.827,11.827,0,0,0-7.237-4.473,31.2,31.2,0,0,0-12.063-.177A52.691,52.691,0,0,1,158.547,9.27a21.669,21.669,0,0,1,9.062,1.119,27.794,27.794,0,0,0-11.3-3.884,34.4,34.4,0,0,0-13.183,1.118,29.846,29.846,0,0,1,7.592-3,108.946,108.946,0,0,1,11.533-2.589,40.914,40.914,0,0,0-16.888-.353,48.329,48.329,0,0,0-16.36,6.473c-4.531,2.647-7.531,5.179-10.357,9.827a45.185,45.185,0,0,0-6.53,17.83,71.788,71.788,0,0,0,.765,21.89,43.483,43.483,0,0,0,6.295,16.419l1.119-4.473a15.692,15.692,0,0,1,1.707,2.119c.764,1.06,2.589,4.943,3,4.413.353-.824-.058-3.413-1-8.415a44.9,44.9,0,0,0,4.471,6.649c1.14,1.3,1.96,1.766,2.49,1.414Z" transform="translate(-0.848 0.028)" fill="#ffff80" stroke="#000" stroke-miterlimit="10" stroke-width="0.036" fill-rule="evenodd"/>
      <path id="path43" d="M165.37,2.21A31.893,31.893,0,0,1,176.9,6.094c3.649,2,8.179,4.531,11.121,8.533,3,3.942,4.943,9,6.532,15.417a105.619,105.619,0,0,1,2,22.479,81.956,81.956,0,0,1-3.3,20.6l.177-5.767a23.458,23.458,0,0,0-1.706,3.531,23.651,23.651,0,0,0-1.06,2.412,25.191,25.191,0,0,0,.529-3.884,12,12,0,0,0-.353-3.118c1.117-5.414,2.06-10.18,2.589-14.3.53-4.237,1.058-6.885.706-10.416a43.361,43.361,0,0,0-3.707-11.122c-1.647-3.177-3.471-6.12-6.12-8.18-2.941-2.235-7.827-4.06-10.593-5-2.883-1.117-4.708-1.412-5.942-1.117a13.47,13.47,0,0,0-3.885-3.885,8.182,8.182,0,0,0-4.235-1.353,32.066,32.066,0,0,1,5.942.412,23.635,23.635,0,0,1,5.178,1.118,10.262,10.262,0,0,0-5.767-5.414c-2.884-1.236-6.59-1.765-11.122-1.824,2.119-.647,3.942-.941,5.944-1.53,1.89-.412,3.66-1.119,5.54-1.472Z" transform="translate(-1.103 0.028)" fill="#ffff80" stroke="#000" stroke-miterlimit="10" stroke-width="0.036" fill-rule="evenodd"/>
      <path id="path45" d="M160.66,81.357c-1.53-.235-3.178.53-3.119.942,0,.353,2.178.824,3.354,1.412.942.471,1.353,1.118,2.589,1.472,1.234.059,3.354.353,4.531-.235,1.059-.766,1.53-2.824,1.647-3.236-.235-.413-1.177.117-1.883.469-.646.06-1.354.942-2.354.825-1.18-.3-3.59-1.59-4.77-1.649Z" transform="translate(-1.01 -1.901)" fill="#b80000" fill-rule="evenodd"/>
      <path id="path47" d="M156.19,82.534c-.059-.354,3.943-2,5.414-2,1.234-.059,1.705,1.589,2.765,1.766.942,0,2.412-1.236,3.531-1.413a7.682,7.682,0,0,1,3.235-.235c.768,0,2,.353,1.884.589a21.987,21.987,0,0,0-3.354.588c-1.706.471-4.061,1.825-5.474,2-1.41-.176-1.295-1.53-2.588-1.825a47.324,47.324,0,0,0-5.4.53Z" transform="translate(-1.018 -1.879)" stroke="#000" stroke-miterlimit="10" stroke-width="0.036" fill-rule="evenodd"/>
      <path id="path49" d="M165.55,16.568q-.353.089-3.706,4.589c-2.531,2.943-6.651,8.828-10.063,12.888-3.532,3.766-5.826,6.826-10.3,10.062a118.074,118.074,0,0,1-16.477,8.533c-2.413.647-.118-2.237,2.118-4.354,2-2.413,8.121-6.238,10.417-8.532,2.059-2.413,3-4.59,2.589-4.708-.471-.176-3.472,2.531-5.59,3.825a52.787,52.787,0,0,1-8.061,3,45.911,45.911,0,0,1,7.06-15.653,24.506,24.506,0,0,1,10.946-8.65c4.236-2.06,11.651-3.061,15.241-3.237,3.47-.236,5.41.588,5.82,2.236Z" transform="translate(-0.888 0.028)" fill="#ffff80" fill-rule="evenodd"/>
      <path id="path51" d="M128.95,42.107a11.591,11.591,0,0,0,3.472-.882c1.352-.589,3.824-2.767,4.236-2.472.058.118-1.824,1.766-3.12,3.119-1.529,1-2.882,2.354-4.944,3.589.11-1.118.23-2.236.35-3.354Z" transform="translate(-0.816 0.028)" fill="#ffc080" stroke="#000" stroke-miterlimit="10" stroke-width="0.036" fill-rule="evenodd"/>
      <path id="path53" d="M147.941,104.306a169.725,169.725,0,0,0-15.732-7.071c-6.143-2.339-14.565-5.532-19.421-6.73-4.913-1.2-5.088-1.425-8.888-.684-4.037.4-9.77,1.255-13.571,3.879-3.919,2.565-6.61,6.158-8.716,11.863-2.047,5.647-2.809,16.539-3.392,21.9-.818,5.19-1.229,7.015-.76,9.183.351,1.881,1.521,3.079,3.275,2.965-.468,7.871-1.17,16.313-2.341,25.78-1.229,9.41-2.748,19.391-4.561,30.4a126.34,126.34,0,0,0-9.242,24.125c-2.866,9.639-6.841,23.042-7.428,33.2-.759,9.75-.233,18.08,3.626,26.292,3.919,8.213,10.355,15.687,19.769,22.642-5.5,1.6-9.767,2.794-13.509,3.591-3.626.628-6.143-.056-8.481,1.028-2.631,1.027-3.452,3.592-6.55,5.3a73.548,73.548,0,0,1-12.107,4.049c-6.083,1.312-16.377,2.853-22.285,4.62-5.789,1.655-9.944,3.821-11.99,5.817q-3.161,2.739-.7,5.647C2.3,333.925.78,335.635.605,337.233c-.293,1.6.525,2.738,2.69,4.047-2.164.911-3.334,2.11-3.275,3.367-.059,1.141,1.111,2.565,3.275,4.05a6.453,6.453,0,0,0-2.34,3.194,4.562,4.562,0,0,0,.352,3.537c.584.74,1.4,1.082,2.925,1.023-1.989,1.542-3.216,3.137-3.451,4.793-.351,1.537.117,3.933,1.637,4.79,1.4.8,2.455.743,7.429-.4,5.089-1.426,15.206-4.9,22.46-7.587,7.02-2.68,13.569-5.359,19.886-8.267,6.55-.742,11.523-1.6,15.793-2.339,4.1-.913,3.45-1.94,8.655-2.625,4.972-.74,11.875-1.2,21.585-1.6,9.649-.455,21.757-1.028,35.853-1.252,13.921-.344,33.339-.858,47.2-.687,13.57-.171,24.916.857,34.276.687,9.125-.23,15.616-.858,20.821-2.112,5.088-1.311,8.306-2.11,10.119-6.159,1.636-4.391.583-14.259,0-19.277a28.784,28.784,0,0,0-3.978-10.382c-1.228-2.224-2.4-3.308-3.274-3.022a31.514,31.514,0,0,0,8.363-10.094c2.048-4.1,4.035-9.3,4.152-14.258.059-5.248-1.344-10.322-3.976-16.084,4.5-1.826,10.7-3.137,18.833-4.162a279.4,279.4,0,0,1,29.537-1.94,71.682,71.682,0,0,0-4.912-21.9,90.581,90.581,0,0,0-12.283-21.044c7.079-8.326,10.763-17,11.057-26.635.174-9.753-3.043-19.848-9.652-30.913l7.429-4.049.175-2.11-1.756-.4c-.291.284-.291-.285,0-1.939.236-1.654.763-4.164,1.581-7.756a26.248,26.248,0,0,0-7.2-3.537,34.558,34.558,0,0,0-8.89-1.768c-2.4-.171-4.153.056-5.264.912a3.675,3.675,0,0,1-2.339-.741,23.5,23.5,0,0,1-3.8-2.967c-.586-.969-2.106-1.825-4.564-2.339a51.774,51.774,0,0,0-10.118-1.2c-10.941,3.421-20.473,6.958-28.837,10.38-8.306,3.478-15.44,6.616-21.173,10.094a52.231,52.231,0,0,1,1.813-7.756c.878-3.308,2.223-7.129,3.8-11.692a49.676,49.676,0,0,0-10.879-6.9,51.243,51.243,0,0,0-12.458-4.049c-.233-1.6-1.287-2.851-2.924-4.391a30.339,30.339,0,0,0-7.429-4.448l-6.14,16.255a64.321,64.321,0,0,0-5.442-11.806,20.2,20.2,0,0,0-6.14-6.558l-1.869-.969Z" transform="translate(-0.018 0.028)" stroke="#000" stroke-miterlimit="10" stroke-width="0.036" fill-rule="evenodd"/>
      <path id="path55" d="M122.3,94.95a67.77,67.77,0,0,1,5.061,7.474q2.649,4.413,5.651,10.239a28.372,28.372,0,0,1,13.121-1.117,23.143,23.143,0,0,1,11.3,5.119,15.864,15.864,0,0,0-6-8.591c-3.294-2.472-8.061-3.942-12.944-6-5.01-2.235-10.19-4.531-16.19-7.12Z" transform="translate(-0.855 -2.337)" fill="#d0c4ff" stroke="#000" stroke-miterlimit="10" stroke-width="0.036" fill-rule="evenodd"/>
      <path id="path57" d="M163.84,124.49c.058-.294.588-1.471,1.589-4q1.326-3.707,4.06-10.769a37.861,37.861,0,0,1,5.65,4.767,28.55,28.55,0,0,1,4.177,5.473,37.252,37.252,0,0,1,3.06,6.885,48.565,48.565,0,0,0-7.236-3.06,13.371,13.371,0,0,0-5.65-1.119,11.467,11.467,0,0,0-5.65,1.83Z" transform="translate(-1.073 -2.67)" fill="#d0c4ff" stroke="#000" stroke-miterlimit="10" stroke-width="0.036" fill-rule="evenodd"/>
      <path id="path59" d="M163.43,137.26a35.778,35.778,0,0,1,.413-6.591c.117-1.942.236-3.472,1.235-4.354.823-.941,2-1.647,4.413-1.471a24.166,24.166,0,0,1,9.651,1.648,11.042,11.042,0,0,1,5.3,6c1.295,2.942,1.647,8.708,2.883,12.063,1.295,3.119,3.179,4.119,4.531,7.3a54.078,54.078,0,0,1,2.588,12,23.635,23.635,0,0,1-5.472,9.3c-2.765,2.766-6.354,6.591-10.769,7.65-4.59.942-10.122-.882-16.357-1.648-6.414-1-17.185-2.294-21.186-3.648-4.236-1.413-2.236-2.825-3.06-4.884a45.272,45.272,0,0,1-1.649-8.416c-.587-3.412-.528-7.237-1.647-11.475a80.759,80.759,0,0,0-6.177-13.945c-.118-1.707-.237-3.649-.589-5.826a56.7,56.7,0,0,0-1.413-7.474c-1-3.53-4.06-12.063-4.412-12.651-.589-.53.881,5.178,1.47,9.65.53,4.3,1,9.769,1.648,16.418-3.295-2.294-7.238-3.354-11.828-3.648-4.884-.294-11,.883-15.889,2.177-4.885,1.118-10.18,4.06-12.946,4.531-2.825.294-3.767-.529-4.178-2.706-.589-2.531.411-6.473.941-11.122.294-4.767-.234-11.239,1.589-16.241,1.766-5.061,4.766-10.945,8.769-13.829,3.824-3.119,9.709-4.061,14.24-4.178A20.352,20.352,0,0,1,117,94.773c3.062,1.824,4.533,4.237,7.122,7.885a120.968,120.968,0,0,1,7.826,13.3,23.541,23.541,0,0,1,9.827-2.589,21.246,21.246,0,0,1,9.65,1.825,16.543,16.543,0,0,1,6.179,5.295,24.6,24.6,0,0,1,4,7.12,7.045,7.045,0,0,0-1.061,3.649,15.134,15.134,0,0,0,.531,4.884c.77.35,1.54.7,2.36,1.11Z" transform="translate(-0.801 -2.8)" fill="#d0c4ff" stroke="#000" stroke-miterlimit="10" stroke-width="0.036" fill-rule="evenodd"/>
      <path id="path61" d="M180.79,119.37a36.264,36.264,0,0,1,9.474,2.942,61.556,61.556,0,0,1,10.181,5.826,24.525,24.525,0,0,0-3.648,7.473c-.824,2.825-1.059,7.062-1.647,9.3-.649,2.06-1.766,3.237-2.707,3.3a19.1,19.1,0,0,1-4.178-6.591c-1.179-2.707-1.179-6.12-1.825-8.886a52.083,52.083,0,0,0-2-7.708,17.583,17.583,0,0,0-3.63-5.65Z" transform="translate(-1.187 -3.006)" fill="#d0c4ff" stroke="#000" stroke-miterlimit="10" stroke-width="0.036" fill-rule="evenodd"/>
      <path id="path63" d="M86.931,140.97a71.118,71.118,0,0,1,14-4.355,43.394,43.394,0,0,1,13.652-1.294,29.587,29.587,0,0,1,12.064,3.824,62.633,62.633,0,0,1,5.12,12.239c1.118,4.354,1.941,9.3,2.705,13.476a83.21,83.21,0,0,0,1.648,9.828c.764,2.824,2.177,6.354,2.884,6.944.587.471.706-1.06.587-4.355,4.119,1.118,8.65,2,13.829,2.883,5.12.883,11.709,1.766,16.6,2.177,4.473.235,7.886.294,11.121-.529,3.178-1,5.767-3.3,8-5.3a35.677,35.677,0,0,0,4.943-7.473c1.06-2.413,1.412-4.708,2.176-6.885.59-2.531.471-5,2.178-6.944s5.532-3.707,7.826-4.178q3.092-.882,4.768.707c.648-.118,1.941-.354,3.648-.707,1.647-.412,5.061-1.883,6.59-1.883,1.354-.294,3,0,2,.883a49.4,49.4,0,0,1-8.238,4.12c5.237-1.825,9.944-4.473,12.356-4.649,2.474-.177,1.706.765.413,2.118-1.355,1.353-4.885,2.177-8.826,5,5.412-2.707,7.942-3.708,10.179-4.061,2.3-.412,2.354,1,.529,2.648-1.824,1.707-3.413,1-8.532,4.943,4.885-2.236,8.18-3.531,8.826-3.295,0,0,1.766.882.59,2-1.118,1.059-3.237,1.235-5.414,2.765s-5.414,2.59-8.121,4.355c-2.766,1.765-6.178,3.295-7.827,5.826s-.233,6.355-1.823,9.3c-1.705,2.941-4.061,5.118-8.062,8.179a137.106,137.106,0,0,1-15.653,10c-5.59,3.18-8.592,6.944-17.653,8.77-9.122,1.823-21.066,2.529-36.485,2.177-4-4.945-8.355-10.592-13.3-17.83-5.06-7.239-11.358-16.418-16.181-25.009a246.974,246.974,0,0,1-13.149-26.43Z" transform="translate(-1.034 -3.938)" fill="#ffc080" stroke="#000" stroke-miterlimit="10" stroke-width="0.036" fill-rule="evenodd"/>
      <path id="path65" d="M194.8,151.21a134.974,134.974,0,0,1,13.476-7.121,191.809,191.809,0,0,1,19.123-8.532c6.769-2.708,14.006-5.062,21.715-7.3,4.235.883,7.591,1.825,9.826,3.06,2.236,1.059,3.591,2.413,3.825,3.826l-31.9,14.416,36.662-12.769a21.088,21.088,0,0,1,8.355-1.059,22.64,22.64,0,0,1,7.3,2.353c1.648.648,2.355,1.647,2.355,2.354-1.589.177-7.945,3.3-19.3,9.121-11.416,5.885-27.422,14.3-48.488,25.716l-5.827-4.413c3.238-2.06,6.65-4.061,10.005-6,3.53-2,8.531-4.472,10.238-5.826,1.295-1.589.648-2.471-2.178-3.119,1.707-1.471,2.414-2.647,2.354-3.295-.236-.706-1.294-1.118-3.178-1,.766-1.707.766-2.589,0-2.883-.882-.412-2.294,0-4.708,1,.472-1.412-.352-1.942-2.471-1.824-2.236.118-5.591,1-10.3,2.647-.354-1.118-1.473-1.647-3.119-1.353-1.825.059-5.355,1.764-7.182,2.589a12.157,12.157,0,0,0-3.94,2.235l-2.65-2.83Z" transform="translate(-1.818 -3.413)" fill="#e0e0e0" stroke="#000" stroke-miterlimit="10" stroke-width="0.036" fill-rule="evenodd"/>
      <path id="path67" d="M219.04,176.69c7.178-4,16.006-8.768,27.127-14.534,11.121-5.885,23.832-12.3,39.014-19.89L285,149.74l-66.142,32.423c.06-1.82.12-3.65.18-5.47Z" transform="translate(-1.818 -3.707)" fill="#e0e0e0" stroke="#000" stroke-miterlimit="10" stroke-width="0.036" fill-rule="evenodd"/>
      <path id="path69" d="M216.86,176.51l-6-4.178a5.02,5.02,0,0,0-1.295,2.942,3.206,3.206,0,0,0,.883,2.53l6.06,3.826c.12-1.71.24-3.41.36-5.12Z" transform="translate(-1.316 -4.118)" fill="#e0e0e0" stroke="#000" stroke-miterlimit="10" stroke-width="0.036" fill-rule="evenodd"/>
      <path id="path71" d="M83.105,141.97c-.295-.06-.588,2.883-1.118,8.59-.53,5.826-1.354,17.359-2,25.715-.708,8.121-1.707,15.831-2.531,23.126,4.237-1.06,9.77-.47,16.6,2,6.708,2.413,16.3,8.062,24.009,12.18,7.592,3.825,14.711,8.062,21.361,11.123,6.414,2.707,9.945,4.354,16.947,6.06a201.286,201.286,0,0,0,24.243,4.179c.414-3.059-.354-6.768-1.647-11.123-1.354-4.53-3.884-9.415-6.944-15.3a182.38,182.38,0,0,1-26.244,4,60.068,60.068,0,0,1-18.419-1.293q-8.826-11.737-16.946-23.833c-5.649-8.355-11.535-17.3-15.829-25.009a127.551,127.551,0,0,1-9.475-20.949c-.647.17-1.293.34-2,.52Z" transform="translate(-0.734 -4.392)" fill="#d0c4ff" stroke="#000" stroke-miterlimit="10" stroke-width="0.036" fill-rule="evenodd"/>
      <path id="path73" d="M78.045,201.75a64.19,64.19,0,0,0-7.413,13.831,107.515,107.515,0,0,0-7.355,20.889,118.179,118.179,0,0,0-3.238,25.187,69.431,69.431,0,0,0,2.944,20.949c1.647,5.414,3.825,8,7.413,12.064a80.247,80.247,0,0,0,13.535,12.063c10-3.589,19.477-6.651,29.363-9.827,9.651-3.177,15.241-3.943,28.836-8.652,13.473-4.766,30.48-11.18,51.725-19.478q-2.388-.618-9.358.53c-4.882.647-18.241,3.823-18.712,3.649-.411-.352,10.3-4.592,15.771-5.647a51.93,51.93,0,0,1,15.3-1.235,58.882,58.882,0,0,0-11.357-2.708c-4.118-.706-12.709-.591-12.828-1-.059-.588,7.061-1.767,11.827-1.706,4.591.058,12.181,1.175,15.536,2.471,3.061,1.061,4.3,3.059,3.473,4.649-.883,1.472,1.235,1-8.416,4.709-10.063,3.646-38.307,13.477-50.254,17.476-11.886,4-18.713,5.766-20.712,5.945a28.251,28.251,0,0,1,10.827,2.7c3.532,1.532,7.592,2.769,9.886,6.888,1.944,3.941,2.767,9.768,2.237,17.243,7.945-2.178,17.008-4.473,27.834-6.414,10.887-2.063,25.834-4.473,36.189-5.888,10.063-1.468,17.89-1.646,23.715-3.234,5.531-1.765,6.826-3.531,9.592-7.356a57.275,57.275,0,0,0,6.121-16.3,23.092,23.092,0,0,0-1.178-13.3c-2-4.647-4.179-9.239-10.356-13.533-6.237-4.3-17.243-9.3-26.892-12.3-9.945-3.355-20.244-4.237-31.541-6.71-11.594-2.472-26.306-5.18-35.955-8.12-9.652-3.118-14.889-6.475-21.187-9.826-6.529-3.474-11.767-7.535-17.3-10.356a92.026,92.026,0,0,0-16.477-6.417c-4.763-1.33-8.469-1.74-11.588-1.22Z" transform="translate(-1.028 -8.779)" fill="gray" stroke="#000" stroke-miterlimit="10" stroke-width="0.036" fill-rule="evenodd"/>
      <path id="path75" d="M119.94,334.1a25.729,25.729,0,0,1,.469,6.887,42.486,42.486,0,0,1-1.47,7.883c19.36-.938,36.073-1.587,51.019-1.941,14.771-.411,27.187-.587,37.483-.529,10.241-.352,17.6.178,23.893-.707,6.237-.823,10.356-2.471,13.063-4.7,2.354-2.707,2.236-6.475,2.178-10.359a46,46,0,0,0-2.412-13.062,14.644,14.644,0,0,0-5.944-7.355,195.422,195.422,0,0,0-23.893,2.7c-10.825,1.65-26.538,4.474-38.954,7.122-12.592,2.589-25.3,5.529-34.719,8.12-9.3,2.43-16.13,4.19-20.72,5.96Z" transform="translate(-1.275 -8.779)" fill="gray" stroke="#000" stroke-miterlimit="10" stroke-width="0.036" fill-rule="evenodd"/>
      <path id="path77" d="M121.65,297.14c-4.12,1.353-9.3,3.233-15.77,5.409-6.708,2.179-16.536,5.945-22.656,7.887-5.943,1.883-9.534,2.413-13.3,3.412-4,.592-7.59.355-10.122,1.534-2.648,1.234-1.883,4.41-5.179,6.119-3.646,1.468-8.648,2.41-14.769,3.706s-15.829,2.941-20.95,4.473a35.875,35.875,0,0,0-9.59,4.176c-2.178.941-2.651.823-3,1.944a5.124,5.124,0,0,0,.529,3.939c.353.648,1,.827,1.942.53a9.626,9.626,0,0,0-4.943,2.943,3.38,3.38,0,0,0-.234,3.707,6.116,6.116,0,0,0,2.941,2.943c-1.765.294-2.825.7-3.415,1.472a2.67,2.67,0,0,0,0,2.94,5.629,5.629,0,0,0,3.18,1.766c-2.06,1.884-3.119,3.588-3.415,4.885a2.726,2.726,0,0,0,1.472,3c.825.471,2.059.294,3.706-.292a12.979,12.979,0,0,0-3.235,3.588c-1,1.178-1.647,2.944-1.235,3.942.293.824.234,2.3,3.942,1.472,3.764-1,12.358-4.648,18.476-6.886,5.885-2.528,12.3-4.531,17.007-6.884a72.791,72.791,0,0,0,10.593-6.65c3.177-2.646,5.472-6.589,9.357-8.647,3.707-2.063,5.354-2,13.357-3.71,7.884-1.941,22.479-4.473,34.012-7.355,11.534-2.823,22.714-6.12,34.482-9.65,1.295-6.118,1.06-10.652-.471-14.3-1.588-3.706-5.472-5.235-9.121-7.119a47.826,47.826,0,0,0-13.59-4.29Z" transform="translate(-0.018 -8.779)" fill="#ffc080" stroke="#000" stroke-miterlimit="10" stroke-width="0.036" fill-rule="evenodd"/>
      <path id="path79" d="M114.76,334.45c-3.237.587-7.709,1.41-14.064,2.7-6.354,1.121-17.653,3.062-23.42,4.473a48.023,48.023,0,0,0-11.3,3.413,13.989,13.989,0,0,0-5.708,3.942,57.9,57.9,0,0,0-6.65,6.887c4.591-.824,8.944-1.647,12.828-2.707,3.767-1.178,6.238-2.765,10.357-3.413,3.943-.7,7.65-.647,14.065-.767,6.414-.293,14.3-.7,24.126-1,1.824-2.765,2.648-5,2.708-7.355a9.009,9.009,0,0,0-2.95-6.17Z" transform="translate(-0.43 -8.779)" fill="#ffc080" stroke="#000" stroke-miterlimit="10" stroke-width="0.036" fill-rule="evenodd"/>
      <path id="path81" d="M279.65,157.21c-7.121,3.237-15.241,7.356-25.3,12.122-10.123,4.885-21.244,10.181-34.308,16.536L209.8,180.219c-.234,3.061-2,6.061-4.824,9-3.061,2.942-7.77,5.12-12.77,8.357-5.063,3.176-11.063,6.353-17.771,10.239,1.529,3.531,3,6.589,4.178,9.415a66.19,66.19,0,0,1,2.707,6.944c.883,3,1.646,6.769,2.53,11.3a98.8,98.8,0,0,1,16.771,2.708,136.982,136.982,0,0,1,20.066,6.059,81.36,81.36,0,0,1,16.125,8.358,49.638,49.638,0,0,1,11.3,10.475c6.71-1.533,14.006-2.708,22.127-3.768,8.062-1.06,16.714-1.823,26.187-2.3a84.244,84.244,0,0,0-3.591-15.3,96.4,96.4,0,0,0-6.236-13.357,81.711,81.711,0,0,0-7.532-11.3c-2.766-.884-5.886-.591-9.826.645-4,1.239-12.712,6.711-13.418,6.65-.646-.294,5.238-5.884,9-7.707,3.473-1.883,11.828-2.414,12.122-3.18-.177-1-6.12-2-11.476-2.292-5.473-.529-13.828-1.12-20.3-.412-6.708.527-19.065,4.058-18.653,3.764.471-.53,14.183-5.941,21.6-6.708,7.3-1.118,16.655.587,21.951,1.06,5.178.352,7.942,1,8.767,1.705a37.2,37.2,0,0,0-9.179-5.884,56.221,56.221,0,0,0-12.122-3.943,29.848,29.848,0,0,1,9.826.412c2.824.531,5.179,1.941,7.709,3.356A47.414,47.414,0,0,1,282,208.878a37.192,37.192,0,0,0,5.416-10.238,44.411,44.411,0,0,0,2.117-12.536,47.653,47.653,0,0,0-2.529-13.593,83.9,83.9,0,0,0-7.38-15.3Z" transform="translate(-1.818 -5.11)" fill="#804000" stroke="#000" stroke-miterlimit="10" stroke-width="0.036" fill-rule="evenodd"/>
      <path id="path83" d="M79.4,163.62c.177.354-2.589.942-7.649,1.766-5.415.705-12.887,1.765-23.539,2.941a89.9,89.9,0,0,0-5.3,22.421c-.881,6.883-1.47,9.122,1.179,19.417s7.473,24.008,14.711,41.782c.292-5.122,1.765-11.653,4.647-20.244a330.384,330.384,0,0,1,12.417-30.834c1.531-14.182,2.708-23.892,3.3-30.247s.588-8.48.233-7.01Z" transform="translate(-0.018 -4.986)" stroke="#000" stroke-miterlimit="10" stroke-width="0.036" fill-rule="evenodd"/>
      <path id="path85" d="M78.751,165.56c-1,8.179-2.118,15.005-2.884,20.713-1,5.591-.942,8.062-2.294,12.829-1.531,4.591-4.472,9.945-6.12,15.123A148.1,148.1,0,0,0,63.1,229.349c-1.353,5.472-3,11.417-4.294,17.83-1.649-4.3-3.3-9.65-5.59-16.945-2.236-7.355-6.592-18.715-7.593-26.128-1.117-7.535.177-13.24.942-18.714a78.883,78.883,0,0,1,3.06-15.123,119.282,119.282,0,0,0,13.3-1.412c4.885-.75,10.006-1.93,15.83-3.29Z" transform="translate(-0.325 -4.936)" fill="#804000" stroke="#000" stroke-miterlimit="10" stroke-width="0.036" fill-rule="evenodd"/>
    </g>
  </g>
</svg>
