<?xml version="1.0" encoding="UTF-8"?>
<!DOCTYPE svg PUBLIC "-//W3C//DTD SVG 1.1//EN" "http://www.w3.org/Graphics/SVG/1.1/DTD/svg11.dtd">
<svg version="1.1" xmlns="http://www.w3.org/2000/svg" xmlns:xlink="http://www.w3.org/1999/xlink" x="0" y="0" width="1669" height="1269" viewBox="0, 0, 1669, 1269">
  <g id="Layer_1">
    <path d="M1060.96,860.45 C1048.88,889.138 1014.52,907.779 983.561,936.044 C965.318,952.708 965.545,981.372 943.959,990.052 C909.764,991.251 869.967,985.966 855.764,950.45 C850.967,938.447 823.092,889.111 785.561,894.654 C729.842,902.868 823.748,926.552 778.361,916.251 C748.584,909.49 744.166,891.052 724.361,874.849 C746.568,849.654 764.084,828.501 796.361,811.251 C829.76,793.415 861.166,778.849 867.166,734.45 C881.568,787.251 920.428,757.685 947.561,770.45 C978.166,784.849 1041.9,799.204 1078.96,777.654 C1081.36,820.849 1071.26,835.99 1060.96,860.45" fill="#C9905F"/>
    <path d="M1060.96,860.45 C1048.88,889.138 1014.52,907.779 983.561,936.044 C965.318,952.708 965.545,981.372 943.959,990.052 C909.764,991.251 869.967,985.966 855.764,950.45 C850.967,938.447 823.092,889.111 785.561,894.654 C729.842,902.868 823.748,926.552 778.361,916.251 C748.584,909.49 744.166,891.052 724.361,874.849 C746.568,849.654 764.084,828.501 796.361,811.251 C829.76,793.415 861.166,778.849 867.166,734.45 C881.568,787.251 920.428,757.685 947.561,770.45 C978.166,784.849 1041.9,799.204 1078.96,777.654 C1081.36,820.849 1071.26,835.99 1060.96,860.45 z" fill-opacity="0" stroke="#1A1919" stroke-width="5.669" stroke-linecap="round" stroke-linejoin="round"/>
    <path d="M925.83,792.618 C879.975,814.509 840.635,821.911 801.631,846.138 C790.982,852.747 769.951,874.497 753.904,892.954 C747.053,900.829 741.482,909.786 737.404,913.954 C721.842,929.857 652.459,976.958 626.404,993.454 C617.943,998.81 665.768,1037.36 696.248,1030.68 C734.65,1022.28 774.307,962.654 795.084,950.329 C816.588,937.575 839.908,933.443 863.467,923.966 C921.857,900.49 962.154,895.896 980.381,842.939 C998.326,790.79 977.51,767.95 925.83,792.618" fill="#F5C6AE"/>
    <path d="M925.83,792.618 C879.975,814.509 840.635,821.911 801.631,846.138 C790.982,852.747 769.951,874.497 753.904,892.954 C747.053,900.829 741.482,909.786 737.404,913.954 C721.842,929.857 652.459,976.958 626.404,993.454 C617.943,998.81 665.768,1037.36 696.248,1030.68 C734.65,1022.28 774.307,962.654 795.084,950.329 C816.588,937.575 839.908,933.443 863.467,923.966 C921.857,900.49 962.154,895.896 980.381,842.939 C998.326,790.79 977.51,767.95 925.83,792.618 z" fill-opacity="0" stroke="#1A1919" stroke-width="5.669" stroke-linecap="round" stroke-linejoin="round"/>
    <path d="M546.764,1123.25 C536.139,1101.71 544.967,1096.25 537.166,1063.85 C531.518,1040.4 513.654,1013.37 533.404,967.954 C546.143,938.658 575.111,931.286 592.959,948.654 C604.857,960.22 613.924,984.783 612.904,1000.954 C635.107,992.552 652.631,977.247 666.904,963.454 C687.904,946.204 723.436,999.935 705.002,1034.85 C682.314,1051.46 665.814,1055.83 656.041,1067.85 C640.436,1087.01 637.139,1113.84 614.561,1128.65 C591.506,1143.78 561.904,1153.95 546.764,1123.25" fill="#FFFFFE"/>
    <path d="M546.764,1123.25 C536.139,1101.71 544.967,1096.25 537.166,1063.86 C530.885,1037.79 520.525,1015.99 526.607,988.388 C528.822,978.337 532.615,954.708 545.299,952.888 C556.623,951.267 567.096,966.384 569.068,975.786 C571.365,986.728 567.264,998.966 569.369,1009.95 C571.49,1021.04 578.744,1030.25 584.451,1039.97 C600.014,1066.44 615.963,1101.92 595.42,1129.81 C581.084,1149.29 557.334,1144.67 546.764,1123.25" fill="#F2F1F0"/>
    <path d="M546.764,1123.25 C536.139,1101.71 544.967,1096.25 537.166,1063.85 C531.518,1040.4 513.654,1013.37 533.404,967.954 C546.143,938.658 575.111,931.286 592.959,948.654 C604.857,960.22 615.424,984.783 614.404,1000.954 C636.607,992.552 648.904,978.454 668.404,961.954 C689.404,948.454 723.436,999.935 705.002,1034.85 C682.314,1051.46 665.814,1055.83 656.041,1067.85 C640.436,1087.01 637.139,1113.84 614.561,1128.65 C591.506,1143.78 561.904,1153.95 546.764,1123.25 z" fill-opacity="0" stroke="#1A1919" stroke-width="5.669" stroke-linecap="round" stroke-linejoin="round"/>
    <path d="M966.717,833.915 C920.861,855.818 876.967,877.552 834.904,895.954 C810.904,906.454 783.904,924.454 768.541,945.314 C763.045,952.767 736.373,970.005 717.904,984.454 C691.982,1004.73 672.834,1023.51 668.99,1037.05 C666.248,1046.68 702.893,1084.93 733.361,1078.25 C746.193,1075.44 762.916,1065.18 777.904,1051.95 C807.787,1025.58 836.064,988.158 849.904,979.954 C871.408,967.204 904.338,956.423 927.904,946.954 C986.287,923.482 1003.03,937.2 1021.27,884.236 C1039.21,832.087 1018.4,809.247 966.717,833.915" fill="#F5C6AE"/>
    <path d="M966.717,833.915 C920.861,855.818 876.967,877.552 834.904,895.954 C810.904,906.454 783.904,924.454 768.541,945.314 C763.045,952.767 736.373,970.005 717.904,984.454 C691.982,1004.73 672.834,1023.51 668.99,1037.05 C666.248,1046.68 702.893,1084.93 733.361,1078.25 C746.193,1075.44 762.916,1065.18 777.904,1051.95 C807.787,1025.58 836.064,988.158 849.904,979.954 C871.408,967.204 904.338,956.423 927.904,946.954 C986.287,923.482 1003.03,937.2 1021.27,884.236 C1039.21,832.087 1018.4,809.247 966.717,833.915 z" fill-opacity="0" stroke="#1A1919" stroke-width="5.669" stroke-linecap="round" stroke-linejoin="round"/>
    <path d="M597.166,1140.06 C589.967,1122.06 596.561,1107.05 592.959,1087.25 C589.971,1070.8 574.443,1051.94 573.166,1027.25 C571.881,1002.56 582.166,975.654 598.982,964.716 C618.615,951.947 637.268,966.013 647.334,979.779 C658.408,994.896 659.088,1003.36 664.994,1024.17 C687.67,1007.56 692.768,1003.08 706.689,991.919 C736.186,981.755 771.881,1035.69 753.447,1070.61 C730.764,1087.22 700.01,1110.45 691.232,1123.22 C687.26,1128.97 664.561,1153.55 644.51,1158.76 C621.764,1164.65 604.643,1158.74 597.166,1140.06" fill="#FFFFFE"/>
    <path d="M597.166,1140.06 C589.967,1122.06 596.561,1107.05 592.959,1087.25 C589.971,1070.8 574.443,1051.94 573.166,1027.25 C572.568,1015.83 577.127,969.29 596.65,971.634 C608.393,973.044 610.947,996.529 611.404,1005.45 C612.615,1029.29 611.146,1045.09 627.834,1063.92 C645.365,1083.71 648.186,1095.51 647.404,1122.44 C647.107,1132.8 645.213,1152.35 635.24,1158.51 C621.189,1167.2 602.451,1153.27 597.166,1140.06" fill="#F2F1F0"/>
    <path d="M597.166,1140.06 C589.967,1122.06 596.561,1107.05 592.959,1087.25 C589.971,1070.8 574.443,1051.94 573.166,1027.25 C571.881,1002.56 582.166,975.654 598.982,964.716 C618.615,951.947 637.268,966.013 647.334,979.779 C658.408,994.896 659.088,1003.36 664.994,1024.17 C687.67,1007.56 692.768,1003.08 706.689,991.919 C736.186,981.755 771.881,1035.69 753.447,1070.61 C730.764,1087.22 700.01,1110.45 691.232,1123.22 C687.26,1128.97 664.561,1153.55 644.51,1158.76 C621.764,1164.65 604.643,1158.74 597.166,1140.06 z M658.666,1000.325 C667.01,1030.32 663.865,1032.52 667.15,1047.15" fill-opacity="0" stroke="#1A1919" stroke-width="5.669" stroke-linecap="round" stroke-linejoin="round"/>
    <path d="M1105.96,825.654 C1103,852.314 1089.86,868.181 1065.9,880.954 C1020.9,904.954 981.904,933.454 949.361,1002.65 C914.58,986.216 927.764,963.052 900.764,945.052 C890.006,937.884 875.561,948.654 843.166,916.251 C810.061,883.146 786.764,878.45 756.764,878.45 C748.104,878.45 727.959,889.251 706.361,864.052 C728.568,838.857 757.256,817.13 792.764,808.251 C840.764,796.251 866.561,747.654 868.361,722.45 C882.764,775.251 915.635,791.283 942.764,804.052 C973.361,818.447 1056.76,839.447 1079.57,765.654 C1092.55,782.966 1110.76,782.447 1105.96,825.654" fill="#E6A468"/>
    <path d="M1105.96,825.654 C1103,852.314 1089.86,868.181 1065.9,880.954 C1020.9,904.954 981.904,933.454 949.361,1002.65 C914.58,986.216 927.764,963.052 900.764,945.052 C890.006,937.884 875.561,948.654 843.166,916.251 C810.061,883.146 786.764,878.45 756.764,878.45 C748.104,878.45 727.959,889.251 706.361,864.052 C728.568,838.857 757.256,817.13 792.764,808.251 C840.764,796.251 866.561,747.654 868.361,722.45 C882.764,775.251 915.635,791.283 942.764,804.052 C973.361,818.447 1056.76,839.447 1079.57,765.654 C1092.55,782.966 1110.76,782.447 1105.96,825.654 z" fill-opacity="0" stroke="#1A1919" stroke-width="5.669" stroke-linecap="round" stroke-linejoin="round"/>
    <path d="M975.154,838.954 C918.646,825.091 849.4,824.458 825.166,820.849 C782.803,814.552 830.51,812.849 850.361,778.857 C856.982,767.517 861.396,760.591 865.959,748.849 C872.99,730.771 879.588,709.943 875.404,679.954 C869.6,638.294 863.791,589.075 865.959,566.447 C868.408,540.958 858.447,542.411 885.904,514.954 C899.404,501.454 926.92,491.236 941.404,487.954 C967.736,481.99 986.545,481.368 1007.4,483.454 C1023.14,485.025 1039.02,490.575 1053.9,496.954 C1074.9,505.954 1089.64,520.24 1097.4,531.454 C1108.21,547.052 1111.5,568.052 1113.9,600.454 C1114.6,609.81 1097.86,710.751 1095.9,736.954 C1094.39,757.286 1110.66,773.599 1107.76,786.654 C1100.56,819.052 1086.76,825.654 1059.17,835.251 C1043.15,840.818 1014.03,848.493 975.154,838.954" fill="#EA8F93"/>
    <path d="M975.154,838.954 C918.646,825.091 849.4,824.458 825.166,820.849 C782.803,814.552 830.51,812.849 850.361,778.857 C856.982,767.517 861.396,760.591 865.959,748.849 C872.99,730.771 879.588,709.943 875.404,679.954 C869.6,638.294 863.791,589.075 865.959,566.447 C868.408,540.958 858.447,542.411 885.904,514.954 C899.404,501.454 926.92,491.236 941.404,487.954 C967.736,481.99 986.545,481.368 1007.4,483.454 C1023.14,485.025 1039.02,490.575 1053.9,496.954 C1074.9,505.954 1089.64,520.24 1097.4,531.454 C1108.21,547.052 1111.5,568.052 1113.9,600.454 C1114.6,609.81 1097.86,710.751 1095.9,736.954 C1094.39,757.286 1110.66,773.599 1107.76,786.654 C1100.56,819.052 1086.76,825.654 1059.17,835.251 C1043.15,840.818 1014.03,848.493 975.154,838.954 z" fill-opacity="0" stroke="#1A1919" stroke-width="5.669" stroke-linecap="round" stroke-linejoin="round"/>
    <path d="M983.65,385.251 C965.557,380.083 945.186,402.669 939.166,417.654 C938.896,443.447 945.904,482.2 938.404,496.204 C907.654,509.704 914.404,534.454 947.561,537.654 C994.256,542.154 1041.9,501.454 1005.9,483.454 C1001.4,471.454 999.529,444.501 999.166,432.052 C998.814,420.075 985.549,385.802 983.65,385.251" fill="#F5C6AE"/>
    <path d="M983.65,385.251 C965.557,380.083 945.186,402.669 939.166,417.654 C938.896,443.447 945.904,482.2 938.404,496.204 C907.654,509.704 914.404,534.454 947.561,537.654 C994.256,542.154 1041.9,501.454 1005.9,483.454 C1001.4,471.454 999.529,444.501 999.166,432.052 C998.814,420.075 985.549,385.802 983.65,385.251 z" fill-opacity="0" stroke="#1A1919" stroke-width="5.669" stroke-linecap="round" stroke-linejoin="round"/>
    <path d="M1077.14,249.103 C1026.24,128.583 858.787,170.212 835.936,291.126 C833.439,304.31 857.662,348.083 864.4,383.95 C868.303,404.669 865.033,415.544 867.4,428.458 C872.404,455.704 897.225,469.388 924.154,480.454 C950.404,490.204 975.904,479.704 1002.9,460.954 C1043.17,432.993 1071.59,398.818 1077.15,361.204 C1079.82,343.193 1086,270.091 1077.14,249.103" fill="#F5C6AE"/>
    <path d="M1077.14,249.103 C1026.24,128.583 858.787,170.212 835.936,291.126 C833.439,304.31 857.662,348.083 864.4,383.95 C868.303,404.669 865.033,415.544 867.4,428.458 C872.404,455.704 897.225,469.388 924.154,480.454 C950.404,490.204 975.904,479.704 1002.9,460.954 C1043.17,432.993 1071.59,398.818 1077.15,361.204 C1079.82,343.193 1086,270.091 1077.14,249.103 z M867.4,349.954 C868.9,329.95 891.904,324.454 905.404,343.954 M944.908,337.954 C952.408,309.454 985.408,311.95 995.018,330.337" fill-opacity="0" stroke="#1A1919" stroke-width="5.669" stroke-linecap="round" stroke-linejoin="round"/>
    <path d="M885.4,358.954 C893.404,358.954 892.666,372.075 887.908,372.454 C879.166,373.158 879.318,358.954 885.4,358.954" fill="#1A1919"/>
    <path d="M961.408,349.954 C969.904,347.95 971.217,363.56 964.9,363.958 C956.904,364.45 956.791,351.044 961.408,349.954" fill="#1A1919"/>
    <path d="M934.498,439.45 C941.404,454.954 968.908,450.958 975.904,424.954" fill-opacity="0" stroke="#1A1919" stroke-width="5.669" stroke-linecap="round" stroke-linejoin="round"/>
    <path d="M875.404,401.458 C877.514,394.392 883.225,387.314 894.4,389.95 C906.705,392.857 913.115,400.544 910.408,410.95 C907.342,422.716 893.486,431.443 883.408,422.95 C875.252,416.091 872.979,409.591 875.404,401.458" fill="#EFABA1"/>
    <path d="M987.904,376.204 C1008.9,371.2 1018.65,396.454 1007.4,407.704 C997.268,417.841 978.904,418.954 973.572,402.794 C971.381,396.169 969.119,380.681 987.904,376.204" fill="#EFABA1"/>
    <path d="M915.904,266.704 C906.029,293.552 888.904,323.458 860.404,339.958 C869.404,320.189 884.639,296.564 881.404,272.704 C858.705,292.318 846.447,321.38 854.744,354.478 C792.787,345.536 775.279,288.501 792.904,243.454 C806.404,208.954 842.404,174.454 882.904,153.454 C934.338,126.783 974.768,120.841 1015.41,134.958 C1087.41,159.958 1137.25,267.091 1143.9,316.204 C1151.9,375.208 1137.08,442.509 1020.9,463.204 C1047.9,428.704 1045.41,379.954 1032.9,346.954 C1024.14,323.822 989.404,295.204 972.904,257.704 C971.404,283.204 979.6,297.736 1002.9,317.704 C978.459,312.173 952.654,298.954 945.904,262.954 C941.404,312.454 912.154,325.204 890.404,331.204 C912.904,313.204 921.236,291.607 915.904,266.704" fill="#B06B56"/>
    <path d="M915.904,266.704 C906.029,293.552 888.904,323.458 860.404,339.958 C869.404,320.189 884.639,296.564 881.404,272.704 C858.705,292.318 846.447,321.38 854.744,354.478 C792.787,345.536 775.279,288.501 792.904,243.454 C806.404,208.954 842.404,174.454 882.904,153.454 C934.338,126.783 974.768,120.841 1015.41,134.958 C1087.41,159.958 1137.25,267.091 1143.9,316.204 C1151.9,375.208 1137.08,442.509 1020.9,463.204 C1047.9,428.704 1045.41,379.954 1032.9,346.954 C1024.14,323.822 989.404,295.204 972.904,257.704 C971.404,283.204 979.6,297.736 1002.9,317.704 C978.459,312.173 952.654,298.954 945.904,262.954 C941.404,312.454 912.154,325.204 890.404,331.204 C912.904,313.204 921.236,291.607 915.904,266.704 z" fill-opacity="0" stroke="#1A1919" stroke-width="5.669" stroke-linecap="round" stroke-linejoin="round"/>
    <path d="M914.908,419.458 C904.9,417.454 898.904,411.454 901.408,402.958 C903.498,395.822 910.408,395.958 916.9,396.958" fill="#F5C6AE"/>
    <path d="M914.908,419.458 C904.9,417.454 898.904,411.454 901.408,402.958 C903.498,395.822 910.408,395.958 916.9,396.958" fill-opacity="0" stroke="#1A1919" stroke-width="5.669" stroke-linecap="round" stroke-linejoin="round"/>
    <path d="M897.154,505.954 C867.904,524.704 848.295,566.294 834.904,588.454 C827.123,601.333 806.65,624.689 796.361,633.654 C783.646,644.732 755.404,656.751 737.404,660.958 C722.791,664.368 746.592,669.665 740.967,682.65 C737.709,690.154 746.182,710.7 747.4,718.954 C766.502,725.458 795.682,710.658 817.959,698.45 C832.912,690.267 849.904,670.954 870.904,642.454 C869.404,624.454 866.404,580.954 878.404,550.954" fill="#EA8F93"/>
    <path d="M897.154,505.954 C867.904,524.704 848.295,566.294 834.904,588.454 C827.123,601.333 806.65,624.689 796.361,633.654 C783.646,644.732 755.404,656.751 737.404,660.958 C722.791,664.368 746.592,669.665 740.967,682.65 C737.709,690.154 746.182,710.7 747.4,718.954 C766.502,725.458 795.682,710.658 817.959,698.45 C832.912,690.267 849.904,670.954 870.904,642.454 C869.404,624.454 866.404,580.954 878.404,550.954" fill-opacity="0" stroke="#1A1919" stroke-width="5.669" stroke-linecap="round" stroke-linejoin="round"/>
    <path d="M704.561,653.45 L688.967,599.45 L712.959,595.849 C712.959,595.849 796.947,704.06 776.404,745.954 C774.6,771.15 704.561,653.45 704.561,653.45" fill="#FFFFFE"/>
    <path d="M704.561,653.45 L688.967,599.45 L712.959,595.849 C712.959,595.849 796.947,704.06 776.404,745.954 C774.6,771.15 704.561,653.45 704.561,653.45 z" fill-opacity="0" stroke="#1A1919" stroke-width="5.669" stroke-linecap="round" stroke-linejoin="round"/>
    <path d="M765.764,747.052 C803.561,702.052 979.959,694.849 979.959,694.849 L994.9,707.458 L823.361,790.251 C823.361,790.251 769.361,804.654 765.764,747.052" fill="#FFFFFE"/>
    <path d="M765.764,747.052 C803.561,702.052 979.959,694.849 979.959,694.849 L994.9,707.458 L823.361,790.251 C823.361,790.251 769.361,804.654 765.764,747.052 z" fill-opacity="0" stroke="#1A1919" stroke-width="5.669" stroke-linecap="round" stroke-linejoin="round"/>
    <path d="M688.361,599.45 L707.561,796.849 L772.959,910.849 L774.764,741.654 L688.361,599.45" fill="#E5D299"/>
    <path d="M688.361,599.45 L707.561,796.849 L772.959,910.849 L774.764,741.654 L688.361,599.45 z" fill-opacity="0" stroke="#1A1919" stroke-width="5.669" stroke-linecap="round" stroke-linejoin="round"/>
    <path d="M778.361,743.45 L994.361,707.45 L991.959,903.654 L787.967,921.052 L778.361,743.45" fill="#E5D299"/>
    <path d="M778.361,743.45 L994.361,707.45 L991.959,903.654 L787.967,921.052 L778.361,743.45 z" fill-opacity="0" stroke="#1A1919" stroke-width="5.669" stroke-linecap="round" stroke-linejoin="round"/>
    <path d="M767.561,730.849 L771.764,911.45 L789.764,922.849 L787.967,742.251 L767.561,730.849" fill="#E3C992"/>
    <path d="M767.561,730.849 L771.764,911.45 L789.764,922.849 L787.967,742.251 L767.561,730.849 z" fill-opacity="0" stroke="#1A1919" stroke-width="5.669" stroke-linecap="round" stroke-linejoin="round"/>
    <path d="M1046.4,574.954 C1042.77,614.118 1050.71,643.271 1039.36,675.95 C1034.78,689.177 1029.17,710.447 1005.17,729.654 C997.373,751.036 1001.54,745.935 1006.91,769.74 C1012.85,796.052 1025.21,760.341 1025.4,787.954 C1041.9,807.454 1056.15,796.204 1072.36,770.447 C1087.46,746.458 1098.64,720.009 1104.9,694.954 C1112.4,664.954 1112.4,651.454 1113.9,606.454" fill="#EA8F93"/>
    <path d="M1046.4,574.954 C1042.77,614.118 1050.71,643.271 1039.36,675.95 C1034.78,689.177 1029.17,710.447 1005.17,729.654 C997.373,751.036 1001.54,745.935 1006.91,769.74 C1012.85,796.052 1025.21,760.341 1025.4,787.954 C1041.9,807.454 1056.15,796.204 1072.36,770.447 C1087.46,746.458 1098.64,720.009 1104.9,694.954 C1112.4,664.954 1112.4,651.454 1113.9,606.454" fill-opacity="0" stroke="#1A1919" stroke-width="5.669" stroke-linecap="round" stroke-linejoin="round"/>
    <path d="M983.404,825.079 C979.736,828.177 980.521,832.052 983.404,834.454 C987.904,838.204 994.029,833.505 1002.9,827.704 C1007.78,824.517 1016.97,817.251 1026.15,810.829 C1035.34,804.408 1042.65,796.954 1046.03,787.579 C1050.22,775.911 1049.03,761.896 1040.4,748.204 C1029.74,731.259 1011,726.154 993.904,732.454 C994.498,739.607 993.717,742.65 993.904,745.954 C989.029,753.454 977.768,761.341 974.404,763.579 C968.779,767.329 949.654,775.204 953.404,784.954 C957.154,791.704 963.232,787.392 970.654,783.829 C976.9,780.829 984.154,775.204 990.764,771.349 C984.154,779.704 983.346,780.286 978.529,784.204 C968.557,792.314 958.092,794.638 960.904,800.704 C965.779,811.204 979.045,799.083 994.654,791.329 C990.904,798.454 988.479,800.013 982.9,803.95 C974.322,810.021 967.561,811.181 969.904,817.954 C973.279,827.704 993.787,816.021 1001.78,807.454 C990.775,817.45 988.279,820.954 983.404,825.079" fill="#F5C6AE"/>
    <path d="M983.404,825.079 C979.736,828.177 980.521,832.052 983.404,834.454 C987.904,838.204 994.029,833.505 1002.9,827.704 C1007.78,824.517 1016.97,817.251 1026.15,810.829 C1035.34,804.408 1042.65,796.954 1046.03,787.579 C1050.22,775.911 1049.03,761.896 1040.4,748.204 C1029.74,731.259 1011,726.154 993.904,732.454 C994.498,739.607 993.717,742.65 993.904,745.954 C989.029,753.454 977.768,761.341 974.404,763.579 C968.779,767.329 949.654,775.204 953.404,784.954 C957.154,791.704 963.232,787.392 970.654,783.829 C976.9,780.829 984.154,775.204 990.764,771.349 C984.154,779.704 983.346,780.286 978.529,784.204 C968.557,792.314 958.092,794.638 960.904,800.704 C965.779,811.204 979.045,799.083 994.654,791.329 C990.904,798.454 988.479,800.013 982.9,803.95 C974.322,810.021 967.561,811.181 969.904,817.954 C973.279,827.704 993.787,816.021 1001.78,807.454 C990.775,817.45 988.279,820.954 983.404,825.079 z" fill-opacity="0" stroke="#1A1919" stroke-width="5.669" stroke-linecap="round" stroke-linejoin="round"/>
    <path d="M685.959,715.251 C680.791,697.591 700.549,707.646 702.764,717.056 C706.686,733.673 688.576,724.181 685.959,715.251" fill="#F5C6AE"/>
    <path d="M685.959,715.251 C680.791,697.591 700.549,707.646 702.764,717.056 C706.686,733.673 688.576,724.181 685.959,715.251 z" fill-opacity="0" stroke="#1A1919" stroke-width="5.669" stroke-linecap="round" stroke-linejoin="round"/>
    <path d="M689.561,728.447 C692.865,721.275 710.557,729.052 703.959,738.654 C699.576,745.04 685.467,737.329 689.561,728.447" fill="#F5C6AE"/>
    <path d="M689.561,728.447 C692.865,721.275 710.557,729.052 703.959,738.654 C699.576,745.04 685.467,737.329 689.561,728.447 z" fill-opacity="0" stroke="#1A1919" stroke-width="5.669" stroke-linecap="round" stroke-linejoin="round"/>
    <path d="M681.166,687.052 C687.834,676.45 708.764,698.45 702.764,708.056 C698.721,714.525 676.576,694.341 681.166,687.052" fill="#F5C6AE"/>
    <path d="M681.166,687.052 C687.834,676.45 708.764,698.45 702.764,708.056 C698.721,714.525 676.576,694.341 681.166,687.052 z" fill-opacity="0" stroke="#1A1919" stroke-width="5.669" stroke-linecap="round" stroke-linejoin="round"/>
    <path d="M705.756,687.646 C704.357,693.947 696.998,689.388 693.154,687.052 C684.537,681.794 675.764,666.654 693.166,660.052 C695.229,664.908 695.561,667.849 696.764,670.849 C702.764,675.654 706.959,682.251 705.756,687.646" fill="#F5C6AE"/>
    <path d="M705.756,687.646 C704.357,693.947 696.998,689.388 693.154,687.052 C684.537,681.794 675.764,666.654 693.166,660.052 C695.229,664.908 695.561,667.849 696.764,670.849 C702.764,675.654 706.959,682.251 705.756,687.646 z" fill-opacity="0" stroke="#1A1919" stroke-width="5.669" stroke-linecap="round" stroke-linejoin="round"/>
  </g>
</svg>
